<svg id="eE3OASj9RwP1" xmlns="http://www.w3.org/2000/svg" xmlns:xlink="http://www.w3.org/1999/xlink" viewBox="0 0 512 512" shape-rendering="geometricPrecision" text-rendering="geometricPrecision"><style><![CDATA[#eE3OASj9RwP36_tr {animation: eE3OASj9RwP36_tr__tr 10000ms linear infinite normal forwards}@keyframes eE3OASj9RwP36_tr__tr { 0% {transform: translate(246.2505px,140.532px) rotate(-180deg)} 100% {transform: translate(246.2505px,140.532px) rotate(274.091816deg)}} #eE3OASj9RwP38_tr {animation: eE3OASj9RwP38_tr__tr 10000ms linear infinite normal forwards}@keyframes eE3OASj9RwP38_tr__tr { 0% {transform: translate(281.298008px,172.151px) rotate(1355deg)} 100% {transform: translate(281.298008px,172.151px) rotate(180deg)}} #eE3OASj9RwP59_ts {animation: eE3OASj9RwP59_ts__ts 10000ms linear infinite normal forwards}@keyframes eE3OASj9RwP59_ts__ts { 0% {transform: translate(251.628094px,252.519215px) rotate(-180deg) scale(-1.45183,1.188904)} 6% {transform: translate(251.628094px,252.519215px) rotate(-180deg) scale(-1.45183,2.971909);animation-timing-function: cubic-bezier(0,0,0.58,1)} 20% {transform: translate(251.628094px,252.519215px) rotate(-180deg) scale(-1.45183,1.240585)} 100% {transform: translate(251.628094px,252.519215px) rotate(-180deg) scale(-1.45183,1.240585)}}]]></style><g id="eE3OASj9RwP2"><path id="eE3OASj9RwP3" d="M0,0L500,0L500,0.249L0,0.249Z" transform="matrix(1 0 0 -1 0 382.648)" fill="rgb(236,236,236)" stroke="none" stroke-width="1"/><path id="eE3OASj9RwP4" d="M0,0L21.679,0L21.679,0.249L0,0.249Z" transform="matrix(1 0 0 -1 428.222 398.744)" fill="rgb(236,236,236)" stroke="none" stroke-width="1"/><path id="eE3OASj9RwP5" d="M0,0L34.109,0L34.109,0.25L0,0.25Z" transform="matrix(1 0 0 -1 310.558 393.556)" fill="rgb(236,236,236)" stroke="none" stroke-width="1"/><path id="eE3OASj9RwP6" d="M0,0L44.525,0L44.525,0.25L0,0.25Z" transform="matrix(1 0 0 -1 396.586 389.458)" fill="rgb(236,236,236)" stroke="none" stroke-width="1"/><path id="eE3OASj9RwP7" d="M0,0L11.137,0L11.137,0.25L0,0.25Z" transform="matrix(1 0 0 -1 161.877 394.5)" fill="rgb(236,236,236)" stroke="none" stroke-width="1"/><path id="eE3OASj9RwP8" d="M0,0L38.389,0L38.389,0.25L0,0.25Z" transform="matrix(1 0 0 -1 114.584 394.5)" fill="rgb(236,236,236)" stroke="none" stroke-width="1"/><path id="eE3OASj9RwP9" d="M0,0L27.696,0L27.696,0.25L0,0.25Z" transform="matrix(1 0 0 -1 66.307 390.277)" fill="rgb(236,236,236)" stroke="none" stroke-width="1"/><path id="eE3OASj9RwP10" d="M5.708,282.598C2.698,282.598,0.25,280.149,0.25,277.14L0.25,5.708C0.25,2.699,2.698,0.25,5.708,0.25L198.807,0.25C201.815,0.25,204.264,2.699,204.264,5.708L204.264,277.14C204.264,280.149,201.815,282.598,198.807,282.598ZM198.807,0L5.708,0C2.561,0,0,2.561,0,5.708L0,277.14C0,280.286,2.561,282.848,5.708,282.848L198.807,282.848C201.953,282.848,204.514,280.286,204.514,277.14L204.514,5.708C204.514,2.561,201.953,0,198.807,0" transform="matrix(1 0 0 -1 38.207 337.8)" fill="rgb(236,236,236)" stroke="none" stroke-width="1"/><path id="eE3OASj9RwP11" d="M5.707,282.598C2.698,282.598,0.25,280.149,0.25,277.14L0.25,5.708C0.25,2.699,2.698,0.25,5.707,0.25L198.806,0.25C201.815,0.25,204.264,2.699,204.264,5.708L204.264,277.14C204.264,280.149,201.815,282.598,198.806,282.598ZM198.806,0L5.707,0C2.561,0,0,2.561,0,5.708L0,277.14C0,280.286,2.561,282.848,5.707,282.848L198.806,282.848C201.953,282.848,204.514,280.286,204.514,277.14L204.514,5.708C204.514,2.561,201.953,0,198.806,0" transform="matrix(1 0 0 -1 254.505 337.8)" fill="rgb(236,236,236)" stroke="none" stroke-width="1"/><path id="eE3OASj9RwP12" d="M85.71,35.349C56.932,36.335,34.397,60.469,35.383,89.248C36.37,118.061,60.504,140.594,89.282,139.609C118.061,138.622,140.595,114.491,139.608,85.677C138.622,56.898,114.488,34.363,85.71,35.349M174.506,77.92L174.957,91.061L166.889,93.697C166.557,98.187,165.807,102.62,164.738,106.893L171.576,111.935L166.931,124.278L158.472,123.597C156.457,127.588,154.087,131.384,151.432,134.947L155.814,142.259L146.805,151.87L139.243,147.998C135.837,150.893,132.247,153.515,128.404,155.833L129.629,164.227L117.631,169.672L112.134,163.23C107.946,164.588,103.606,165.605,99.117,166.279L97.073,174.507L83.897,174.958L81.295,166.89C76.77,166.525,72.372,165.807,68.1,164.739L63.022,171.543L50.68,166.932L51.362,158.472C47.37,156.423,43.574,154.054,40.012,151.399L32.733,155.779L23.088,146.807L26.959,139.211C24.066,135.839,21.443,132.213,19.158,128.37L10.766,129.628L5.287,117.633L11.764,112.134C10.406,107.946,9.353,103.573,8.714,99.117L0.45,97.04L0,83.899L8.102,81.26C8.433,76.737,9.186,72.336,10.254,68.066L3.417,63.024L8.062,50.679L16.52,51.363C18.536,47.371,20.905,43.575,23.56,40.012L19.178,32.7L28.187,23.087L35.748,26.96C39.12,24.067,42.745,21.443,46.588,19.124L45.328,10.734L57.326,5.288L62.858,11.73C67.046,10.37,71.385,9.354,75.875,8.68L77.918,0.453L91.094,0L93.697,8.07C98.221,8.435,102.62,9.152,106.891,10.221L111.935,3.417L124.277,8.029L123.629,16.485C127.623,18.535,131.384,20.906,134.98,23.561L142.259,19.179L151.904,28.152L148.033,35.747C150.926,39.12,153.55,42.745,155.834,46.589L164.226,45.329L169.705,57.327L163.228,62.825C164.586,67.012,165.638,71.351,166.277,75.841Z" transform="matrix(1 0 0 -1 41.566 278.798)" fill="rgb(236,236,236)" stroke="none" stroke-width="1"/><path id="eE3OASj9RwP13" d="M25.434,25.755C22.996,28.366,23.136,32.46,25.747,34.899C28.362,37.34,32.456,37.199,34.894,34.588C37.332,31.977,37.192,27.883,34.578,25.442C31.966,23.003,27.872,23.144,25.434,25.755M49.05,6.624L52.364,9.719L51.04,12.328C52.054,13.504,52.952,14.769,53.733,16.07L56.63,15.633L58.507,19.776L56.278,21.671C56.76,23.136,57.108,24.64,57.329,26.156L60.181,26.87L60.328,31.411L57.54,32.311C57.415,33.847,57.179,35.361,56.807,36.864L59.153,38.612L57.555,42.865L54.643,42.635C53.953,43.987,53.143,45.294,52.213,46.553L53.721,49.058L50.618,52.381L48.016,51.047C46.823,52.062,45.576,52.959,44.274,53.74L44.695,56.638L40.561,58.524L38.664,56.294C37.191,56.768,35.688,57.115,34.172,57.337L33.465,60.18L28.925,60.344L28.017,57.548C26.489,57.431,24.966,57.187,23.471,56.807L21.732,59.159L17.471,57.57L17.709,54.651C16.357,53.96,15.034,53.151,13.791,52.22L11.27,53.729L7.956,50.634L9.288,48.015C8.266,46.831,7.376,45.574,6.595,44.273L3.699,44.711L1.821,40.568L4.05,38.672C3.569,37.207,3.22,35.703,2.999,34.188L0.148,33.473L0,28.932L2.789,28.033C2.905,26.505,3.149,24.982,3.521,23.479L1.168,21.74L2.766,17.486L5.685,17.708C6.375,16.356,7.185,15.05,8.116,13.791L6.608,11.286L9.71,7.963L12.313,9.296C13.505,8.282,14.752,7.384,16.055,6.604L15.625,3.715L19.759,1.829L21.663,4.049C23.137,3.575,24.632,3.236,26.157,3.007L26.863,0.163L31.403,0L32.311,2.796C33.839,2.912,35.363,3.156,36.857,3.537L38.596,1.184L42.858,2.773L42.619,5.693C43.971,6.383,45.286,7.185,46.537,8.123Z" transform="matrix(1 0 0 -1 391.907 164.047)" fill="rgb(236,236,236)" stroke="none" stroke-width="1"/><path id="eE3OASj9RwP14" d="M66.749,42.891C53.095,43.359,42.429,54.822,42.895,68.437C43.363,82.091,54.787,92.758,68.441,92.29C82.096,91.823,92.763,80.399,92.295,66.745C91.829,53.129,80.403,42.423,66.749,42.891M135.201,76.281L124.86,83.422C124.857,83.429,124.857,83.439,124.854,83.447C123.832,87.204,122.42,90.82,120.695,94.218L123.344,104.616L108.345,120.681L97.786,118.747C94.517,120.699,91.007,122.353,87.332,123.63C87.324,123.632,87.314,123.634,87.306,123.638L80.886,134.448L58.922,135.201L51.78,124.86C51.767,124.856,51.752,124.853,51.739,124.849C47.986,123.827,44.374,122.418,40.979,120.696L30.586,123.345L14.522,108.344L16.451,97.807C16.449,97.803,16.447,97.801,16.445,97.797C14.453,94.491,12.838,90.98,11.561,87.304L0.753,80.887L0,58.921L10.351,51.774C11.372,47.991,12.74,44.383,14.498,40.955C14.499,40.954,14.499,40.954,14.499,40.952L11.858,30.585L26.857,14.523L37.351,16.443C40.663,14.485,44.176,12.829,47.897,11.55C47.899,11.548,47.902,11.547,47.906,11.547L54.315,0.753L76.28,0L83.416,10.334C87.214,11.356,90.832,12.766,94.268,14.493C94.269,14.493,94.27,14.493,94.271,14.495L104.616,11.859L120.68,26.857L118.751,37.397C120.743,40.703,122.359,44.216,123.636,47.892C123.636,47.892,123.636,47.894,123.637,47.894L134.449,54.315Z" transform="matrix(1 0 0 -1 184.788 368.617)" fill="rgb(236,236,236)" stroke="none" stroke-width="1"/><path id="eE3OASj9RwP15" d="M55.3922,82.834C40.6942,82.834,28.4922,71.139,27.9852,56.338C27.4672,41.22,39.3452,28.499,54.4642,27.98C61.7892,27.735,68.7752,30.349,74.1322,35.357C79.4852,40.361,82.5712,47.146,82.8222,54.459C83.3392,69.577,71.4612,82.299,56.3432,82.817C56.0252,82.828,55.7072,82.834,55.3922,82.834M55.4302,23.74C55.0602,23.74,54.6912,23.747,54.3192,23.76C36.8732,24.357,23.1662,39.037,23.7642,56.482C24.3622,73.928,39.0652,87.631,56.4872,87.038C73.9332,86.44,87.6402,71.761,87.0422,54.314C86.7532,45.874,83.1922,38.046,77.0162,32.272C71.1052,26.747,63.4762,23.74,55.4302,23.74M70.9432,99.587L70.9532,99.587ZM46.1602,4.775L61.1692,4.261L66.1402,11.459C66.4242,11.87,66.8452,12.168,67.3292,12.298C70.0932,13.041,72.8372,14.093,75.4832,15.424C75.4882,15.426,75.4932,15.428,75.4972,15.431C75.9382,15.647,76.4522,15.715,76.9552,15.584L83.9942,13.791L94.9702,24.04L93.6572,31.214C93.5642,31.72,93.6602,32.242,93.9252,32.684C95.3732,35.087,96.6012,37.723,97.5762,40.518C97.7362,41.014,98.0752,41.431,98.5172,41.69L106.039,46.158L106.554,61.168L99.3502,66.143C98.9742,66.402,98.6922,66.778,98.5472,67.212C98.5292,67.266,98.5132,67.323,98.4982,67.381C97.7452,70.139,96.6982,72.849,95.3842,75.436C95.1522,75.893,95.0952,76.417,95.2212,76.913L97.0252,83.991L86.7752,94.97L79.5862,93.653C79.0822,93.561,78.5632,93.655,78.1242,93.917C75.6242,95.409,72.9842,96.642,70.2782,97.583C70.1252,97.636,69.9702,97.707,69.8372,97.788C69.5452,97.968,69.3022,98.215,69.1282,98.509L64.6562,106.038L49.6462,106.553L44.6722,99.349C44.3762,98.92,43.9332,98.617,43.4292,98.496C40.6522,97.735,37.9512,96.691,35.3752,95.384C34.9182,95.152,34.3922,95.094,33.8982,95.221L26.8232,97.024L15.8462,86.773L17.1592,79.601C17.2412,79.15,17.1752,78.686,16.9702,78.276C16.9412,78.219,16.9102,78.162,16.8752,78.106C15.4242,75.694,14.1942,73.051,13.2212,70.247C13.0572,69.777,12.7322,69.379,12.3042,69.125L4.77618,64.654L4.26218,49.646L11.4722,44.666C11.8832,44.383,12.1802,43.962,12.3102,43.48C13.0872,40.604,14.1342,37.873,15.4202,35.362C15.4952,35.219,15.5522,35.066,15.5912,34.908C15.6762,34.569,15.6762,34.214,15.5892,33.875L13.7912,26.821L24.0412,15.846L31.1792,17.151C31.6812,17.242,32.1972,17.149,32.6342,16.892C35.1792,15.387,37.8322,14.154,40.5212,13.227C41.0072,13.072,41.4282,12.744,41.6962,12.293ZM62.2502,0C62.2262,0,62.2032,0,62.1782,0.001L44.8612,0.594C44.1422,0.618,43.4852,1.008,43.1182,1.626L38.4552,9.479C35.9762,10.378,33.5332,11.512,31.1732,12.856L23.6662,11.483C22.9572,11.35,22.2342,11.593,21.7432,12.119L9.91718,24.782C9.42618,25.309,9.23718,26.048,9.41418,26.745L11.3022,34.155C10.1552,36.502,9.19518,39.009,8.44318,41.625L0.912181,46.826C0.320181,47.234,-0.022819,47.917,0.001181,48.636L0.595181,65.953C0.619181,66.672,1.00818,67.329,1.62718,67.696L9.49318,72.367C10.4262,74.921,11.5572,77.353,12.8632,79.615L11.4832,87.148C11.3542,87.855,11.5942,88.581,12.1192,89.071L24.7842,100.898C25.3102,101.391,26.0502,101.578,26.7472,101.401L34.1822,99.506C36.5872,100.676,39.0862,101.64,41.6312,102.377L46.8282,109.902C47.2362,110.494,47.9072,110.86,48.6372,110.813L65.9542,110.219C66.6732,110.194,67.3302,109.806,67.6972,109.187L72.3702,101.32C74.8512,100.411,77.2762,99.28,79.5962,97.948L87.1502,99.332C87.8592,99.461,88.5822,99.222,89.0742,98.696L100.899,86.03C101.39,85.504,101.58,84.765,101.402,84.067L99.5072,76.63C100.678,74.224,101.641,71.726,102.378,69.184L109.903,63.987C110.496,63.579,110.838,62.897,110.814,62.178L110.221,44.859C110.196,44.141,109.807,43.483,109.188,43.116L101.319,38.443C100.387,35.891,99.2572,33.46,97.9532,31.2L99.3322,23.664C99.4622,22.957,99.2222,22.231,98.6962,21.741L86.0322,9.917C85.5062,9.425,84.7682,9.235,84.0692,9.414L76.6682,11.3C74.2282,10.122,71.7162,9.159,69.1802,8.43L63.9882,0.911C63.5932,0.34,62.9432,0,62.2502,0" transform="matrix(1 0 0 -1 281.298 229.954)" fill="rgb(236,236,236)" stroke="none" stroke-width="1"/><path id="eE3OASj9RwP16" d="M9.1,0L1.926,1.927L0,9.1L2.809,11.908L5.772,5.771L11.909,2.809Z" transform="matrix(1 0 0 -1 374.339 105.323)" fill="rgb(225,225,225)" stroke="none" stroke-width="1"/><path id="eE3OASj9RwP17" d="M4.734,0C6.041,1.307,6.041,3.437,4.734,4.744C3.427,6.05,1.307,6.041,0,4.734L3.568,10.087L8.353,7.668L9.402,2.64Z" transform="matrix(1 0 0 -1 379.151 100.522)" fill="rgb(225,225,225)" stroke="none" stroke-width="1"/><path id="eE3OASj9RwP18" d="M9.545,4.802C10.852,6.109,10.852,8.24,9.545,9.546C8.238,10.853,6.118,10.843,4.811,9.536C3.504,8.23,3.504,6.118,4.811,4.812C6.118,3.505,8.238,3.495,9.545,4.802M0,9.1L5.256,14.357L12.43,12.431L14.356,5.257L9.099,0L1.926,1.927Z" transform="matrix(1 0 0 -1 376.582 103.081)" fill="rgb(240,240,240)" stroke="none" stroke-width="1"/><path id="eE3OASj9RwP19" d="M1.507,0L5.356,1.034L6.39,4.883L4.883,6.39L3.293,3.098L0,1.507Z" transform="matrix(1 0 0 -1 88.7139 296.708)" fill="rgb(225,225,225)" stroke="none" stroke-width="1"/><path id="eE3OASj9RwP20" d="M2.505,0C1.804,0.702,1.804,1.845,2.505,2.546C3.206,3.247,4.344,3.242,5.046,2.541L3.131,5.413L0.563,4.115L0,1.417Z" transform="matrix(1 0 0 -1 87.4767 294.132)" fill="rgb(225,225,225)" stroke="none" stroke-width="1"/><path id="eE3OASj9RwP21" d="M2.582,2.577C1.881,3.278,1.881,4.421,2.582,5.122C3.283,5.823,4.421,5.818,5.123,5.117C5.824,4.416,5.824,3.283,5.123,2.582C4.421,1.881,3.283,1.876,2.582,2.577M7.704,4.883L4.883,7.704L1.034,6.671L0,2.821L2.821,0L6.671,1.034Z" transform="matrix(1 0 0 -1 86.1963 295.505)" fill="rgb(240,240,240)" stroke="none" stroke-width="1"/><path id="eE3OASj9RwP22" d="M0.624,3.819L3.819,0.624C4.651,-0.208,6.012,-0.208,6.844,0.624C7.676,1.456,7.676,2.817,6.844,3.649L3.649,6.843C2.817,7.675,1.456,7.675,0.624,6.843C-0.208,6.011,-0.208,4.65,0.624,3.819" transform="matrix(1 0 0 -1 75.7385 89.4811)" fill="rgb(240,240,240)" stroke="none" stroke-width="1"/><path id="eE3OASj9RwP23" d="M3.20279,8.666C5.66479,9.55,8.33379,8.394,9.16379,6.082C9.99379,3.771,8.67079,1.182,6.20879,0.297003C3.74679,-0.586997,1.07779,0.569003,0.247786,2.88C-0.582214,5.191,0.740786,7.781,3.20279,8.666" transform="matrix(1 0 0 -1 70.909 86.3711)" fill="rgb(225,225,225)" stroke="none" stroke-width="1"/><path id="eE3OASj9RwP24" d="M0,1.29L0.463,0L9.97,3.415L9.507,4.704Z" transform="matrix(1 0 0 -1 70.6296 84.2421)" fill="rgb(240,240,240)" stroke="none" stroke-width="1"/><path id="eE3OASj9RwP25" d="M387.778,11.323C387.778,5.069,300.971,0,193.889,0C86.807,0,0,5.069,0,11.323C0,17.577,86.807,22.646,193.889,22.646C300.971,22.646,387.778,17.577,387.778,11.323" transform="matrix(1 0 0 -1 56.111 427.561)" fill="rgb(245,245,245)" fill-opacity="0.899992" stroke="none" stroke-width="1"/><path id="eE3OASj9RwP26" d="M8.86295,13.1398C9.48195,10.4158,10.433,8.5748,11.716,7.6158C12.998,6.6548,14.51,6.3738,16.252,6.7708C18.043,7.1768,19.297,8.0748,20.013,9.4628C20.73,10.8518,20.745,13.0548,20.059,16.0728C19.482,18.6118,18.548,20.3508,17.257,21.2898C15.967,22.2278,14.444,22.4978,12.69,22.0988C11.009,21.7168,9.79495,20.8148,9.04795,19.3938C8.29995,17.9718,8.23795,15.8878,8.86295,13.1398M0.518951,11.2828C-0.482049,15.6858,-0.035049,19.3928,1.86095,22.4058C3.75595,25.4158,6.89395,27.4188,11.274,28.4148C15.763,29.4358,19.496,29.0168,22.473,27.1588C25.45,25.2998,27.432,22.2008,28.42,17.8578C29.136,14.7038,29.194,11.9978,28.592,9.7398C27.989,7.4798,26.812,5.5608,25.062,3.9828C23.311,2.4038,20.939,1.2758,17.946,0.594804C14.904,-0.097196,12.276,-0.185196,10.062,0.329804C7.84795,0.845804,5.88395,2.0118,4.16795,3.8288C2.45195,5.6448,1.23595,8.1288,0.518951,11.2828" transform="matrix(1 0 0 -1 86.1968 131.929)" fill="rgb(26,46,53)" fill-opacity="0.899992" stroke="none" stroke-width="1"/><path id="eE3OASj9RwP27" d="M7.81021,9.74864C8.20621,8.00764,8.85121,6.79964,9.74721,6.12464C10.6412,5.45064,11.6232,5.23564,12.6902,5.47764C13.7692,5.72464,14.5622,6.33664,15.0682,7.31564C15.5752,8.29564,15.6222,9.69264,15.2092,11.5076C14.8242,13.2006,14.1872,14.3826,13.3002,15.0516C12.4132,15.7206,11.4542,15.9376,10.4232,15.7036C9.33121,15.4556,8.52521,14.8296,8.00521,13.8276C7.48421,12.8266,7.41921,11.4666,7.81021,9.74864M0.306211,8.02364C-0.371789,11.0046,0.076211,13.6896,1.64921,16.0796C3.22121,18.4696,5.71921,20.0536,9.14221,20.8306C13.0552,21.7206,16.2692,21.2586,18.7852,19.4426C20.8072,17.9796,22.1232,15.9116,22.7302,13.2376C23.4142,10.2306,22.9772,7.54264,21.4202,5.16964C19.8632,2.79664,17.3242,1.20964,13.8032,0.409636C10.6632,-0.304364,7.94221,-0.085364,5.64221,1.06964C2.81221,2.50364,1.03421,4.82164,0.306211,8.02364" transform="matrix(1 0 0 -1 118.287 125.372)" fill="rgb(26,46,53)" fill-opacity="0.899992" stroke="none" stroke-width="1"/><path id="eE3OASj9RwP28" d="M9.742,18.857C10.093,17.311,10.679,16.238,11.499,15.637C12.32,15.037,13.226,14.85,14.22,15.076C15.091,15.274,15.74,15.798,16.165,16.65C16.591,17.502,16.609,18.786,16.218,20.503C15.858,22.086,15.287,23.178,14.505,23.781C13.723,24.384,12.89,24.585,12.007,24.384C11.051,24.167,10.338,23.61,9.87,22.718C9.403,21.824,9.36,20.538,9.742,18.857M6.133,0L0,26.976L7.011,28.571L7.668,25.682C8.361,27.116,9.063,28.139,9.775,28.753C10.736,29.578,11.879,30.141,13.204,30.442C15.817,31.037,18.065,30.496,19.949,28.822C21.833,27.147,23.109,24.837,23.779,21.893C24.518,18.642,24.303,15.984,23.134,13.919C21.965,11.853,20.19,10.549,17.81,10.008C16.658,9.747,15.561,9.704,14.521,9.88C13.481,10.057,12.499,10.446,11.575,11.048L13.696,1.719Z" transform="matrix(1 0 0 -1 142.452 128.566)" fill="rgb(26,46,53)" fill-opacity="0.899992" stroke="none" stroke-width="1"/><path id="eE3OASj9RwP29" d="M1.24846,4.13824L8.52346,6.52824C9.03046,5.71424,9.60346,5.18024,10.2425,4.92424C10.8805,4.67024,11.6605,4.64724,12.5805,4.85624C13.5855,5.08524,14.3165,5.47624,14.7705,6.03124C15.1275,6.44724,15.2515,6.89324,15.1435,7.37124C15.0205,7.91024,14.6445,8.26324,14.0135,8.42824C13.5615,8.54424,12.4285,8.55724,10.6175,8.46824C7.91346,8.32924,6.01246,8.33924,4.91246,8.49424C3.81146,8.65224,2.81046,9.11024,1.90946,9.87124C1.00746,10.6322,0.422464,11.6032,0.154464,12.7792C-0.137536,14.0662,-0.015536,15.2592,0.520464,16.3612C1.05746,17.4622,1.92946,18.3932,3.13846,19.1512C4.34646,19.9092,6.05446,20.5382,8.26246,21.0402C10.5935,21.5712,12.3535,21.7832,13.5455,21.6802C14.7365,21.5762,15.7885,21.2352,16.7005,20.6562C17.6125,20.0762,18.4585,19.2042,19.2395,18.0392L12.2955,15.7252C11.9695,16.3102,11.5585,16.7002,11.0625,16.8962C10.3835,17.1562,9.62746,17.1912,8.79346,17.0002C7.94746,16.8082,7.36546,16.5182,7.04646,16.1302C6.72846,15.7422,6.61846,15.3332,6.71546,14.9052C6.82446,14.4272,7.15146,14.1212,7.69846,13.9892C8.24446,13.8542,9.36146,13.8772,11.0505,14.0552C13.6045,14.3382,15.5465,14.3672,16.8745,14.1412C18.2035,13.9152,19.2955,13.4092,20.1515,12.6242C21.0075,11.8392,21.5615,10.8892,21.8155,9.77424C22.0715,8.64624,21.9805,7.47224,21.5425,6.25124C21.1035,5.03124,20.2235,3.93824,18.9005,2.97324C17.5785,2.01024,15.6535,1.24024,13.1265,0.664243C9.55746,-0.146757,6.89846,-0.214757,5.15246,0.458243C3.40546,1.13224,2.10446,2.35924,1.24846,4.13824" transform="matrix(1 0 0 -1 168.187 114.437)" fill="rgb(26,46,53)" fill-opacity="0.899992" stroke="none" stroke-width="1"/><path id="eE3OASj9RwP30" d="M0.401,6.774L8.062,6.817L8.101,0.044L0.44,0ZM0,27.662L8.209,27.709L8.244,21.405L6.731,8.734L1.654,8.706L0.036,21.359Z" transform="matrix(1 0 0 -1 193.848 113.228)" fill="rgb(26,46,53)" fill-opacity="0.899992" stroke="none" stroke-width="1"/><path id="eE3OASj9RwP31" d="M9.59356,23.833C9.42556,23.678,8.93856,23.048,8.24156,20.612C7.32256,17.399,7.88856,14.469,8.96856,12.366C9.17656,12.8,9.31956,13.3,9.41856,13.769C10.4566,18.679,10.1546,23.122,9.59356,23.833M16.1796,20.683C15.9216,20.197,15.4876,19.198,14.8396,17.153C13.9816,14.445,13.9766,12.27,14.4546,10.605C14.4886,10.689,14.5196,10.773,14.5476,10.856C15.7246,14.295,16.2976,19.031,16.1796,20.683M23.3516,16.47C23.3486,16.47,22.7866,16.466,21.5246,14.123C20.0786,11.438,19.7096,9.229,20.3976,7.366C20.4816,7.139,20.5806,6.916,20.6976,6.696C21.2316,6.925,21.6886,7.297,22.0186,7.801C23.4186,9.941,24.0896,14.339,23.5686,16.058C23.4626,16.409,23.3526,16.47,23.3516,16.47M29.0066,0C28.9466,0,28.8856,0.011,28.8256,0.034C24.3246,1.777,21.6316,3.48,20.2336,5.526C19.2176,5.322,18.0796,5.457,17.0016,5.971C15.9526,6.469,14.9446,7.34,14.2206,8.593C13.5456,8.072,12.7116,7.93,11.7956,8.218C10.7796,8.537,9.72256,9.393,8.84356,10.629C8.28456,10.225,7.71156,10.164,7.29056,10.199C4.31756,10.441,0.289565,16.359,0.000565,22.666C-0.012435,22.941,0.200565,23.176,0.476565,23.187C0.746565,23.211,0.986565,22.987,0.999565,22.711C1.27356,16.726,5.10856,11.38,7.37156,11.196C7.73856,11.16,8.04656,11.275,8.30356,11.476C6.94556,13.858,6.24056,17.257,7.28056,20.888C8.14056,23.893,8.90056,25.067,9.81256,24.85C11.5356,24.421,11.3096,17.878,10.3976,13.562C10.1906,12.583,9.89156,11.881,9.55156,11.379C10.3416,10.214,11.2756,9.43,12.0946,9.172C12.8266,8.942,13.3686,9.137,13.7686,9.518C12.9826,11.453,12.8206,14.092,13.8866,17.456C15.2906,21.885,15.8556,22.005,16.1936,22.076C16.4316,22.127,16.6686,22.048,16.8376,21.856C17.7616,20.813,16.6576,13.935,15.4936,10.532C15.3426,10.09,15.1556,9.703,14.9366,9.375C15.5576,8.158,16.4726,7.329,17.4296,6.874C18.1976,6.509,18.9856,6.376,19.7026,6.443C19.6126,6.633,19.5316,6.824,19.4596,7.02C18.6666,9.167,19.0536,11.645,20.6436,14.598C21.6986,16.556,22.5596,17.469,23.3516,17.47L23.3526,17.47C23.5876,17.47,24.0276,17.383,24.3386,16.808C25.2106,15.198,24.5796,9.889,22.8556,7.254C22.4496,6.633,21.8886,6.162,21.2386,5.855C22.5776,4.094,25.1216,2.541,29.1866,0.966C29.4446,0.866,29.5726,0.577,29.4726,0.319C29.3956,0.121,29.2066,0,29.0066,0" transform="matrix(1 0 0 -1 99.6744 171.581)" fill="rgb(26,46,53)" fill-opacity="0.899992" stroke="none" stroke-width="1"/><path id="eE3OASj9RwP32" d="M7.41052,11.185C7.46652,11.029,7.68852,10.618,8.57652,9.797C10.0625,8.423,11.4145,7.812,12.7075,7.954C12.8135,7.964,12.9205,7.98,13.0275,8.001C12.9565,8.305,12.8115,8.586,12.5935,8.827C11.1855,10.369,8.09352,11.345,7.41052,11.185M3.92052,6.936C4.25652,6.688,4.73852,6.36,5.42652,5.929C6.78352,5.081,7.99352,4.689,9.02652,4.607C7.36952,5.634,5.20252,6.543,3.92052,6.936M4.80852,0C3.28352,0,1.67952,0.348,0.246519,1.189C0.008519,1.33,-0.070481,1.635,0.068519,1.873C0.207519,2.113,0.514519,2.19,0.752519,2.052C4.32052,-0.043,8.93152,1.419,9.88052,2.945C9.99052,3.123,10.0915,3.351,10.0275,3.616C8.61652,3.466,6.88052,3.84,4.89652,5.081C2.35152,6.672,2.15552,7.145,2.17152,7.524C2.18152,7.747,2.30852,7.943,2.51252,8.047C3.50752,8.552,8.01752,6.473,9.89752,5.238C10.1435,5.076,10.3505,4.901,10.5185,4.715C11.3505,4.917,11.9935,5.347,12.4215,5.861C12.7155,6.213,12.9115,6.598,13.0095,6.983C12.9425,6.973,12.8755,6.965,12.8085,6.958C11.2105,6.797,9.60652,7.484,7.89752,9.063C6.72352,10.148,6.26752,10.896,6.41952,11.489C6.46852,11.677,6.62652,12.014,7.13852,12.142C8.52152,12.486,11.9355,11.031,13.3315,9.5C13.6465,9.157,13.8595,8.751,13.9735,8.317C15.2785,8.93,16.6585,10.305,18.2925,12.588C18.4535,12.813,18.7645,12.865,18.9905,12.704C19.2145,12.543,19.2665,12.231,19.1055,12.006C17.2165,9.367,15.6415,7.871,14.0595,7.26C13.9975,6.556,13.7065,5.84,13.1905,5.22C12.6835,4.613,11.9445,4.091,11.0095,3.809C11.1085,3.359,11.0185,2.883,10.7295,2.417C9.88652,1.06,7.46852,0,4.80852,0" transform="matrix(1 0 0 -1 161.889 223.998)" fill="rgb(26,46,53)" fill-opacity="0.899992" stroke="none" stroke-width="1"/><path id="eE3OASj9RwP33" d="M29.933,44.529L55.892,90.096L63.136,50.56ZM108.781,58.852L93.199,56.022L79.053,133.234L48.989,127.773L0,40.774L5.26,12.066L68.097,23.48L72.4,0L102.463,5.461L98.161,28.941L113.743,31.772Z" transform="matrix(1 0 0 -1 71.161 281.477)" fill="rgb(0,124,255)" fill-opacity="0.899992" stroke="none" stroke-width="1"/><path id="eE3OASj9RwP34" d="M108.405,94.4811C107.823,99.8151,106.758,104.554,105.208,108.699C103.658,112.843,101.328,116.907,98.2177,120.888C95.1077,124.87,90.8727,128.325,85.5137,131.254C80.1537,134.182,73.0797,136.221,64.2907,137.367C45.9987,139.75,31.7397,136.502,21.5097,127.627C11.2777,118.75,4.54672,101.746,1.31172,76.6151C-0.004281,66.3941,-0.330281,56.9461,0.334719,48.2701C0.997719,39.5951,2.58972,32.6181,5.11272,27.3371C8.56372,19.9181,13.4477,13.9941,19.7617,9.56607C26.0747,5.13707,34.7237,2.20607,45.7117,0.77407C65.3077,-1.77893,79.8307,1.98307,89.2807,12.0621C98.7287,22.1391,104.998,39.1731,108.086,63.1631C109.464,73.8641,109.569,84.3031,108.405,94.4811" transform="matrix(1 0 0 -1 197.025 237.472)" fill="rgb(0,124,255)" fill-opacity="0.899992" stroke="none" stroke-width="1"/><path id="eE3OASj9RwP35" d="M43.7376,0.040823C41.3326,0.122822,38.7736,0.339822,36.1306,0.684822C26.9756,1.87582,19.8926,4.19282,15.0766,7.57182C10.3256,10.9038,6.73064,15.2878,4.08464,20.9778L4.03564,21.0808C2.11264,25.1038,0.856639,30.8348,0.300639,38.1088C-0.304361,45.9968,0.004639,54.7788,1.21964,64.2118C4.78864,91.9328,12.1606,103.499,17.7166,108.319C24.1946,113.939,32.9366,116.479,44.4456,116.085C46.8036,116.005,49.3006,115.794,51.8676,115.46C59.2536,114.498,65.0976,112.863,69.2376,110.603C73.2466,108.411,76.3796,105.893,78.5476,103.117C80.9516,100.041,82.7526,96.9228,83.9016,93.8488C85.1246,90.5778,85.9876,86.6888,86.4666,82.2908C87.5316,72.9808,87.4316,63.3368,86.1736,53.5688C83.4006,32.0298,78.0446,16.8958,70.2536,8.58782C64.4746,2.42282,55.8016,-0.373178,43.7396,0.039823C43.7386,0.040823,43.7376,0.040823,43.7376,0.040823" transform="matrix(1 0 0 -1 208.028 226.474)" fill="rgb(26,46,53)" fill-opacity="0.899992" stroke="none" stroke-width="1"/><g id="eE3OASj9RwP36_tr" transform="translate(246.2505,140.532) rotate(-180)"><path id="eE3OASj9RwP36" d="M24.706,10.189C16.411,10.473,9.915,17.429,10.199,25.725C10.484,34.03,17.44,40.525,25.736,40.241C34.031,39.957,40.526,33.001,40.242,24.696C39.957,16.4,33.001,9.905,24.706,10.189M50.301,22.46L50.431,26.248L48.105,27.007C48.01,28.301,47.793,29.58,47.485,30.811L49.456,32.264L48.117,35.822L45.679,35.626C45.098,36.776,44.415,37.871,43.65,38.897L44.913,41.005L42.316,43.775L40.137,42.66C39.155,43.494,38.12,44.25,37.012,44.918L37.365,47.337L33.907,48.907L32.322,47.049C31.115,47.441,29.864,47.735,28.571,47.928L27.981,50.3L24.183,50.43L23.433,48.105C22.129,48,20.861,47.793,19.63,47.485L18.166,49.446L14.609,48.117L14.805,45.678C13.654,45.087,12.56,44.405,11.533,43.639L9.435,44.902L6.655,42.316L7.771,40.126C6.937,39.155,6.181,38.11,5.523,37.001L3.104,37.365L1.524,33.907L3.391,32.322C3,31.114,2.696,29.854,2.512,28.57L0.13,27.971L0,24.183L2.336,23.422C2.431,22.119,2.648,20.85,2.956,19.62L0.985,18.166L2.324,14.608L4.762,14.804C5.343,13.654,6.026,12.56,6.791,11.533L5.528,9.425L8.125,6.655L10.305,7.771C11.277,6.937,12.321,6.18,13.429,5.512L13.066,3.093L16.524,1.524L18.119,3.38C19.326,2.989,20.577,2.696,21.871,2.502L22.46,0.129L26.258,0L27.008,2.326C28.312,2.431,29.58,2.637,30.811,2.946L32.265,0.985L35.823,2.314L35.636,4.752C36.787,5.342,37.871,6.026,38.908,6.791L41.006,5.528L43.786,8.115L42.67,10.303C43.504,11.276,44.26,12.321,44.919,13.428L47.338,13.065L48.917,16.524L47.05,18.109C47.442,19.316,47.745,20.566,47.929,21.861Z" transform="scale(-1,1) translate(-25.2155,-25.215)" fill="rgb(0,124,255)" fill-opacity="0.899992" stroke="none" stroke-width="1"/></g><path id="eE3OASj9RwP37" d="M20.971,14.919C19.785,12.759,17.066,11.963,14.907,13.148C12.748,14.335,11.963,17.053,13.149,19.212C14.334,21.371,17.041,22.156,19.201,20.971C21.36,19.785,22.157,17.078,20.971,14.919M33.845,13.928L34.12,16.481L32.585,17.107C32.579,17.984,32.504,18.854,32.358,19.701L33.757,20.59L33.046,23.06L31.384,23.046C31.049,23.854,30.654,24.628,30.188,25.357L31.135,26.718L29.53,28.715L27.999,28.077C27.387,28.684,26.728,29.244,26.008,29.748L26.379,31.375L24.128,32.61L22.952,31.422C22.145,31.766,21.311,32.017,20.475,32.209L20.192,33.845L17.639,34.131L17.013,32.597C16.135,32.591,15.277,32.504,14.418,32.357L13.531,33.77L11.06,33.046L11.073,31.384C10.277,31.049,9.503,30.653,8.762,30.188L7.402,31.148L5.404,29.542L6.043,28.011C5.448,27.398,4.875,26.739,4.371,26.02L2.756,26.38L1.521,24.128L2.698,22.965C2.366,22.145,2.104,21.322,1.911,20.475L0.275,20.203L0,17.65L1.534,17.013C1.528,16.147,1.616,15.277,1.762,14.43L0.351,13.542L1.074,11.071L2.735,11.073C3.071,10.277,3.466,9.503,3.932,8.773L2.973,7.414L4.577,5.404L6.121,6.054C6.732,5.448,7.392,4.887,8.112,4.383L7.74,2.757L9.992,1.521L11.167,2.698C11.975,2.366,12.809,2.114,13.645,1.923L13.928,0.286L16.481,0L17.107,1.535C17.973,1.54,18.842,1.627,19.701,1.773L20.589,0.362L23.048,1.086L23.047,2.747C23.842,3.083,24.616,3.478,25.358,3.943L26.706,2.984L28.715,4.589L28.066,6.121C28.672,6.732,29.232,7.392,29.749,8.111L31.363,7.752L32.599,10.003L31.422,11.167C31.754,11.986,32.004,12.809,32.197,13.645Z" transform="matrix(1 0 0 -1 253.277 226.793)" fill="rgb(0,124,255)" stroke="none" stroke-width="1"/><g id="eE3OASj9RwP38_tr" transform="translate(281.298008,172.151) rotate(1355)"><path id="eE3OASj9RwP38" d="M19.24,12.363C15.304,12.498,12.23,15.801,12.365,19.726C12.499,23.662,15.792,26.737,19.728,26.602C23.664,26.467,26.738,23.175,26.604,19.238C26.469,15.314,23.176,12.228,19.24,12.363M38.971,21.987L35.99,24.046C35.99,24.048,35.989,24.051,35.989,24.052C35.694,25.135,35.287,26.178,34.79,27.158L35.553,30.155L31.23,34.785L28.186,34.228C27.244,34.791,26.232,35.267,25.173,35.635C25.171,35.636,25.168,35.636,25.166,35.637L23.315,38.754L16.984,38.97L14.925,35.99L14.914,35.987C13.832,35.692,12.791,35.286,11.812,34.79L8.816,35.553L4.186,31.229L4.742,28.192C4.741,28.191,4.741,28.19,4.74,28.189C4.166,27.236,3.7,26.224,3.332,25.165L0.217,23.315L0,16.983L2.983,14.924C3.278,13.833,3.672,12.793,4.179,11.804C4.179,11.804,4.179,11.804,4.179,11.803L3.418,8.816L7.741,4.185L10.766,4.739C11.721,4.175,12.734,3.697,13.806,3.329C13.807,3.329,13.808,3.328,13.809,3.328L15.656,0.217L21.987,0L24.044,2.978C25.139,3.273,26.182,3.679,27.172,4.177L27.173,4.177L30.155,3.418L34.785,7.741L34.23,10.779C34.804,11.732,35.269,12.745,35.637,13.804L35.638,13.804L38.754,15.656Z" transform="scale(-1,1) translate(-18.979008,-19.485)" fill="rgb(255,255,255)" stroke="none" stroke-width="1"/></g><path id="eE3OASj9RwP39" d="M4.742,6.905C4.482,8.361,5.453,9.75,6.904,10.009C8.36,10.27,9.749,9.303,10.009,7.847C10.27,6.392,9.303,5.004,7.847,4.743C6.395,4.483,5.002,5.45,4.742,6.905M9.83,0.419L10.351,1.675C10.352,1.676,10.353,1.676,10.354,1.676C10.728,1.87,11.079,2.101,11.399,2.361L12.56,2.316L13.92,4.269L13.475,5.343C13.608,5.733,13.703,6.141,13.755,6.56C13.755,6.56,13.755,6.562,13.755,6.562L14.753,7.488L14.335,9.83L13.078,10.35C13.077,10.352,13.076,10.353,13.076,10.354C12.882,10.728,12.651,11.079,12.392,11.399L12.436,12.559L10.484,13.919L9.412,13.475C9.412,13.475,9.412,13.476,9.411,13.476C9.016,13.612,8.608,13.703,8.19,13.755L7.265,14.753L4.923,14.334L4.402,13.076C4.025,12.883,3.674,12.655,3.351,12.391L3.351,12.391L2.193,12.435L0.834,10.483L1.275,9.417C1.143,9.021,1.048,8.612,0.997,8.189C0.997,8.189,0.997,8.188,0.997,8.188L0,7.264L0.419,4.923L1.675,4.402C1.869,4.023,2.1,3.673,2.361,3.348C2.361,3.347,2.361,3.347,2.361,3.347L2.317,2.193L4.27,0.833L5.341,1.277C5.736,1.14,6.145,1.05,6.563,0.998L6.563,0.998L7.488,0Z" transform="matrix(1 0 0 -1 313.212 119.543)" fill="rgb(0,124,255)" stroke="none" stroke-width="1"/><path id="eE3OASj9RwP40" d="M0.764,0L0,0.645C1.328,2.217,3.211,4.209,6.008,5.674L6.472,4.787C3.49,3.227,1.58,0.965,0.764,0" transform="matrix(1 0 0 -1 294.843 112.489)" fill="rgb(0,124,255)" stroke="none" stroke-width="1"/><path id="eE3OASj9RwP41" d="M0.395,0L0,0.92C3.783,2.54,7.735,3.172,11.739,2.8L11.646,1.804C7.807,2.17,4.022,1.556,0.395,0" transform="matrix(1 0 0 -1 303.196 106.802)" fill="rgb(0,124,255)" stroke="none" stroke-width="1"/><path id="eE3OASj9RwP42" d="M0.826,0L0,0.562C2.054,3.579,6.113,6.206,9.871,6.951L10.065,5.971C6.544,5.271,2.744,2.816,0.826,0" transform="matrix(1 0 0 -1 300.877 113.72)" fill="rgb(0,124,255)" stroke="none" stroke-width="1"/><path id="eE3OASj9RwP43" d="M10.21,27.293C8.392,24.55,7.752,21.262,8.407,18.035C9.062,14.81,10.934,12.031,13.678,10.213C19.345,6.459,27.007,8.012,30.759,13.675C34.513,19.339,32.96,27.005,27.297,30.762C21.635,34.515,13.97,32.959,10.21,27.293M20.468,7.165C17.94,7.165,15.386,7.881,13.126,9.379C10.159,11.345,8.135,14.349,7.427,17.836C6.718,21.324,7.411,24.879,9.377,27.846L9.377,27.846C13.442,33.971,21.729,35.652,27.85,31.596C33.972,27.533,35.651,19.246,31.593,13.122C29.033,9.259,24.79,7.165,20.468,7.165M15.55,3.93C15.598,3.93,15.645,3.923,15.691,3.909C16.762,3.595,17.876,3.387,19.002,3.293C19.123,3.283,19.236,3.23,19.32,3.143L21.356,1.044L27.257,2.241L28.317,4.974C28.361,5.087,28.445,5.181,28.552,5.236C29.555,5.759,30.502,6.381,31.368,7.087C31.459,7.161,31.562,7.212,31.691,7.199L35.162,7.147L38.488,12.166L37.084,15.35C37.037,15.457,37.029,15.578,37.062,15.691C37.378,16.782,37.585,17.897,37.678,19.002C37.688,19.123,37.741,19.235,37.828,19.32L39.927,21.356L38.731,27.258L36.003,28.315C35.887,28.36,35.793,28.446,35.737,28.558C35.217,29.558,34.594,30.501,33.886,31.363C33.811,31.455,33.771,31.57,33.772,31.689L33.826,35.162L28.806,38.489L25.63,37.089C25.523,37.042,25.402,37.034,25.289,37.065C24.205,37.381,23.087,37.588,21.966,37.682C21.846,37.691,21.733,37.745,21.649,37.831L19.616,39.928L13.714,38.731L12.657,36.004C12.613,35.891,12.529,35.797,12.421,35.741C11.425,35.223,10.477,34.599,9.605,33.887C9.513,33.813,9.392,33.76,9.279,33.772L5.81,33.826L2.483,28.806L3.885,25.627C3.945,25.49,3.941,25.334,3.875,25.201C3.593,24.202,3.386,23.087,3.293,21.968C3.283,21.848,3.23,21.735,3.143,21.65L1.044,19.615L2.241,13.714L4.966,12.657C5.088,12.61,5.186,12.518,5.24,12.4C5.758,11.408,6.379,10.467,7.084,9.609C7.159,9.518,7.201,9.4,7.199,9.282L7.146,5.811L12.165,2.482L15.349,3.887C15.413,3.915,15.481,3.93,15.55,3.93M21.187,0C21.053,0,20.923,0.054,20.828,0.152L18.731,2.314C17.664,2.414,16.607,2.61,15.586,2.899L12.318,1.458C12.163,1.387,11.983,1.405,11.84,1.498L6.365,5.128C6.223,5.223,6.139,5.382,6.142,5.553L6.196,9.116C5.531,9.944,4.938,10.843,4.43,11.793L1.625,12.881C1.466,12.942,1.349,13.08,1.315,13.247L0.010001,19.685C-0.023999,19.852,0.030001,20.024,0.152001,20.144L2.313,22.239C2.413,23.302,2.609,24.359,2.897,25.389L1.458,28.652C1.389,28.809,1.404,28.988,1.498,29.131L5.127,34.606C5.221,34.748,5.355,34.836,5.552,34.83L9.113,34.775C9.949,35.443,10.849,36.036,11.792,36.54L12.88,39.347C12.942,39.506,13.081,39.622,13.247,39.656L19.685,40.962C19.852,40.994,20.024,40.941,20.143,40.82L22.237,38.661C23.301,38.562,24.36,38.364,25.39,38.076L28.653,39.515C28.808,39.583,28.988,39.567,29.131,39.474L34.606,35.845C34.748,35.75,34.832,35.591,34.83,35.42L34.775,31.855C35.441,31.025,36.034,30.127,36.54,29.18L39.347,28.091C39.506,28.029,39.622,27.892,39.656,27.725L40.961,21.287C40.995,21.12,40.941,20.947,40.819,20.828L38.657,18.731C38.559,17.681,38.362,16.625,38.072,15.588L39.514,12.319C39.583,12.163,39.567,11.982,39.473,11.841L35.844,6.366C35.75,6.225,35.601,6.153,35.42,6.143L31.857,6.196C31.027,5.534,30.128,4.943,29.182,4.438L28.091,1.625C28.029,1.466,27.891,1.35,27.724,1.315L21.287,0.01C21.253,0.003,21.22,0,21.187,0" transform="matrix(1 0 0 -1 214.156 209.957)" fill="rgb(255,255,255)" stroke="none" stroke-width="1"/><path id="eE3OASj9RwP44" d="M33.489,59.551L72.247,94.879L66.932,55.037ZM112.908,48.833L97.213,50.951L107.593,128.76L77.312,132.846L3.859,65.22L0,36.29L63.291,27.748L60.135,4.086L90.416,0L93.572,23.661L109.267,21.544Z" transform="matrix(1 0 0 -1 312.919 280.483)" fill="rgb(0,124,255)" stroke="none" stroke-width="1"/><path id="eE3OASj9RwP45" d="M0.500339,0C0.470339,0,0.440339,0.003,0.410339,0.008C0.138339,0.058,-0.041661,0.318,0.008339,0.59L23.3343,128.52C23.3833,128.79,23.6463,128.96,23.9163,128.922C24.1873,128.872,24.3673,128.611,24.3173,128.34L0.991339,0.41C0.947339,0.169,0.737339,0,0.500339,0" transform="matrix(1 0 0 -1 393.634 279.741)" fill="rgb(26,46,53)" stroke="none" stroke-width="1"/><path id="eE3OASj9RwP46" d="M1.63852,0.79146C1.62252,0.33946,1.24352,-0.01454,0.79152,0.00046C0.33952,0.01646,-0.01548,0.39546,0.00052,0.84846C0.01552,1.30046,0.39552,1.65446,0.84752,1.63946C1.29952,1.62346,1.65352,1.24346,1.63852,0.79146" transform="matrix(1 0 0 -1 413.192 154.161)" fill="rgb(26,46,53)" stroke="none" stroke-width="1"/><path id="eE3OASj9RwP47" d="M1.63852,0.79146C1.62252,0.33946,1.24352,-0.01454,0.79152,0.00046C0.33952,0.01646,-0.01548,0.39546,0.00052,0.84846C0.01552,1.30046,0.39552,1.65446,0.84752,1.63946C1.29952,1.62346,1.65352,1.24346,1.63852,0.79146" transform="matrix(1 0 0 -1 409.86 171.462)" fill="rgb(26,46,53)" stroke="none" stroke-width="1"/><path id="eE3OASj9RwP48" d="M1.63852,0.79146C1.62352,0.33946,1.24352,-0.01454,0.79152,0.00046C0.33952,0.01646,-0.01548,0.39546,0.00052,0.84846C0.01552,1.30046,0.39552,1.65346,0.84752,1.63946C1.29952,1.62346,1.65452,1.24346,1.63852,0.79146" transform="matrix(1 0 0 -1 406.527 188.763)" fill="rgb(26,46,53)" stroke="none" stroke-width="1"/><path id="eE3OASj9RwP49" d="M1.63852,0.791522C1.62252,0.338522,1.24352,-0.015478,0.791522,0.000522C0.338522,0.016522,-0.015478,0.395522,0.000522,0.847522C0.015522,1.29952,0.395522,1.65352,0.847522,1.63852C1.29952,1.62252,1.65352,1.24352,1.63852,0.791522" transform="matrix(1 0 0 -1 399.974 206.773)" fill="rgb(26,46,53)" stroke="none" stroke-width="1"/><path id="eE3OASj9RwP50" d="M1.63846,0.79152C1.62346,0.33952,1.24346,-0.01548,0.79146,0.00052C0.33946,0.01652,-0.01454,0.39552,0.00046,0.84852C0.01646,1.30052,0.39546,1.65452,0.84746,1.63952C1.29946,1.62352,1.65446,1.24352,1.63846,0.79152" transform="matrix(1 0 0 -1 399.863 223.365)" fill="rgb(26,46,53)" stroke="none" stroke-width="1"/><path id="eE3OASj9RwP51" d="M1.63852,0.79152C1.62252,0.33952,1.24352,-0.01548,0.79152,0.00052C0.33952,0.01652,-0.01548,0.39552,0.00052,0.84852C0.01552,1.30052,0.39552,1.65452,0.84752,1.63952C1.29952,1.62352,1.65352,1.24352,1.63852,0.79152" transform="matrix(1 0 0 -1 396.53 240.666)" fill="rgb(26,46,53)" stroke="none" stroke-width="1"/><path id="eE3OASj9RwP52" d="M1.63846,0.79152C1.62246,0.33952,1.24346,-0.01548,0.79146,0.00052C0.33946,0.01652,-0.01454,0.39552,0.00046,0.84852C0.01646,1.30052,0.39546,1.65452,0.84746,1.63952C1.29946,1.62352,1.65346,1.24352,1.63846,0.79152" transform="matrix(1 0 0 -1 393.198 257.967)" fill="rgb(26,46,53)" stroke="none" stroke-width="1"/><path id="eE3OASj9RwP53" d="M1.63846,0.79152C1.62346,0.33952,1.24346,-0.01548,0.79146,0.00052C0.33946,0.01652,-0.01454,0.39552,0.00046,0.84852C0.01646,1.30052,0.39546,1.65352,0.84746,1.63952C1.29946,1.62352,1.65346,1.24352,1.63846,0.79152" transform="matrix(1 0 0 -1 389.866 275.268)" fill="rgb(26,46,53)" stroke="none" stroke-width="1"/><path id="eE3OASj9RwP54" d="M0.499295,0C0.269295,0,0.061295,0.16,0.011295,0.396C-0.046705,0.665,0.124295,0.931,0.395295,0.989L2.87829,1.522C3.15229,1.576,3.41429,1.409,3.47229,1.138C3.53029,0.868,3.35829,0.603,3.08829,0.544L0.604295,0.011C0.569295,0.004,0.534295,0,0.499295,0" transform="matrix(1 0 0 -1 400.295 206.454)" fill="rgb(26,46,53)" stroke="none" stroke-width="1"/><path id="eE3OASj9RwP55" d="M3.79,20.785C3.79,20.785,1.552,14.956,0.799,11.425C0.046,7.892,0,0,0,0" transform="matrix(1 0 0 -1 405.295 218.026)" fill="rgb(26,46,53)" stroke="none" stroke-width="1"/><path id="eE3OASj9RwP56" d="M0.500003,0L0.497003,0C0.221003,0.002,-0.000997,0.227,0.000003,0.503C0.002003,0.827,0.054003,8.487,0.810003,12.029C1.563,15.559,3.731,21.225,3.823,21.465C3.922,21.722,4.21,21.85,4.469,21.752C4.727,21.653,4.856,21.363,4.757,21.106C4.734,21.048,2.524,15.272,1.788,11.82C1.054,8.378,1,0.575,1,0.497C0.999003,0.222,0.775003,0,0.500003,0" transform="matrix(1 0 0 -1 404.795 218.526)" fill="rgb(26,46,53)" stroke="none" stroke-width="1"/><path id="eE3OASj9RwP57" d="M0,0.82C1.389,23.222,-1.166,63.946,40.945,58.555C86.08,52.778,73.167,0,73.167,0Z" transform="matrix(1 0 0 -1 222.452 305.661)" fill="rgb(26,46,53)" stroke="none" stroke-width="1"/><path id="eE3OASj9RwP58" d="M36.751,18.375C36.751,8.227,28.524,0,18.376,0C8.227,0,0,8.227,0,18.375C0,28.523,8.227,36.75,18.376,36.75C28.524,36.75,36.751,28.523,36.751,18.375" transform="matrix(1 0 0 -1 233.138 291.375)" fill="rgb(255,255,255)" stroke="none" stroke-width="1"/><g id="eE3OASj9RwP59_ts" transform="translate(251.628094,252.519215) rotate(-180) scale(-1.45183,1.188904)"><path id="eE3OASj9RwP59" d="M18.927,14.603C10.223,16.089,0.917,9.673,0,3.173L34.507,0C33.291,7.41,25.833,13.423,18.927,14.603" transform="translate(-16.628087,-14.818167)" fill="rgb(26,46,53)" stroke="none" stroke-width="1"/></g><path id="eE3OASj9RwP60" d="M10.8208,8.4255C10.5738,3.6215,7.95578,-0.148503,4.97278,0.004497C1.98978,0.157497,-0.228218,4.1765,0.018782,8.9805C0.264782,13.7835,2.88278,17.5545,5.86578,17.4015C8.84878,17.2485,11.0678,13.2305,10.8208,8.4255" transform="matrix(1 0 0 -1 254.755 280.968)" fill="rgb(26,46,53)" stroke="none" stroke-width="1"/><path id="eE3OASj9RwP61" d="M19.375,36.75C9.794,36.75,2,28.956,2,19.375C2,9.794,9.794,2,19.375,2C28.956,2,36.75,9.794,36.75,19.375C36.75,28.956,28.956,36.75,19.375,36.75M19.375,0C8.691,0,0,8.691,0,19.375C0,30.059,8.691,38.75,19.375,38.75C30.059,38.75,38.75,30.059,38.75,19.375C38.75,8.691,30.059,0,19.375,0" transform="matrix(1 0 0 -1 232.139 292.375)" fill="rgb(0,124,255)" stroke="none" stroke-width="1"/><path id="eE3OASj9RwP62" d="M0.591155,0C0.552155,0,0.513155,0.005,0.473155,0.014C0.205155,0.078,0.040155,0.349,0.104155,0.617C0.137155,0.752,3.32316,14.312,0.014155,28.021C-0.050845,28.289,0.114155,28.559,0.383155,28.624C0.648155,28.685,0.921155,28.524,0.986155,28.255C4.35416,14.305,1.11016,0.521,1.07616,0.383C1.02116,0.153,0.817155,0,0.591155,0" transform="matrix(1 0 0 -1 289.894 304.277)" fill="rgb(255,255,255)" stroke="none" stroke-width="1"/><path id="eE3OASj9RwP63" d="M5.30992,0C5.11992,0,4.93892,0.108,4.85492,0.292C3.56892,3.098,1.97392,5.674,0.112925,7.949C-0.062075,8.163,-0.030075,8.478,0.183925,8.652C0.396925,8.828,0.711925,8.797,0.887925,8.582C2.80192,6.241,4.44292,3.592,5.76392,0.708C5.87892,0.457,5.76892,0.16,5.51792,0.046C5.44992,0.015,5.37892,0,5.30992,0" transform="matrix(1 0 0 -1 282.388 268.759)" fill="rgb(255,255,255)" stroke="none" stroke-width="1"/><path id="eE3OASj9RwP64" d="M5.23493,0C5.10993,0,4.98693,0.001,4.86293,0.005C2.10293,0.081,-0.074069,2.38,0.001931,5.141C0.076931,7.9,2.35093,10.035,5.13693,10.001C5.16893,10,5.20093,10,5.23293,10C8.12193,10,15.0719,13.51,29.6109,36.43C30.3929,37.66,31.6719,38.489,33.1149,38.699C34.5599,38.904,36.0199,38.477,37.1199,37.52C55.0609,21.877,74.0729,12.14,74.2629,12.043C76.7249,10.793,77.7069,7.783,76.4579,5.322C75.2079,2.86,72.1989,1.875,69.7379,3.126C68.9829,3.509,52.3649,12.006,34.9399,26.272C22.7549,7.953,13.7119,0,5.23493,0" transform="matrix(1 0 0 -1 123.5 409.918)" fill="rgb(26,46,53)" stroke="none" stroke-width="1"/><path id="eE3OASj9RwP65" d="M9.69744,0C9.55544,0,9.41344,0.01,9.26944,0.03C7.62944,0.265,6.48944,1.784,6.72344,3.425C7.43444,8.401,6.55344,27.051,0.249437,41.551C-0.325563,42.872,0.120437,44.415,1.31044,45.227C15.0094,54.562,44.1874,55.678,45.4234,55.721C47.0704,55.757,48.4674,54.482,48.5254,52.827C48.5824,51.172,47.2874,49.782,45.6324,49.725C45.3614,49.715,19.8514,48.736,6.74344,41.522C12.3274,27.084,13.5934,9.086,12.6634,2.575C12.4494,1.079,11.1664,0,9.69744,0" transform="matrix(1 0 0 -1 149.973 371.5)" fill="rgb(26,46,53)" stroke="none" stroke-width="1"/><path id="eE3OASj9RwP66" d="M23.3713,15.1098C21.3753,19.8158,12.3833,19.2818,7.10327,15.2488C4.28127,13.0928,0.462268,6.60781,0.060268,4.25681C-0.340732,1.90681,1.28827,-0.223187,4.08427,0.018813C7.53127,0.317813,12.2653,5.32781,12.2653,5.32781C9.11627,2.23981,13.1793,0.060813,19.2423,4.52681C22.6053,7.00381,25.6053,9.83981,23.3713,15.1098" transform="matrix(1 0 0 -1 141.339 382.726)" fill="rgb(0,124,255)" stroke="none" stroke-width="1"/><path id="eE3OASj9RwP67" d="M10.5208,21.521C10.9718,21.353,11.4818,21.254,11.9578,21.198C16.9408,20.608,21.3398,21.305,21.9978,21.926C21.8278,22.081,21.1568,22.508,18.6688,22.984C15.3868,23.609,12.5188,22.786,10.5208,21.521M9.25985,15.899C9.34585,15.874,9.43285,15.85,9.51785,15.829C13.0488,14.964,17.8158,14.817,19.4508,15.085C18.9448,15.299,17.9108,15.641,15.8158,16.103C13.0418,16.714,10.8738,16.524,9.25985,15.899M5.92585,9.331C6.20185,8.819,6.61285,8.397,7.14485,8.114C9.40185,6.913,13.8408,6.638,15.5068,7.31C15.8468,7.448,15.8978,7.562,15.8978,7.563C15.8978,7.566,15.8428,8.125,13.3968,9.172C10.5938,10.372,8.35885,10.54,6.56585,9.69C6.34685,9.585,6.13385,9.466,5.92585,9.331M0.499845,0C0.454845,0,0.407845,0.005,0.361845,0.019C0.096845,0.095,-0.057155,0.373,0.019845,0.637C1.35185,5.277,2.80685,8.112,4.71885,9.688C4.42585,10.684,4.45885,11.828,4.87185,12.947C5.27385,14.036,6.05085,15.118,7.23385,15.952C6.65485,16.578,6.43885,17.397,6.64385,18.333C6.86985,19.375,7.62785,20.503,8.77985,21.49C8.32685,22.01,8.21585,22.578,8.21285,22.998C8.18785,25.98,13.7198,30.523,19.9748,31.376C20.2498,31.427,20.5008,31.223,20.5378,30.949C20.5748,30.675,20.3838,30.423,20.1098,30.386C14.1718,29.576,9.19285,25.277,9.21285,23.006C9.21585,22.638,9.35185,22.342,9.57485,22.103C11.8258,23.67,15.1488,24.678,18.8568,23.966C21.9258,23.379,23.1738,22.731,23.0298,21.799C22.7578,20.046,16.2208,19.684,11.8398,20.206C10.8468,20.324,10.1198,20.558,9.58985,20.851C8.49985,19.96,7.80285,18.96,7.62085,18.121C7.45785,17.372,7.69885,16.849,8.11585,16.485C9.97185,17.442,12.5848,17.842,16.0318,17.08C20.5678,16.079,20.7378,15.526,20.8398,15.197C20.9118,14.961,20.8538,14.72,20.6788,14.535C19.7228,13.522,12.7718,14.002,9.28085,14.858C8.82585,14.969,8.42385,15.121,8.07785,15.309C6.92085,14.581,6.17685,13.596,5.81085,12.601C5.51585,11.803,5.44885,11.008,5.58485,10.298C5.76485,10.406,5.94885,10.503,6.13685,10.593C8.20585,11.575,10.7078,11.411,13.7908,10.092C15.8348,9.216,16.8218,8.442,16.8938,7.653C16.9148,7.419,16.8688,6.973,16.3228,6.611C14.7978,5.598,9.45285,5.751,6.67485,7.231C6.01985,7.581,5.49985,8.096,5.13685,8.717C3.50185,7.224,2.18385,4.551,0.979845,0.362C0.916845,0.142,0.717845,0,0.499845,0" transform="matrix(0.92003 0 0 -0.754431 336.206 306.161)" fill="rgb(26,46,53)" stroke="none" stroke-width="1"/><path id="eE3OASj9RwP68" d="M56.0495,7.41813C56.7075,7.62913,56.4875,8.26513,55.7525,8.26513L42.2135,8.26513C16.4325,10.9951,-1.58054,7.33613,9.76946,6.47413C21.1195,5.61013,8.96946,5.79213,0.681459,2.65613C-7.60754,-0.478869,62.3355,-1.26987,68.6965,2.65613C74.5635,6.27613,46.9145,4.49013,56.0495,7.41813" transform="matrix(1 0 0 -1 150.479 415.666)" fill="rgb(26,46,53)" stroke="none" stroke-width="1"/><path id="eE3OASj9RwP69" d="M122.691,0L4.889,3.905L0,118.127L139.111,115.016Z" transform="matrix(1 0 0 -1 180.778 412.238)" fill="rgb(0,124,255)" stroke="none" stroke-width="1"/><path id="eE3OASj9RwP70" d="M9.94276,0C9.68476,0,9.46576,0.197,9.44476,0.459L0.001761,115.18C-0.021239,115.455,0.183761,115.696,0.458761,115.719C0.741761,115.734,0.975761,115.537,0.998761,115.262L10.4418,0.541C10.4638,0.266,10.2598,0.024,9.98476,0.002C9.96976,0.001,9.95676,0,9.94276,0" transform="matrix(1 0 0 -1 212.509 410.053)" fill="rgb(26,46,53)" stroke="none" stroke-width="1"/><path id="eE3OASj9RwP71" d="M0,0L31.663,4.82L41.635,111.03L16.42,115.016Z" transform="matrix(1 0 0 -1 303.469 412.238)" fill="rgb(0,124,255)" stroke="none" stroke-width="1"/><path id="eE3OASj9RwP72" d="M0,0L31.663,4.82L41.635,111.03L16.42,115.016Z" transform="matrix(1 0 0 -1 303.469 412.238)" fill="rgb(0,0,0)" stroke="none" stroke-width="1"/><path id="eE3OASj9RwP73" d="M2.91646,14.2438L0.011456,82.1048C-0.291544,89.1878,5.45546,95.0538,12.5435,94.8948L100.602,92.9268C107.956,92.7618,113.513,86.2078,112.473,78.9268L102.71,10.5348C101.825,4.33681,96.4155,-0.200193,90.1585,0.006807L14.7675,2.50581C8.35646,2.71881,3.19046,7.83381,2.91646,14.2438" transform="matrix(1 0 0 -1 192.819 400.559)" fill="rgb(26,46,53)" stroke="none" stroke-width="1"/><path id="eE3OASj9RwP74" d="M0.524,16.894L14.148,16.46L14.036,12.948L5.507,13.219L5.424,10.605L13.336,10.353L13.229,6.998L5.317,7.248L5.214,4.005L13.99,3.726L13.871,0L0,0.442Z" transform="matrix(1 0 0 -1 204.723 343.382)" fill="rgb(255,255,255)" stroke="none" stroke-width="1"/><path id="eE3OASj9RwP75" d="M5.418,10.139L7.561,10.071C7.793,10.064,8.244,10.124,8.915,10.252C9.254,10.309,9.534,10.472,9.757,10.743C9.979,11.012,10.095,11.327,10.107,11.686C10.124,12.217,9.968,12.63,9.641,12.925C9.313,13.22,8.685,13.383,7.757,13.412L5.524,13.484ZM0,0.516L0.524,16.968L8.997,16.699C10.568,16.648,11.764,16.475,12.586,16.179C13.408,15.884,14.062,15.363,14.547,14.618C15.033,13.871,15.259,12.975,15.226,11.928C15.197,11.015,14.977,10.234,14.567,9.584C14.156,8.934,13.604,8.414,12.91,8.025C12.467,7.777,11.865,7.578,11.104,7.43C11.703,7.208,12.137,6.993,12.408,6.783C12.59,6.641,12.852,6.344,13.193,5.891C13.534,5.438,13.761,5.09,13.873,4.846L16.183,0L10.439,0.184L7.881,5.298C7.558,5.959,7.265,6.392,7.001,6.595C6.643,6.861,6.232,7.001,5.768,7.016L5.319,7.031L5.107,0.353Z" transform="matrix(1 0 0 -1 221.4 343.987)" fill="rgb(255,255,255)" stroke="none" stroke-width="1"/><path id="eE3OASj9RwP76" d="M5.417,10.139L7.561,10.071C7.792,10.063,8.244,10.123,8.914,10.252C9.253,10.308,9.534,10.472,9.756,10.742C9.978,11.012,10.094,11.326,10.106,11.686C10.123,12.217,9.968,12.63,9.64,12.925C9.312,13.22,8.684,13.382,7.757,13.411L5.523,13.483ZM0,0.515L0.523,16.967L8.996,16.698C10.567,16.648,11.764,16.475,12.585,16.179C13.407,15.883,14.061,15.363,14.547,14.618C15.032,13.871,15.258,12.975,15.225,11.927C15.196,11.014,14.976,10.234,14.566,9.583C14.156,8.934,13.603,8.414,12.909,8.024C12.467,7.776,11.864,7.578,11.103,7.43C11.702,7.208,12.136,6.993,12.407,6.782C12.59,6.641,12.851,6.344,13.193,5.891C13.533,5.438,13.76,5.089,13.872,4.846L16.182,0L10.438,0.183L7.881,5.297C7.557,5.958,7.264,6.391,7.001,6.594C6.642,6.861,6.231,7.001,5.767,7.016L5.318,7.031L5.106,0.353Z" transform="matrix(1 0 0 -1 239.278 344.555)" fill="rgb(255,255,255)" stroke="none" stroke-width="1"/><path id="eE3OASj9RwP77" d="M5.09019,8.59519C5.03719,6.93419,5.30819,5.73119,5.90219,4.98619C6.49619,4.24119,7.32419,3.85119,8.38719,3.81719C9.47919,3.78219,10.3362,4.11119,10.9572,4.80219C11.5782,5.49319,11.9182,6.76019,11.9762,8.60119C12.0262,10.1492,11.7492,11.2902,11.1482,12.0252C10.5462,12.7592,9.71019,13.1442,8.64019,13.1782C7.61419,13.2102,6.78019,12.8732,6.13619,12.1672C5.49219,11.4612,5.14319,10.2712,5.09019,8.59519M0.007193,8.77919C0.093193,11.4652,0.907193,13.5322,2.45119,14.9812C3.99519,16.4292,6.10319,17.1122,8.77419,17.0272C11.5122,16.9402,13.5982,16.1372,15.0332,14.6202C16.4672,13.1032,17.1422,11.0202,17.0582,8.37119C16.9972,6.44919,16.6232,4.88219,15.9372,3.67219C15.2502,2.46219,14.2852,1.53419,13.0402,0.888187C11.7952,0.242187,10.2602,-0.050813,8.43419,0.007187C6.57919,0.066187,5.05319,0.410187,3.85619,1.04019C2.65819,1.67019,1.70319,2.63619,0.988193,3.94019C0.273193,5.24319,-0.053807,6.85719,0.007193,8.77919" transform="matrix(1 0 0 -1 256.309 345.138)" fill="rgb(255,255,255)" stroke="none" stroke-width="1"/><path id="eE3OASj9RwP78" d="M5.418,10.139L7.561,10.071C7.793,10.064,8.244,10.124,8.915,10.252C9.254,10.309,9.534,10.472,9.757,10.743C9.979,11.012,10.095,11.327,10.106,11.686C10.124,12.217,9.968,12.63,9.64,12.925C9.313,13.22,8.685,13.383,7.757,13.412L5.524,13.484ZM0,0.516L0.524,16.968L8.997,16.699C10.568,16.648,11.764,16.476,12.586,16.179C13.408,15.884,14.062,15.363,14.547,14.618C15.033,13.871,15.259,12.975,15.226,11.928C15.197,11.015,14.977,10.234,14.567,9.584C14.156,8.934,13.604,8.414,12.91,8.025C12.467,7.777,11.865,7.578,11.104,7.431C11.703,7.209,12.137,6.993,12.408,6.783C12.59,6.641,12.852,6.344,13.193,5.891C13.534,5.438,13.761,5.09,13.873,4.846L16.183,0L10.439,0.184L7.881,5.298C7.558,5.959,7.264,6.392,7.001,6.595C6.643,6.861,6.231,7.001,5.768,7.016L5.319,7.031L5.106,0.353Z" transform="matrix(1 0 0 -1 275.907 345.721)" fill="rgb(255,255,255)" stroke="none" stroke-width="1"/><path id="eE3OASj9RwP79" d="M79.9204,0C79.5644,0,79.2104,0.144,78.9504,0.427L70.3904,9.796L61.1534,1.356C60.6184,0.866,59.7884,0.905,59.2984,1.439L50.7384,10.809L41.5014,2.369C40.9664,1.88,40.1354,1.918,39.6474,2.452L31.0864,11.821L21.8494,3.381C21.5934,3.146,21.2474,3.022,20.9054,3.038C20.5574,3.054,20.2304,3.207,19.9954,3.464L11.4344,12.833L2.19736,4.394C1.66336,3.904,0.832362,3.943,0.343362,4.477C-0.145638,5.012,-0.107638,5.843,0.427362,6.331L10.6324,15.656C11.1674,16.147,11.9984,16.108,12.4874,15.573L21.0474,6.204L30.2844,14.645C30.5414,14.88,30.8854,15.001,31.2294,14.987C31.5764,14.972,31.9044,14.818,32.1394,14.562L40.6994,5.192L49.9364,13.632C50.4704,14.122,51.3014,14.084,51.7914,13.549L60.3514,4.18L69.5884,12.619C70.1234,13.11,70.9534,13.072,71.4424,12.536L80.8894,2.198C81.3784,1.663,81.3404,0.832,80.8054,0.344C80.5534,0.113,80.2364,0,79.9204,0" transform="matrix(1 0 0 -1 204.079 373.158)" fill="rgb(255,255,255)" stroke="none" stroke-width="1"/><path id="eE3OASj9RwP80" d="M11.841,0L5.583,2.985L0,30.152L3.03,33.489Z" transform="matrix(1 0 0 -1 113.909 414.667)" fill="rgb(0,124,255)" stroke="none" stroke-width="1"/><path id="eE3OASj9RwP81" d="M8.811,0L17.116,4.852L9.996,27.235L0,33.489Z" transform="matrix(1 0 0 -1 116.939 414.667)" fill="rgb(0,124,255)" stroke="none" stroke-width="1"/><path id="eE3OASj9RwP82" d="M8.811,0L17.116,4.852L9.996,27.235L0,33.489Z" transform="matrix(1 0 0 -1 116.939 414.667)" fill="rgb(0,0,0)" stroke="none" stroke-width="1"/><path id="eE3OASj9RwP83" d="M5.55393,0C5.31793,0,5.08693,0.004,4.86293,0.01C2.10193,0.086,-0.074068,2.385,0.001932,5.146C0.076932,7.904,2.35793,10.074,5.13693,10.006C12.8399,9.754,29.1429,14.486,38.4559,23.526C39.0319,24.085,39.7329,24.497,40.5019,24.728C56.2899,29.466,62.1659,19.894,62.4079,19.483L53.8009,14.394C53.8009,14.394,53.8339,14.324,53.9159,14.211C53.8209,14.343,51.5849,17.25,44.4649,15.451C32.7779,4.783,14.8379,0,5.55393,0" transform="matrix(1 0 0 -1 256.395 419.606)" fill="rgb(26,46,53)" stroke="none" stroke-width="1"/><path id="eE3OASj9RwP84" d="M19.65,0L1.437,1.147L0,34.724L24.477,33.809Z" transform="matrix(1 0 0 -1 241.745 426.252)" fill="rgb(0,124,255)" stroke="none" stroke-width="1"/><path id="eE3OASj9RwP85" d="M0,0L4.257,4.236L6.896,25.173L4.827,33.809Z" transform="matrix(1 0 0 -1 261.395 426.252)" fill="rgb(0,124,255)" stroke="none" stroke-width="1"/><path id="eE3OASj9RwP86" d="M0,0L4.257,4.236L6.896,25.173L4.827,33.809Z" transform="matrix(1 0 0 -1 261.395 426.252)" fill="rgb(0,0,0)" stroke="none" stroke-width="1"/><path id="eE3OASj9RwP87" d="M37.0767,0C36.4447,0,35.8067,0.199,35.2637,0.611C24.8687,8.512,10.8187,22.537,5.4267,36.068C5.3477,36.266,5.2907,36.472,5.2557,36.682C2.6267,52.314,0.114698,85.223,0.008698,86.616C-0.116302,88.268,1.1207,89.709,2.7727,89.834C4.4207,89.955,5.8667,88.722,5.9917,87.069C6.0167,86.733,8.5537,53.503,11.1187,37.996C16.4967,24.84,31.0767,11.33,38.8947,5.389C40.2137,4.386,40.4707,2.504,39.4677,1.185C38.8777,0.408,37.9827,0,37.0767,0" transform="matrix(1 0 0 -1 329.833 413.537)" fill="rgb(26,46,53)" stroke="none" stroke-width="1"/><path id="eE3OASj9RwP88" d="M9.0562,0C6.7372,0,4.1072,1.052,1.2422,3.125C-0.100799,4.097,-0.401799,5.972,0.570201,7.314C1.5422,8.656,3.4172,8.957,4.7592,7.986C7.2362,6.193,8.5892,6,9.0562,6C10.7132,6,12.0562,4.657,12.0562,3C12.0562,1.343,10.7132,0,9.0562,0" transform="matrix(1 0 0 -1 371.722 415.053)" fill="rgb(26,46,53)" stroke="none" stroke-width="1"/><path id="eE3OASj9RwP89" d="M0.14123,8.47294C3.35123,18.0089,16.5112,16.1239,21.0432,14.7079C25.5742,13.2919,29.6582,11.5109,32.1122,9.90594C34.5672,8.30094,34.6062,5.61994,31.3332,4.08894C27.2972,2.20194,17.1722,3.87694,17.1722,3.87694C22.4132,1.58194,17.1622,-2.09506,7.96723,1.51694C4.97423,2.69294,-0.99177,4.97994,0.14123,8.47294" transform="matrix(1 0 0 -1 373.663 420.316)" fill="rgb(0,124,255)" stroke="none" stroke-width="1"/><path id="eE3OASj9RwP90" d="M18.4371,13.3462C17.2461,5.24419,10.5371,-0.729813,5.08009,0.072187C-0.377908,0.874187,-0.604908,8.11019,0.586092,16.2112C1.77709,24.3142,3.93509,30.2132,9.39309,29.4102C14.8501,28.6092,19.6281,21.4482,18.4371,13.3462" transform="matrix(1 0 0 -1 323.425 344.382)" fill="rgb(26,46,53)" stroke="none" stroke-width="1"/><path id="eE3OASj9RwP91" d="M1.639,0.819C1.639,0.367,1.272,0,0.82,0C0.367,0,0,0.367,0,0.819C0,1.271,0.367,1.638,0.82,1.638C1.272,1.638,1.639,1.271,1.639,0.819" transform="matrix(1 0 0 -1 209.055 298.694)" fill="rgb(26,46,53)" stroke="none" stroke-width="1"/><path id="eE3OASj9RwP92" d="M1.639,0.82C1.639,0.367,1.272,0,0.82,0C0.367,0,0,0.367,0,0.82C0,1.272,0.367,1.639,0.82,1.639C1.272,1.639,1.639,1.272,1.639,0.82" transform="matrix(1 0 0 -1 216.569 304.597)" fill="rgb(26,46,53)" stroke="none" stroke-width="1"/><path id="eE3OASj9RwP93" d="M1.639,0.819C1.639,0.366,1.272,0,0.82,0C0.367,0,0,0.366,0,0.819C0,1.271,0.367,1.638,0.82,1.638C1.272,1.638,1.639,1.271,1.639,0.819" transform="matrix(1 0 0 -1 217.486 401.502)" fill="rgb(26,46,53)" stroke="none" stroke-width="1"/><path id="eE3OASj9RwP94" d="M1.639,0.819C1.639,0.367,1.272,0,0.819,0C0.367,0,0,0.367,0,0.819C0,1.272,0.367,1.639,0.819,1.639C1.272,1.639,1.639,1.272,1.639,0.819" transform="matrix(1 0 0 -1 225 407.405)" fill="rgb(26,46,53)" stroke="none" stroke-width="1"/><path id="eE3OASj9RwP95" d="M18.42,10.018L18.418,10.018C18.416,10.017,18.043,9.828,17.898,8.158C17.752,6.475,18.057,5.334,18.832,4.673C19.007,4.523,19.208,4.397,19.431,4.294C19.713,4.607,19.907,4.957,19.974,5.323C20.242,6.772,19.552,8.894,18.778,9.752C18.577,9.976,18.448,10.018,18.42,10.018M12.129,9.15C12.123,8.774,12.157,8.142,12.306,7.091C12.509,5.664,13.036,4.567,13.825,3.869C13.591,5.876,12.7,8.202,12.129,9.15M6.55802,8.278C6.50002,8.124,6.39502,7.619,6.64202,6.234C6.97102,4.394,8.16202,3.171,9.48202,2.526C9.47502,2.739,9.43602,2.975,9.36502,3.234C8.58002,6.092,7.08702,8.062,6.55802,8.278M7.42202,0C5.04302,0,1.82502,1.443,0.089018,3.95C-0.067982,4.176,-0.011982,4.488,0.215018,4.645C0.442018,4.803,0.753018,4.746,0.911018,4.518C2.77702,1.824,6.89002,0.387,8.71602,1.238C8.90802,1.328,9.06402,1.441,9.18402,1.577C7.55202,2.331,6.06002,3.807,5.65802,6.058C5.43102,7.326,5.25102,9.039,6.29702,9.275C7.73102,9.597,9.60702,6.128,10.329,3.499C10.463,3.013,10.505,2.563,10.46,2.157C11.092,1.984,11.713,1.939,12.246,2.016C12.679,2.079,13.295,2.257,13.621,2.761C12.406,3.582,11.588,5.03,11.316,6.951C10.928,9.685,11.219,10.162,11.522,10.395C11.719,10.546,11.969,10.575,12.21,10.473C13.279,10.018,14.575,6.139,14.823,3.944C14.85,3.702,14.85,3.47,14.825,3.25C15.234,3.087,15.686,2.998,16.174,2.989C17.041,2.939,17.898,3.214,18.584,3.618C18.442,3.706,18.308,3.805,18.182,3.913C17.144,4.799,16.726,6.216,16.901,8.244C17.037,9.811,17.394,10.667,18.024,10.937C18.245,11.035,18.695,11.126,19.232,10.698C20.312,9.834,21.32,7.1,20.958,5.141C20.882,4.736,20.708,4.347,20.455,3.99C22.29,3.673,24.872,4.189,27.099,4.739C27.366,4.804,27.638,4.642,27.704,4.373C27.771,4.105,27.607,3.834,27.339,3.768C24.629,3.098,21.712,2.553,19.651,3.151C18.735,2.422,17.446,1.98,16.153,1.989C15.564,2,15.015,2.106,14.514,2.296C14.12,1.625,13.387,1.171,12.39,1.026C11.726,0.927,10.944,0.991,10.152,1.217C9.92702,0.842,9.58702,0.541,9.13902,0.331C8.66102,0.109,8.07302,0.001,7.42202,0" transform="matrix(1 0 0 -1 75.0878 416.419)" fill="rgb(26,46,53)" stroke="none" stroke-width="1"/><path id="eE3OASj9RwP96" d="M2.901,0L5.611,4.7L2.901,9.399L0,9.399L1.639,4.699L0,0Z" transform="matrix(1 0 0 -1 225.972 423.978)" fill="rgb(26,46,53)" stroke="none" stroke-width="1"/><path id="eE3OASj9RwP97" d="M5.83,1.048C4.48,1.048,3.38,2.148,3.38,3.498C3.38,4.848,4.48,5.938,5.83,5.938L1.223,6.86L0,3.139L2.056,0Z" transform="matrix(1 0 0 -1 220.333 422.776)" fill="rgb(26,46,53)" stroke="none" stroke-width="1"/><path id="eE3OASj9RwP98" d="M5.43,2.25C4.08,2.25,2.98,3.35,2.98,4.7C2.98,6.05,4.08,7.14,5.43,7.14C6.78,7.14,7.87,6.05,7.87,4.7C7.87,3.35,6.78,2.25,5.43,2.25M8.14,9.399L2.71,9.399L0,4.7L2.71,0L8.14,0L10.85,4.7Z" transform="matrix(1 0 0 -1 218.417 423.978)" fill="rgb(0,124,255)" stroke="none" stroke-width="1"/><path id="eE3OASj9RwP99" d="M2.013,0L0,3.49L2.013,6.98L4.168,6.98L2.95,3.49L4.168,0Z" transform="matrix(1 0 0 -1 415.876 414.265)" fill="rgb(0,124,255)" stroke="none" stroke-width="1"/><path id="eE3OASj9RwP100" d="M0,0.778C1.003,0.778,1.82,1.594,1.82,2.597C1.82,3.599,1.003,4.41,0,4.41L3.422,5.094L4.33,2.331L2.803,0Z" transform="matrix(1 0 0 -1 419.902 413.372)" fill="rgb(0,124,255)" stroke="none" stroke-width="1"/><path id="eE3OASj9RwP101" d="M4.025,1.671C5.027,1.671,5.845,2.487,5.845,3.49C5.845,4.492,5.027,5.303,4.025,5.303C3.023,5.303,2.213,4.492,2.213,3.49C2.213,2.487,3.023,1.671,4.025,1.671M2.012,6.981L6.045,6.981L8.058,3.49L6.045,0L2.012,0L0,3.49Z" transform="matrix(1 0 0 -1 417.598 414.265)" fill="rgb(26,46,53)" stroke="none" stroke-width="1"/><path id="eE3OASj9RwP102" d="M2.139,0L6.657,0C7.834,0,8.796,0.963,8.796,2.14C8.796,3.315,7.834,4.278,6.657,4.278L2.139,4.278C0.962,4.278,0,3.315,0,2.14C0,0.963,0.962,0,2.139,0" transform="matrix(1 0 0 -1 340.809 418.898)" fill="rgb(26,46,53)" stroke="none" stroke-width="1"/><path id="eE3OASj9RwP103" d="M0.479422,6.58236C1.59542,8.94836,4.30042,10.0184,6.52142,8.97136C8.74242,7.92336,9.63842,5.15636,8.52242,2.79036C7.40642,0.424359,4.70242,-0.645641,2.48142,0.402359C0.260422,1.44936,-0.635578,4.21636,0.479422,6.58236" transform="matrix(1 0 0 -1 335.251 421.445)" fill="rgb(0,124,255)" stroke="none" stroke-width="1"/><path id="eE3OASj9RwP104" d="M0,0.585L1.239,0L5.547,9.138L4.308,9.722Z" transform="matrix(1 0 0 -1 336.978 421.62)" fill="rgb(26,46,53)" stroke="none" stroke-width="1"/></g></svg>