<svg height="512" width="512" xmlns="http://www.w3.org/2000/svg"><linearGradient id="a" gradientUnits="userSpaceOnUse" x1="514.74" x2="-406.351" y1="325.589" y2="121.569"><stop offset="0" stop-color="#d2deff" stop-opacity="0"/><stop offset="1" stop-color="#b7c5ff"/></linearGradient><path d="M428.41 171.888c-8.355-8.355-18.026-14.923-28.717-19.765-28.021-12.69-50.051-35.408-62.434-63.565C314.342 36.445 262.284.046 201.713 0 122.402-.06 56.551 63.163 53.566 142.418c-1.277 33.922 8.857 65.421 26.87 90.969 22.877 32.448 28.821 73.782 17.021 111.69-16.764 53.857-10.919 104.898 20.973 136.791 55.888 55.888 170.586 31.803 256.185-53.795 85.598-85.599 109.683-200.296 53.795-256.185z" fill="url(#a)"/><g fill="#00c"><path d="M474.827 325.363v-28.77a5 5 0 0 0-5-5h-19.956a72.545 72.545 0 0 0-6.949-16.778l14.109-14.113a4.999 4.999 0 0 0-.001-7.07l-20.343-20.343a5 5 0 0 0-7.07-.001l-14.114 14.109a72.633 72.633 0 0 0-16.778-6.949v-19.956a5 5 0 0 0-5-5h-28.77a5 5 0 0 0-5 5v19.956a72.545 72.545 0 0 0-16.778 6.949l-14.114-14.109a4.999 4.999 0 0 0-7.07.001l-20.343 20.343a5 5 0 0 0-.001 7.07l14.109 14.113a72.651 72.651 0 0 0-6.949 16.778h-19.956a5 5 0 0 0-5 5v28.77a5 5 0 0 0 5 5h19.956a72.545 72.545 0 0 0 6.949 16.778l-14.109 14.113a5 5 0 0 0 .001 7.071l20.343 20.343a5 5 0 0 0 7.07.001l14.114-14.109a72.651 72.651 0 0 0 16.778 6.949v19.956a5 5 0 0 0 5 5h28.77a5 5 0 0 0 5-5v-19.956a72.545 72.545 0 0 0 16.778-6.949l14.114 14.109a4.999 4.999 0 0 0 7.07-.001l20.343-20.343a5.001 5.001 0 0 0 .001-7.071l-14.109-14.113a72.651 72.651 0 0 0 6.949-16.778h19.956a5 5 0 0 0 5-5zm-95.487 23.115c-20.711 0-37.5-16.789-37.5-37.5s16.789-37.5 37.5-37.5 37.5 16.789 37.5 37.5-16.789 37.5-37.5 37.5zM292.818 431.041V411.04a5 5 0 0 0-5-5h-14.312a56.18 56.18 0 0 0-5.377-12.984l10.119-10.122a4.999 4.999 0 0 0-.001-7.07l-14.144-14.143a5 5 0 0 0-7.07-.001l-10.122 10.119a56.162 56.162 0 0 0-12.984-5.377V352.15a5 5 0 0 0-5-5h-20.002a5 5 0 0 0-5 5v14.312a56.18 56.18 0 0 0-12.984 5.377l-10.122-10.119a4.999 4.999 0 0 0-7.07.001l-14.143 14.143a5 5 0 0 0-.001 7.07l10.119 10.122a56.162 56.162 0 0 0-5.377 12.984h-14.312a5 5 0 0 0-5 5v20.002a5 5 0 0 0 5 5h14.312a56.18 56.18 0 0 0 5.377 12.984l-10.119 10.122a4.999 4.999 0 0 0 .001 7.07l14.143 14.143a5 5 0 0 0 7.07.001l10.122-10.119a56.162 56.162 0 0 0 12.984 5.377v14.312a5 5 0 0 0 5 5h20.002a5 5 0 0 0 5-5V475.62a56.18 56.18 0 0 0 12.984-5.377l10.122 10.119a4.999 4.999 0 0 0 7.07-.001l14.144-14.143a5 5 0 0 0 .001-7.07l-10.119-10.122a56.162 56.162 0 0 0 5.377-12.984h14.312a5.001 5.001 0 0 0 5-5.001zm-73.892 19.913c-16.521 0-29.914-13.393-29.914-29.914s13.393-29.914 29.914-29.914 29.914 13.393 29.914 29.914-13.393 29.914-29.914 29.914zM292.507 219.653v-41.835a5 5 0 0 0-5-5h-28.366a97.032 97.032 0 0 0-9.291-22.433l20.055-20.062a4.999 4.999 0 0 0-.001-7.07l-29.582-29.582a5 5 0 0 0-7.07-.001l-20.062 20.055a97.12 97.12 0 0 0-22.433-9.291V76.068a5 5 0 0 0-5-5h-41.835a5 5 0 0 0-5 5v28.366a97.032 97.032 0 0 0-22.433 9.291L96.428 93.67a5 5 0 0 0-7.071.001l-29.582 29.582a5 5 0 0 0-.001 7.07l20.055 20.062a97.073 97.073 0 0 0-9.29 22.433H42.173a5 5 0 0 0-5 5v41.835a5 5 0 0 0 5 5H70.54a97.073 97.073 0 0 0 9.29 22.433l-20.055 20.062a4.999 4.999 0 0 0 .001 7.07L89.358 303.8a5.001 5.001 0 0 0 7.071.001l20.061-20.055a97.073 97.073 0 0 0 22.433 9.29v28.366a5 5 0 0 0 5 5h41.835a5 5 0 0 0 5-5v-28.366a97.073 97.073 0 0 0 22.433-9.29l20.062 20.055a4.999 4.999 0 0 0 7.07-.001l29.582-29.582a5 5 0 0 0 .001-7.07l-20.055-20.062a97.12 97.12 0 0 0 9.291-22.433h28.366a5 5 0 0 0 4.999-5zm-127.667 35.65c-31.242 0-56.568-25.326-56.568-56.568s25.326-56.568 56.568-56.568 56.568 25.326 56.568 56.568-25.326 56.568-56.568 56.568z" opacity=".1"/></g><path d="M474.827 298.363v-28.77a5 5 0 0 0-5-5h-19.956a72.545 72.545 0 0 0-6.949-16.778l14.109-14.114a4.999 4.999 0 0 0-.001-7.07l-20.343-20.343a5 5 0 0 0-7.07-.001l-14.114 14.109a72.633 72.633 0 0 0-16.778-6.949v-19.956a5 5 0 0 0-5-5h-28.77a5 5 0 0 0-5 5v19.956a72.545 72.545 0 0 0-16.778 6.949l-14.114-14.109a4.999 4.999 0 0 0-7.07.001l-20.343 20.343a5 5 0 0 0-.001 7.07l14.109 14.114a72.651 72.651 0 0 0-6.949 16.778h-19.956a5 5 0 0 0-5 5v28.77a5 5 0 0 0 5 5h19.956a72.545 72.545 0 0 0 6.949 16.778l-14.109 14.113a5 5 0 0 0 .001 7.071l20.343 20.343a5 5 0 0 0 7.07.001l14.114-14.109a72.651 72.651 0 0 0 16.778 6.949v19.956a5 5 0 0 0 5 5h28.77a5 5 0 0 0 5-5v-19.956a72.545 72.545 0 0 0 16.778-6.949l14.114 14.109a4.999 4.999 0 0 0 7.07-.001l20.343-20.343a5.001 5.001 0 0 0 .001-7.071l-14.109-14.113a72.651 72.651 0 0 0 6.949-16.778h19.956a5 5 0 0 0 5-5zm-95.487 23.115c-20.711 0-37.5-16.789-37.5-37.5s16.789-37.5 37.5-37.5 37.5 16.789 37.5 37.5-16.789 37.5-37.5 37.5z" fill="#6583fe"/><path d="M393.725 384.465h-28.77c-5.514 0-10-4.486-10-10v-16.239a77.856 77.856 0 0 1-10.871-4.503l-11.486 11.482a9.935 9.935 0 0 1-7.07 2.928h-.001a9.93 9.93 0 0 1-7.071-2.931l-20.342-20.342a9.932 9.932 0 0 1-2.929-7.07 9.933 9.933 0 0 1 2.928-7.07l11.482-11.486a77.894 77.894 0 0 1-4.503-10.87h-16.239c-5.514 0-10-4.486-10-10v-28.77c0-5.514 4.486-10 10-10h16.239a77.736 77.736 0 0 1 4.503-10.871l-11.482-11.486c-3.897-3.897-3.897-10.241 0-14.141l20.344-20.343c3.899-3.9 10.243-3.898 14.141-.002l11.486 11.483a77.74 77.74 0 0 1 10.871-4.504v-16.238c0-5.514 4.486-10 10-10h28.77c5.514 0 10 4.486 10 10v16.238a77.79 77.79 0 0 1 10.871 4.504l11.486-11.483c3.9-3.897 10.244-3.896 14.141.002l20.343 20.343c3.898 3.899 3.898 10.243 0 14.141l-11.482 11.486a77.736 77.736 0 0 1 4.503 10.871h16.239c5.514 0 10 4.486 10 10v28.77c0 5.514-4.486 10-10 10h-16.239a77.794 77.794 0 0 1-4.503 10.87l11.482 11.486a9.935 9.935 0 0 1 2.928 7.07 9.93 9.93 0 0 1-2.929 7.071l-20.343 20.342c-1.888 1.889-4.399 2.93-7.07 2.93s-5.182-1.039-7.071-2.928l-11.486-11.482a77.756 77.756 0 0 1-10.871 4.503v16.239c.001 5.514-4.485 10-9.999 10zm-50.547-41.904c.847 0 1.699.215 2.474.655a67.687 67.687 0 0 0 15.622 6.471 5 5 0 0 1 3.681 4.822v19.956h28.77v-19.956a5 5 0 0 1 3.681-4.823 67.56 67.56 0 0 0 15.622-6.47 5.003 5.003 0 0 1 6.01.809l14.114 14.108 20.343-20.343-14.109-14.114a5.001 5.001 0 0 1-.808-6.011 67.695 67.695 0 0 0 6.471-15.622 5 5 0 0 1 4.823-3.68h19.956v-28.77h-19.956a5 5 0 0 1-4.823-3.681 67.713 67.713 0 0 0-6.471-15.624 5 5 0 0 1 .809-6.01l14.109-14.113-20.343-20.343-14.113 14.109a5.005 5.005 0 0 1-6.01.809 67.654 67.654 0 0 0-15.622-6.471 5.002 5.002 0 0 1-3.681-4.823v-19.955h-28.77v19.955a4.998 4.998 0 0 1-3.681 4.822 67.657 67.657 0 0 0-15.622 6.472 5.001 5.001 0 0 1-6.01-.809l-14.113-14.109-20.343 20.343 14.108 14.113a5.002 5.002 0 0 1 .809 6.01 67.713 67.713 0 0 0-6.471 15.624 5 5 0 0 1-4.823 3.681h-19.956v28.77h19.956a5 5 0 0 1 4.823 3.68 67.695 67.695 0 0 0 6.471 15.623 5 5 0 0 1-.809 6.01l-14.108 14.114 20.343 20.343 14.113-14.108a4.99 4.99 0 0 1 3.534-1.464zm36.162-16.082c-23.435 0-42.5-19.065-42.5-42.5s19.065-42.5 42.5-42.5 42.5 19.065 42.5 42.5c0 4.301-.642 8.547-1.907 12.621a5 5 0 0 1-9.55-2.967 32.524 32.524 0 0 0 1.457-9.654c0-17.921-14.579-32.5-32.5-32.5-17.92 0-32.5 14.579-32.5 32.5s14.58 32.5 32.5 32.5c3.569 0 7.095-.585 10.48-1.737a5 5 0 0 1 3.224 9.466 42.45 42.45 0 0 1-13.704 2.271z" fill="#00c"/><path d="M292.818 404.041V384.04a5 5 0 0 0-5-5h-14.312a56.18 56.18 0 0 0-5.377-12.984l10.119-10.122a4.999 4.999 0 0 0-.001-7.07l-14.144-14.143a5 5 0 0 0-7.07-.001l-10.122 10.119a56.162 56.162 0 0 0-12.984-5.377V325.15a5 5 0 0 0-5-5h-20.002a5 5 0 0 0-5 5v14.312a56.18 56.18 0 0 0-12.984 5.377l-10.122-10.119a4.999 4.999 0 0 0-7.07.001l-14.143 14.143a5 5 0 0 0-.001 7.07l10.119 10.122a56.162 56.162 0 0 0-5.377 12.984h-14.312a5 5 0 0 0-5 5v20.002a5 5 0 0 0 5 5h14.312a56.18 56.18 0 0 0 5.377 12.984l-10.119 10.122a4.999 4.999 0 0 0 .001 7.07l14.143 14.143a5 5 0 0 0 7.07.001l10.122-10.119a56.162 56.162 0 0 0 12.984 5.377v14.312a5 5 0 0 0 5 5h20.002a5 5 0 0 0 5-5V448.62a56.18 56.18 0 0 0 12.984-5.377l10.122 10.119a4.999 4.999 0 0 0 7.07-.001l14.144-14.143a5 5 0 0 0 .001-7.07l-10.119-10.122a56.162 56.162 0 0 0 5.377-12.984h14.312a5.001 5.001 0 0 0 5-5.001zm-73.892 19.913c-16.521 0-29.914-13.393-29.914-29.914s13.393-29.914 29.914-29.914 29.914 13.393 29.914 29.914-13.393 29.914-29.914 29.914z" fill="#fff"/><path d="M228.927 472.932h-20.002c-5.514 0-10-4.486-10-10V452.31a61.38 61.38 0 0 1-7.057-2.923l-7.514 7.511c-3.898 3.898-10.242 3.899-14.141-.001l-14.144-14.144c-3.897-3.898-3.898-10.241-.002-14.141l7.512-7.515a61.129 61.129 0 0 1-2.923-7.057h-10.622c-5.514 0-10-4.486-10-10v-20c0-5.514 4.486-10 10-10h10.622a61.29 61.29 0 0 1 2.923-7.058l-7.512-7.514c-3.898-3.9-3.897-10.243.002-14.142l14.143-14.143c3.898-3.898 10.242-3.899 14.141-.001l7.514 7.511a61.172 61.172 0 0 1 7.057-2.923v-10.622c0-5.514 4.486-10 10-10h20.002c5.514 0 10 4.486 10 10v10.622a61.245 61.245 0 0 1 7.057 2.923l7.514-7.511c3.898-3.898 10.242-3.898 14.141 0l14.144 14.145c3.899 3.897 3.899 10.241.001 14.141l-7.512 7.514a61.04 61.04 0 0 1 2.923 7.058h10.623c5.514 0 10 4.486 10 10v20.001c0 5.514-4.486 10-10 10h-10.623a61.202 61.202 0 0 1-2.923 7.057l7.511 7.514c3.897 3.9 3.896 10.243-.001 14.142l-14.143 14.144c-3.9 3.898-10.243 3.897-14.142.001l-7.514-7.511a61.38 61.38 0 0 1-7.057 2.923v10.622c.002 5.512-4.484 9.999-9.998 9.999zm-37.984-34.689c.847 0 1.699.215 2.473.655a51.302 51.302 0 0 0 11.829 4.9 5 5 0 0 1 3.68 4.822v14.311h20.002V448.62a4.999 4.999 0 0 1 3.68-4.822 51.222 51.222 0 0 0 11.829-4.9 5.001 5.001 0 0 1 6.009.809l10.122 10.118 14.143-14.143-10.118-10.123a5 5 0 0 1-.808-6.01 51.2 51.2 0 0 0 4.898-11.828 5 5 0 0 1 4.823-3.681h14.312v-20h-14.312a5 5 0 0 1-4.823-3.681 51.23 51.23 0 0 0-4.899-11.829 5.002 5.002 0 0 1 .809-6.01l10.119-10.122-14.144-14.143-10.123 10.119a5 5 0 0 1-6.009.809 51.178 51.178 0 0 0-11.828-4.898 5.002 5.002 0 0 1-3.681-4.823v-14.311h-20.002v14.311a5 5 0 0 1-3.681 4.823 51.178 51.178 0 0 0-11.828 4.898 4.997 4.997 0 0 1-6.009-.809l-10.122-10.118-14.144 14.142 10.118 10.122a5.002 5.002 0 0 1 .809 6.01 51.248 51.248 0 0 0-4.899 11.829 5 5 0 0 1-4.823 3.681h-14.312v20.001h14.312a5 5 0 0 1 4.823 3.681 51.227 51.227 0 0 0 4.898 11.828 5 5 0 0 1-.808 6.01l-10.119 10.122 14.144 14.145 10.122-10.119a5.002 5.002 0 0 1 3.538-1.465zm27.983-9.289c-19.252 0-34.914-15.662-34.914-34.914 0-19.251 15.662-34.913 34.914-34.913 19.251 0 34.913 15.662 34.913 34.913.001 19.252-15.661 34.914-34.913 34.914zm0-59.827c-13.737 0-24.914 11.176-24.914 24.913s11.176 24.914 24.914 24.914c13.737 0 24.913-11.177 24.913-24.914s-11.175-24.913-24.913-24.913z" fill="#00c"/><path d="M292.507 192.653v-41.835a5 5 0 0 0-5-5h-28.366a97.032 97.032 0 0 0-9.291-22.433l20.055-20.062a4.999 4.999 0 0 0-.001-7.07l-29.582-29.582a5 5 0 0 0-7.07-.001L213.19 86.725a97.12 97.12 0 0 0-22.433-9.291V49.068a5 5 0 0 0-5-5h-41.835a5 5 0 0 0-5 5v28.366a97.032 97.032 0 0 0-22.433 9.291L96.428 66.67a5 5 0 0 0-7.071.001L59.776 96.252a5.001 5.001 0 0 0-.001 7.071l20.055 20.062a97.073 97.073 0 0 0-9.29 22.433H42.173a5 5 0 0 0-5 5v41.835a5 5 0 0 0 5 5H70.54a97.073 97.073 0 0 0 9.29 22.433l-20.055 20.061a5 5 0 0 0 .001 7.071L89.358 276.8a5.001 5.001 0 0 0 7.071.001l20.061-20.055a97.073 97.073 0 0 0 22.433 9.29v28.366a5 5 0 0 0 5 5h41.835a5 5 0 0 0 5-5v-28.366a97.073 97.073 0 0 0 22.433-9.29l20.062 20.055a4.999 4.999 0 0 0 7.07-.001l29.582-29.582a5.001 5.001 0 0 0 .001-7.071l-20.055-20.061a97.12 97.12 0 0 0 9.291-22.433h28.366a5 5 0 0 0 4.999-5zm-127.667 35.65c-31.242 0-56.568-25.326-56.568-56.568s25.326-56.568 56.568-56.568 56.568 25.326 56.568 56.568-25.326 56.568-56.568 56.568z" fill="#fff"/><path d="M185.758 304.401h-41.835c-5.514 0-10-4.486-10-10v-24.626a102.136 102.136 0 0 1-16.541-6.852l-17.418 17.412c-3.899 3.898-10.244 3.898-14.142-.002L56.24 250.752c-3.898-3.896-3.899-10.24-.001-14.14l17.412-17.417a102.269 102.269 0 0 1-6.852-16.543H42.173c-5.514 0-10-4.486-10-10v-41.835c0-5.514 4.486-10 10-10h24.625a102.184 102.184 0 0 1 6.852-16.542l-17.412-17.418c-3.897-3.897-3.897-10.241 0-14.141L85.82 63.135c3.899-3.897 10.243-3.898 14.142-.002l17.418 17.412a102.136 102.136 0 0 1 16.541-6.852V49.068c0-5.514 4.486-10 10-10h41.835c5.514 0 10 4.486 10 10v24.626a102.27 102.27 0 0 1 16.542 6.851l17.417-17.411c3.9-3.897 10.244-3.896 14.141.002l29.582 29.581c3.898 3.9 3.898 10.243 0 14.141l-17.411 17.418a102.184 102.184 0 0 1 6.852 16.542h24.625c5.514 0 10 4.486 10 10v41.835c0 5.514-4.486 10-10 10h-24.625a102.269 102.269 0 0 1-6.852 16.543l17.412 17.416c3.897 3.899 3.897 10.243-.001 14.141l-29.582 29.582c-1.888 1.889-4.399 2.93-7.07 2.93s-5.182-1.039-7.071-2.928l-17.417-17.412a102.11 102.11 0 0 1-16.542 6.852v24.626c.002 5.512-4.484 9.998-9.998 9.998zm-69.267-52.656c.847 0 1.699.215 2.474.655a92.22 92.22 0 0 0 21.277 8.813 4.999 4.999 0 0 1 3.68 4.822v28.366h41.835v-28.366a4.998 4.998 0 0 1 3.68-4.822 92.115 92.115 0 0 0 21.277-8.813 5.004 5.004 0 0 1 6.01.809l20.061 20.055 29.582-29.582-20.055-20.061a5.002 5.002 0 0 1-.809-6.01 92.174 92.174 0 0 0 8.812-21.278 5 5 0 0 1 4.823-3.681h28.366v-41.835h-28.366a5 5 0 0 1-4.823-3.681 92.148 92.148 0 0 0-8.812-21.277 5 5 0 0 1 .808-6.01l20.055-20.062-29.582-29.581-20.061 20.055a5.006 5.006 0 0 1-6.01.809 92.174 92.174 0 0 0-21.277-8.812 4.999 4.999 0 0 1-3.68-4.822V49.068h-41.835v28.366a4.999 4.999 0 0 1-3.68 4.822 92.156 92.156 0 0 0-21.277 8.812 4.999 4.999 0 0 1-6.01-.809L92.893 70.206 63.312 99.787l20.055 20.062a5 5 0 0 1 .808 6.01 92.148 92.148 0 0 0-8.812 21.277 5 5 0 0 1-4.823 3.681H42.173v41.835H70.54a5 5 0 0 1 4.823 3.681 92.174 92.174 0 0 0 8.812 21.278 5 5 0 0 1-.809 6.01l-20.055 20.061 29.582 29.582 20.062-20.055a4.998 4.998 0 0 1 3.536-1.464zm48.349-18.442c-10.328 0-20.551-2.613-29.564-7.557-2.421-1.328-3.308-4.367-1.979-6.788s4.368-3.309 6.788-1.979c7.544 4.138 16.104 6.324 24.756 6.324 28.435 0 51.568-23.134 51.568-51.568 0-28.435-23.133-51.567-51.568-51.567-28.434 0-51.567 23.133-51.567 51.567 0 8.018 1.798 15.711 5.345 22.865a5 5 0 1 1-8.96 4.441c-4.237-8.547-6.385-17.734-6.385-27.307 0-33.948 27.619-61.567 61.567-61.567 33.949 0 61.568 27.619 61.568 61.567-.001 33.95-27.62 61.569-61.569 61.569z" fill="#00c"/><path d="M379.34 105.304c-7.292 0-13.225-5.933-13.225-13.225s5.933-13.225 13.225-13.225c7.293 0 13.225 5.933 13.225 13.225s-5.933 13.225-13.225 13.225zm0-16.449a3.228 3.228 0 0 0-3.225 3.225c0 1.778 1.447 3.225 3.225 3.225s3.225-1.446 3.225-3.225-1.447-3.225-3.225-3.225zM379.34 477.314c-7.292 0-13.225-5.933-13.225-13.225 0-7.293 5.933-13.226 13.225-13.226 7.293 0 13.225 5.933 13.225 13.226 0 7.292-5.933 13.225-13.225 13.225zm0-16.451a3.23 3.23 0 0 0-3.225 3.226c0 1.778 1.447 3.225 3.225 3.225s3.225-1.446 3.225-3.225a3.23 3.23 0 0 0-3.225-3.226zM218.926 49.068c-7.292 0-13.225-5.933-13.225-13.225 0-7.293 5.933-13.226 13.225-13.226s13.225 5.933 13.225 13.226-5.933 13.225-13.225 13.225zm0-16.45a3.23 3.23 0 0 0-3.225 3.226c0 1.778 1.447 3.225 3.225 3.225s3.225-1.446 3.225-3.225-1.447-3.226-3.225-3.226zM329.085 142.996a4.984 4.984 0 0 1-3.536-1.465l-11.292-11.292a4.998 4.998 0 0 1 0-7.07l11.292-11.292a5 5 0 0 1 7.071 0l11.292 11.292a4.998 4.998 0 0 1 0 7.07l-11.292 11.292a4.981 4.981 0 0 1-3.535 1.465zm-4.221-16.292 4.221 4.221 4.221-4.221-4.221-4.221zM58.708 350.232a5.001 5.001 0 0 1-3.536-1.465L43.88 337.475a4.998 4.998 0 0 1 0-7.07l11.292-11.292a5 5 0 0 1 7.071 0l11.292 11.292a4.998 4.998 0 0 1 0 7.07l-11.292 11.293a5 5 0 0 1-3.535 1.464zm-4.222-16.292 4.221 4.222 4.221-4.222-4.221-4.221z" fill="#6583fe"/></svg>