<svg xmlns="http://www.w3.org/2000/svg" width="210mm" height="297mm" viewBox="0 0 210 297"><path d="m142.684 192.911-2.331-1.836c-.854-.672-1.973-.9-2.983-.609l-11.725 3.377a2.935 2.935 0 0 0-2.045 2.057l-.729 2.718a2.932 2.932 0 0 1-2.044 2.057l-6.997 2.016c-1.668.481-2.549 2.211-1.968 3.866l13.545 38.504c.582 1.655 2.406 2.606 4.075 2.126l55.454-15.974c1.668-.481 2.548-2.211 1.967-3.865l-13.544-38.506c-.582-1.653-2.407-2.604-4.075-2.124l-23.618 6.803c-1.01.29-2.128.062-2.982-.61" style="fill:#dadbd8;fill-opacity:1;fill-rule:nonzero;stroke:none;stroke-width:.0849771"/><path d="M170.796 24.785a4.985 4.985 0 0 0-6.415-4.774c.072-.5.111-1.01.111-1.53 0-5.83-4.726-10.556-10.555-10.556-.665 0-1.314.064-1.945.182-1.622-2.655-4.539-4.434-7.878-4.434-5.055 0-9.154 4.06-9.229 9.097l-.154-.007a8.503 8.503 0 0 0-8.503 8.503 8.503 8.503 0 0 0 8.503 8.503h31.228l-.008-.006a4.981 4.981 0 0 0 4.844-4.979" style="fill:#ededeb;fill-opacity:1;fill-rule:nonzero;stroke:none;stroke-width:.0849649"/><path d="M144.55 25.171v9.718h7.925v-9.718h6.454l-10.417-8.801-10.417 8.801h6.454" style="fill:#dadbd8;fill-opacity:1;fill-rule:nonzero;stroke:none;stroke-width:.0849649"/><path d="m175.87 188.839-50.797 14.632c-2.118.61-3.498 2.852-3.081 5.007l6.711 34.784c.416 2.155 2.47 3.408 4.588 2.798l50.797-14.632c2.118-.61 3.497-2.852 3.082-5.008l-6.712-34.782c-.417-2.156-2.47-3.41-4.588-2.8" style="fill:#e2e2e0;fill-opacity:1;fill-rule:nonzero;stroke:none;stroke-width:.0849649"/><path d="M197.791 134.664c0 48.304-36.501 87.6-81.37 87.6-44.868 0-81.37-39.296-81.37-87.6 0-48.301 36.502-87.598 81.37-87.598 27.674 0 53.092 14.867 68.197 39.813l-5.984 4 15.611 4.806 2.662-17.023-5.582 3.733c-16.556-27.456-44.488-43.826-74.904-43.826-49.22 0-89.263 43.109-89.263 96.095 0 52.989 40.043 96.097 89.263 96.097 49.22 0 89.263-43.108 89.263-96.097h-7.893" style="fill:#406fbf;fill-opacity:1;fill-rule:nonzero;stroke:none;stroke-width:.0849649"/><path d="M116.421 230.761c-.703 0-1.406-.01-2.105-.026v-8.5a76.306 76.306 0 0 0 15.1-1.086c1.548 1.295 3.585 1.295 3.585 1.295s-3.646 2.71-3.647 6.73c0 .164.005.329.02.497 0 0-.904-.785-1.91-.785-.58 0-1.194.26-1.69 1.077-.06.1-.115.197-.165.293a83.589 83.589 0 0 1-9.187.505m15.06-1.368c.07-1.582.602-2.993 1.52-4.137.933-1.163 1.303-2.632 1.303-4.067-.001-.35-.024-.698-.065-1.04a76.47 76.47 0 0 0 10.147-3.214c.047.194.074.378.074.55 0 2.08-3.84 6.559-3.84 6.559s.44-.958.44-1.937c0-.979-.44-1.978-2.2-2.06a3.63 3.63 0 0 0-.179-.005c-2.402 0-3.63 2.282-3.631 4.337 0 .835.201 1.633.61 2.224.535.773 1.203 1.016 1.83 1.016 1.062 0 2.01-.696 2.01-.696s.013.211.042.569a82.959 82.959 0 0 1-8.06 1.9m10-2.486c.617-3.857 3.398-5.838 4.417-8.782.175-.504.252-.998.25-1.478 0-.143-.007-.285-.019-.426 30.22-12.802 51.662-44.533 51.662-81.556h7.892a104.369 104.369 0 0 1-.49 10.113c-3.262 33.422-22.507 61.798-49.33 76.083-.137-.625-.486-.814-.96-.814-.363 0-.8.112-1.27.224s-.974.223-1.471.223h-.061c-1.034 0-2.087 1.488-2.559 3.41a84.02 84.02 0 0 1-8.06 3.003m52.763-131.221-12.6-3.88-3.012-.926 5.985-4.001a89.279 89.279 0 0 0-5.447-7.99C163.798 58.794 141 47.066 116.423 47.066c-.704 0-1.406.01-2.105.029v-8.499c.7-.018 1.402-.026 2.105-.026 30.416 0 58.347 16.369 74.904 43.825l5.582-3.732-1.544 9.871-.742 4.746-.376 2.406" style="fill:#b8d2ef;fill-opacity:1;fill-rule:nonzero;stroke:none;stroke-width:.0849649"/><path d="M94.68 126.379c-8.02 0-14.523-7-14.523-15.636 0-8.635 6.502-15.635 14.524-15.635 8.02 0 14.522 7 14.522 15.635S102.7 126.38 94.68 126.38m33.761-9.861v-11.55l-5.524-.56a32.2 32.2 0 0 0-4.12-10.668l3.548-4.614-7.586-8.167-4.286 3.82c-2.97-2.098-6.313-3.632-9.91-4.435l-.52-5.948H89.317l-.52 5.948c-3.597.803-6.94 2.337-9.91 4.435l-4.286-3.82-7.586 8.167 3.548 4.614a32.201 32.201 0 0 0-4.12 10.668l-5.524.56v11.55l5.524.56a32.206 32.206 0 0 0 4.12 10.669l-3.548 4.613 7.586 8.167 4.286-3.82c2.97 2.099 6.313 3.633 9.91 4.435l.52 5.948h10.729l.52-5.948c3.596-.802 6.94-2.336 9.91-4.434l4.285 3.819 7.586-8.167-3.548-4.613a32.187 32.187 0 0 0 4.12-10.669l5.524-.56M106.22 181.303c-5.28 0-9.559-4.607-9.559-10.29 0-5.684 4.28-10.292 9.56-10.292 5.278 0 9.559 4.608 9.559 10.291 0 5.684-4.28 10.291-9.56 10.291m22.222-6.49v-7.602l-3.636-.369a21.165 21.165 0 0 0-2.711-7.021l2.335-3.036-4.993-5.377-2.821 2.515a18.167 18.167 0 0 0-6.523-2.919l-.341-3.914h-7.062l-.342 3.914a18.167 18.167 0 0 0-6.523 2.919l-2.82-2.515-4.994 5.377 2.336 3.036a21.183 21.183 0 0 0-2.712 7.021l-3.636.369v7.602l3.636.369a21.2 21.2 0 0 0 2.712 7.022l-2.336 3.037 4.993 5.375 2.821-2.515a18.147 18.147 0 0 0 6.523 2.92l.342 3.913h7.062l.341-3.913a18.168 18.168 0 0 0 6.523-2.92l2.82 2.515 4.994-5.375-2.335-3.037a21.182 21.182 0 0 0 2.712-7.022l3.635-.37" style="fill:#406fbf;fill-opacity:1;fill-rule:nonzero;stroke:none;stroke-width:.0849649"/><path d="M149.672 173.074h-8.408l-.407-4.659c-2.819-.629-5.438-1.832-7.765-3.475l-3.36 2.993-5.943-6.4 2.78-3.616a25.217 25.217 0 0 1-3.229-8.36l-4.328-.438v-9.05l4.328-.44a25.236 25.236 0 0 1 3.229-8.36l-2.78-3.615 5.944-6.4 3.359 2.994c2.327-1.644 4.946-2.847 7.765-3.476l.407-4.66h8.408l.407 4.66c2.818.629 5.438 1.832 7.765 3.476l3.359-2.994 5.944 6.4-2.78 3.615a25.236 25.236 0 0 1 3.229 8.36l4.328.44v9.05l-4.328.439a25.217 25.217 0 0 1-3.229 8.359l2.78 3.616-5.944 6.4-3.359-2.993c-2.327 1.643-4.947 2.846-7.765 3.475l-.407 4.66m-15.585-28.48c0 6.766 5.096 12.25 11.38 12.25 6.286 0 11.382-5.484 11.382-12.25 0-6.768-5.096-12.254-11.381-12.254s-11.38 5.486-11.38 12.253" style="fill:#90b4e3;fill-opacity:1;fill-rule:nonzero;stroke:none;stroke-width:.0849649"/><path d="m114.316 213.578-2.476-7.038c-.581-1.654.3-3.384 1.967-3.865l.51-.146v11.049" style="fill:#c0c1bf;fill-opacity:1;fill-rule:nonzero;stroke:none;stroke-width:.0849649"/><path d="M100.045 147.09h-6.036v-20.727c.222.01.447.016.672.016 8.02 0 14.522-7 14.522-15.635S102.7 95.11 94.68 95.11c-.225 0-.45.005-.672.017v-20.73h6.036l.52 5.948c3.596.803 6.94 2.337 9.909 4.435l3.842-3.424v58.776l-3.841-3.423c-2.97 2.098-6.314 3.632-9.91 4.434l-.52 5.948" style="fill:#a2bbe6;fill-opacity:1;fill-rule:nonzero;stroke:none;stroke-width:.0849649"/><path d="M109.752 194.934h-7.062l-.342-3.913a18.147 18.147 0 0 1-6.523-2.92l-1.816 1.62v-37.417l1.816 1.619a18.167 18.167 0 0 1 6.523-2.919l.342-3.914h7.062l.341 3.914c1.48.33 2.893.848 4.223 1.528v13.005c-1.692-2.893-4.685-4.816-8.095-4.816-5.28 0-9.56 4.608-9.56 10.291 0 5.684 4.28 10.291 9.56 10.291 3.41 0 6.403-1.922 8.095-4.816v13.006a17.795 17.795 0 0 1-4.223 1.528l-.341 3.913" style="fill:#6189ce;fill-opacity:1;fill-rule:nonzero;stroke:none;stroke-width:.0849649"/><path d="M144.396 253.4h-5.115c.095-.717.139-1.418.139-2.104 0-2.41-.54-4.627-1.365-6.608-2.628-6.314-8.137-10.214-8.137-10.214-.227.474-.724.69-1.315.69-.484 0-1.03-.145-1.542-.413-1.011-.526-1.89-1.531-1.89-2.843-.002-.59.177-1.244.602-1.945.497-.818 1.11-1.077 1.69-1.077 1.006 0 1.91.785 1.91.785a6.64 6.64 0 0 1-.02-.497c.001-4.02 3.647-6.73 3.647-6.73s-4.588 0-5.228-4.377a9.114 9.114 0 0 1-.111-1.304c0-1.193.407-1.516 1.025-1.516.363 0 .8.113 1.27.224.47.112.974.225 1.471.225l.046-.001h.015c1.388 0 2.813 2.682 2.815 5.494 0 1.435-.37 2.905-1.304 4.067-.985 1.228-1.526 2.763-1.527 4.488 0 3.127 1.774 6.874 5.898 10.527 1.405 1.244 2.408 2.86 3.116 4.623.182-2.928.316-5.787.316-7.866 0-1.387-.06-2.426-.204-2.905-.642-2.13-.953-5.338-1.057-6.63-.03-.358-.042-.57-.042-.57s-.948.697-2.01.697c-.627 0-1.295-.244-1.83-1.017-.41-.59-.611-1.388-.61-2.223 0-2.055 1.229-4.337 3.63-4.337.06 0 .12.001.18.005 1.76.082 2.2 1.08 2.2 2.06 0 .978-.44 1.937-.44 1.937s3.84-4.48 3.84-6.56c0-2.08-3.84-6.079-3.84-6.079s-3.36-1.28-3.36-4.625c0-1.883 1.571-2.817 3.372-2.817 1.4 0 2.938.564 3.987 1.683.47.503.66.992.66 1.456 0 1.896-3.177 3.343-3.177 3.343s4.045 2.72 4.047 6.202c.001.48-.076.974-.25 1.477-1.15 3.32-4.539 5.415-4.54 10.353 0 1.251.217 2.684.743 4.366.868 2.774 1.157 6.33 1.157 9.84 0 2.686-.17 5.345-.38 7.602.717-1.991 1.779-3.832 3.34-5.215 4.124-3.654 5.899-7.4 5.897-10.527 0-1.724-.541-3.26-1.527-4.487-.933-1.164-1.303-2.633-1.302-4.068 0-2.812 1.426-5.494 2.814-5.494h.06c.497 0 1.001-.111 1.472-.224.47-.112.907-.224 1.27-.224.618 0 1.025.323 1.026 1.516 0 .353-.036.783-.112 1.303-.64 4.378-5.228 4.378-5.228 4.378s3.646 2.71 3.647 6.73c0 .164-.005.33-.019.497 0 0 .902-.785 1.91-.785.58 0 1.193.26 1.69 1.077.425.7.602 1.354.602 1.946 0 1.974-1.995 3.255-3.432 3.254-.14 0-.275-.012-.402-.037-.41-.08-.741-.29-.914-.652 0 0-.694.492-1.706 1.407-2.391 2.162-6.56 6.693-7.57 12.719" style="fill:#2d5bb2;fill-opacity:1;fill-rule:nonzero;stroke:none;stroke-width:.0849649"/><path d="M155.484 286.628H128.15l-2.624-26.625h32.58l-.223 2.284-.022.212-2.377 24.129" style="fill:#6d97d6;fill-opacity:1;fill-rule:nonzero;stroke:none;stroke-width:.0849649"/><path d="M159.892 260.003h-36.15v-6.604h36.15v6.604" style="fill:#90b4e3;fill-opacity:1;fill-rule:nonzero;stroke:none;stroke-width:.0849649"/></svg>