<svg xmlns="http://www.w3.org/2000/svg" width="210mm" height="297mm" viewBox="0 0 210 297"><path d="M46.926 277.651h90.19v-36.633h-90.19Z" style="fill:#fafaf9;fill-opacity:1;fill-rule:nonzero;stroke:none;stroke-width:.0606777"/><path d="M137.116 277.651s-.007-.225-.01-.654l-.011-1.9-.026-7.29c-.013-6.323-.03-15.469-.054-26.79l.1.101-90.184.043h-.006l.143-.143-.006 36.633-.137-.136 64.665.064 18.759.038 5.02.018 1.3.008c.293.004.446.008.446.008s-.142.005-.43.008c-.293 0-.721.005-1.283.008-1.14.004-2.817.008-4.992.017l-18.727.038-64.758.064h-.136v-.137l-.007-36.633v-.143h.149c35.304.018 67.242.032 90.184.042h.101v.101l-.054 26.85-.025 7.267-.011 1.883c-.004.423-.01.634-.01.634" style="fill:#dadbd8;fill-opacity:1;fill-rule:nonzero;stroke:none;stroke-width:.0606777"/><path d="M47.016 245.958c0-.079 20.16-.143 45.022-.143 24.87 0 45.026.064 45.026.143 0 .08-20.155.143-45.026.143-24.862 0-45.022-.064-45.022-.143M50.792 243.748a.655.655 0 1 1-1.31 0 .655.655 0 0 1 1.31 0M53.035 243.748a.655.655 0 1 1-1.31 0 .655.655 0 0 1 1.31 0M55.246 243.748a.655.655 0 1 1-1.31 0 .655.655 0 0 1 1.31 0M54.591 273.697h21.785v-21.784H54.59ZM130.876 257.75c0 .08-11.21.143-25.035.143-13.83 0-25.037-.064-25.037-.142 0-.079 11.207-.143 25.037-.143 13.825 0 25.035.064 25.035.143M130.876 262.188c0 .079-11.21.143-25.035.143-13.83 0-25.037-.064-25.037-.143 0-.079 11.207-.142 25.037-.142 13.825 0 25.035.064 25.035.142M113.038 266.627c0 .008-.113.019-.328.028l-.94.026c-.853.013-2.024.027-3.453.047l-11.395.042c-4.435-.018-8.447-.032-11.398-.042l-3.454-.047-.94-.026c-.214-.008-.326-.019-.326-.028 0-.011.112-.02.327-.03l.939-.026 3.454-.046 11.398-.042c4.432.018 8.444.031 11.395.042l3.454.046c.383.01.693.02.939.027.215.008.328.018.328.029" style="fill:#dadbd8;fill-opacity:1;fill-rule:nonzero;stroke:none;stroke-width:.0606777"/><path d="M68.775 277.656h79.678v-53.831H68.775Z" style="fill:#fff;fill-opacity:1;fill-rule:nonzero;stroke:none;stroke-width:.0606777"/><path d="M148.453 277.656s-.008-.336-.012-.979c-.004-.646-.007-1.598-.013-2.84l-.03-10.827c-.013-9.352-.034-22.796-.06-39.185l.115.115-79.671.028h-.007l.143-.143-.012 53.831-.131-.132 57.403.066 16.4.035c1.903.007 3.367.012 4.362.017l1.126.008c.254 0 .387.007.387.007s-.123.005-.372.008c-.254 0-.625.005-1.11.008l-4.337.015-16.37.036-57.49.065h-.13v-.132l-.012-53.832v-.144h.149c30.019.01 57.716.02 79.671.029h.115v.115l-.06 39.258c-.013 4.668-.022 8.315-.03 10.8l-.012 2.819c-.005.635-.013.955-.013.955" style="fill:#dadbd8;fill-opacity:1;fill-rule:nonzero;stroke:none;stroke-width:.0606777"/><path d="M68.775 228.628c0-.079 17.823-.144 39.804-.144 21.989 0 39.808.065 39.808.144 0 .08-17.819.145-39.808.145-21.98 0-39.804-.065-39.804-.145M71.919 226.205a.642.642 0 0 1-.64.644.641.641 0 0 1-.638-.644c0-.356.286-.644.639-.644.353 0 .639.288.639.644M74.107 226.205a.641.641 0 0 1-.639.644.642.642 0 0 1-.638-.644c0-.356.286-.644.638-.644.353 0 .639.288.639.644M76.264 226.205a.642.642 0 0 1-.64.644.641.641 0 0 1-.637-.644c0-.356.285-.644.638-.644.352 0 .639.288.639.644M96.88 255.688H75.624v-21.446h21.254v21.446M137.526 240.304c0 .08-8.289.145-18.512.145-10.226 0-18.514-.065-18.514-.145 0-.08 8.288-.144 18.514-.144 10.223 0 18.512.065 18.512.144M137.526 244.29c0 .08-8.289.143-18.512.143-10.226 0-18.514-.064-18.514-.143 0-.08 8.288-.144 18.514-.144 10.223 0 18.512.064 18.512.144M137.526 248.275c0 .08-8.289.144-18.512.144-10.226 0-18.514-.065-18.514-.144 0-.08 8.288-.144 18.514-.144 10.223 0 18.512.064 18.512.144M122.383 252.26c0 .02-.306.039-.86.057l-2.345.045c-1.98.026-4.715.043-7.736.043-3.022 0-5.758-.016-7.738-.043l-2.344-.045c-.554-.018-.86-.037-.86-.057 0-.02.306-.039.86-.056l2.344-.045c1.98-.026 4.716-.043 7.738-.043 3.02 0 5.756.017 7.736.043l2.345.045c.554.017.86.037.86.056M86.944 272.998h-9.989v-10.079h9.989v10.079M95.07 272.998h9.988v-10.079h-9.989zM123.172 272.998h-9.989v-10.079h9.989v10.079M141.286 272.998h-9.988v-10.079h9.988v10.079" style="fill:#dadbd8;fill-opacity:1;fill-rule:nonzero;stroke:none;stroke-width:.0606777"/><path d="M89.746 71.778a5.003 5.003 0 1 0-4.059-9.146 5.003 5.003 0 0 0 4.059 9.146zm-.033 6.69a11.426 11.426 0 0 1-3.039.074l-1.569 2.341-4.35-1.677.407-2.789a11.419 11.419 0 0 1-2.203-2.094l-2.765.545-1.89-4.262 2.258-1.684a11.426 11.426 0 0 1-.074-3.039l-2.34-1.57 1.677-4.35 2.788.407a11.418 11.418 0 0 1 2.096-2.203l-.547-2.763 4.263-1.892 1.683 2.26a11.406 11.406 0 0 1 3.04-.075l1.57-2.341 4.35 1.677-.408 2.79c.815.59 1.558 1.29 2.203 2.093l2.764-.545 1.892 4.263-2.26 1.683a11.43 11.43 0 0 1 .075 3.04l2.34 1.57-1.676 4.35-2.79-.408a11.436 11.436 0 0 1-2.094 2.203l.545 2.764-4.262 1.89-1.684-2.258" style="fill:#b8d2ef;fill-opacity:1;fill-rule:evenodd;stroke:none;stroke-width:.0606777"/><path d="M64.253 125.864s-.006-.197-.01-.572l-.01-1.658-.02-6.337c-.012-5.484-.028-13.388-.046-23.092l.086.086-54.717.026H9.53l.113-.112-.008 31.66-.105-.104 39.358.05 11.302.029 3.014.012a57.542 57.542 0 0 1 1.048.014s-.084.004-.256.005c-.178 0-.433.004-.767.007-.685.004-1.69.007-2.993.012-2.626.007-6.453.015-11.28.028l-39.426.05h-.104v-.104L9.42 94.205v-.112h.116l54.717.025h.087l-.001.087-.046 23.145-.021 6.318-.01 1.642c-.003.37-.01.554-.01.554" style="fill:#dadbd8;fill-opacity:1;fill-rule:nonzero;stroke:none;stroke-width:.0606777"/><path d="M64.273 98.038c0 .062-12.24.112-27.334.112-15.1 0-27.337-.05-27.337-.112 0-.061 12.237-.112 27.337-.112 15.095 0 27.334.05 27.334.112" style="fill:#dadbd8;fill-opacity:1;fill-rule:nonzero;stroke:none;stroke-width:.0606777"/><path d="M31.175 120.162H14.27v-16.903h16.904v16.903" style="fill:#f3f2f1;fill-opacity:1;fill-rule:nonzero;stroke:none;stroke-width:.0606777"/><path d="M60.284 106.046c0 .008-.085.016-.248.023l-.713.021-2.622.036-8.65.033-8.65-.033-2.622-.036-.713-.02c-.162-.008-.248-.016-.248-.024 0-.007.086-.013.248-.022l.713-.02 2.622-.036 8.65-.033 8.65.033 2.622.035c.29.008.525.016.713.02.163.009.248.016.248.023M60.83 109.822c0 .008-.089.016-.255.023l-.729.02-2.68.036-8.842.033-8.844-.033-2.68-.035-.728-.021c-.167-.007-.254-.014-.254-.023 0-.008.087-.015.254-.022l.728-.021 2.68-.036 8.844-.033 8.842.033 2.68.036.729.02c.166.008.254.014.254.023M60.83 113.598c0 .008-.089.015-.255.023l-.729.02-2.68.036-8.842.033-8.844-.033-2.68-.036-.728-.02c-.167-.007-.254-.016-.254-.023 0-.007.087-.016.254-.023l.728-.02 2.68-.036 8.844-.033 8.842.033 2.68.036.729.02c.166.007.254.016.254.023M60.83 117.374c0 .008-.089.015-.255.022l-.729.021-2.68.036-8.842.033-8.844-.033-2.68-.036-.728-.02c-.167-.008-.254-.014-.254-.023 0-.008.087-.016.254-.023l.728-.02 2.68-.036 8.844-.033 8.842.033 2.68.035.729.021c.166.007.254.014.254.023" style="fill:#dadbd8;fill-opacity:1;fill-rule:nonzero;stroke:none;stroke-width:.0606777"/><path d="M28.454 267.689c.355-1.375-.546-2.756-1.557-3.753-1.01-.998-2.219-1.89-2.745-3.21-.852-2.137.294-4.904-1.16-6.687-.855-1.049-2.388-1.4-3.147-2.52-.398-.588-.527-1.31-.684-2.003a20.341 20.341 0 0 0-5.058-9.465 17.651 17.651 0 0 0 1.985 9.122c.589 1.121 1.311 2.214 1.507 3.465.316 2.032-.818 4.125-.319 6.12.571 2.28 3.134 3.807 3.255 6.156.103 1.985-1.628 3.728-1.499 5.711.055.845.447 1.63.884 2.355 1.535 2.552 3.79 4.31 7.208 4.252l4.186.147-2.856-9.69" style="fill:#f03d5f;fill-opacity:1;fill-rule:nonzero;stroke:none;stroke-width:.0606777"/><path d="m31.31 277.379-4.186-.147-.162.001c-3.328 0-5.536-1.742-7.046-4.253-.437-.726-.829-1.51-.884-2.355a3.539 3.539 0 0 1-.007-.208c-.002-1.84 1.509-3.485 1.51-5.33 0-.057 0-.115-.004-.173-.121-2.35-2.684-3.876-3.255-6.157a4.58 4.58 0 0 1-.128-1.12c0-1.392.502-2.817.503-4.223 0-.259-.016-.518-.056-.776-.195-1.251-.918-2.344-1.507-3.465a17.662 17.662 0 0 1-1.984-9.122 20.341 20.341 0 0 1 5.058 9.465c.156.693.285 1.415.683 2.003.759 1.12 2.292 1.471 3.148 2.52.735.902.805 2.055.805 3.252 0 .282-.004.566-.004.85 0 .894.039 1.783.359 2.585.525 1.319 1.734 2.212 2.744 3.21.857.845 1.635 1.966 1.636 3.126 0 .208-.024.417-.079.626l2.856 9.69" style="fill:#6d97d6;fill-opacity:1;fill-rule:nonzero;stroke:none;stroke-width:.0606777"/><path d="M32.158 277.489s.4.093 1.153-.025a6.95 6.95 0 0 0 1.36-.343c.52-.19 1.113-.46 1.68-.92.273-.238.545-.531.692-.921.144-.387.17-.814.197-1.25.022-.438.023-.894.098-1.355.07-.461.251-.914.51-1.346.495-.868 1.314-1.688 1.58-2.866.286-1.157.08-2.41-.115-3.67-.194-1.255-.382-2.624.098-3.932.449-1.31 1.367-2.492 1.826-3.968.457-1.49.244-3.094.34-4.676.045-.794.199-1.589.546-2.324.339-.74.809-1.44 1.176-2.22.743-1.577.874-3.365 1.077-5.117.1-.882.2-1.774.3-2.675.1-.905.18-1.806.466-2.677.258-.877.631-1.726 1.001-2.591.181-.435.373-.87.486-1.354.082-.492.106-.955.135-1.44a16.97 16.97 0 0 0-.111-2.897c-.114-.966-.288-1.924-.392-2.892l-.019-.167-.022-.193-.171.086a6.473 6.473 0 0 0-2.254 1.902c-.6.779-1.036 1.657-1.384 2.552-.7 1.798-.952 3.683-1.304 5.482-.344 1.798-.798 3.568-1.72 5.063-.459.746-1.014 1.426-1.5 2.154-.484.722-.91 1.516-1.039 2.386-.247 1.77.728 3.327.525 4.895-.072.779-.382 1.507-.764 2.173-.38.668-.827 1.288-1.25 1.912-.424.623-.828 1.255-1.125 1.931a6.124 6.124 0 0 0-.514 2.1c-.102 1.411.099 2.75-.005 4.015-.085 1.266-.53 2.414-1.033 3.44-.506 1.03-1.07 1.961-1.541 2.865-.238.451-.457.892-.635 1.334-.189.441-.282.894-.368 1.324a8.345 8.345 0 0 0-.03 2.39c.182 1.434.716 2.466 1.197 3.046.11.156.238.266.34.367.097.106.194.178.274.233.156.116.24.169.24.169.018-.022-.345-.214-.811-.802-.461-.584-.973-1.609-1.137-3.027a8.303 8.303 0 0 1 .054-2.355c.088-.421.182-.864.37-1.292.178-.432.4-.87.638-1.317.476-.895 1.045-1.822 1.562-2.859.514-1.031.976-2.202 1.07-3.501.11-1.292-.085-2.636.022-4.014.048-.69.21-1.377.505-2.029.29-.654.687-1.273 1.11-1.892.424-.62.876-1.242 1.267-1.926.391-.677.72-1.436.8-2.261.2-1.67-.767-3.236-.516-4.882.121-.815.526-1.574 1.004-2.283.478-.713 1.036-1.395 1.508-2.16.952-1.538 1.413-3.34 1.76-5.147.356-1.81.608-3.675 1.295-5.436.342-.876.77-1.733 1.349-2.485a6.197 6.197 0 0 1 2.158-1.824l-.192-.107.018.17c.106.979.28 1.938.393 2.893.117.955.157 1.908.111 2.854-.027.467-.056.957-.129 1.396-.102.44-.29.875-.47 1.306-.367.861-.746 1.723-1.009 2.62-.29.891-.374 1.827-.471 2.722-.1.9-.2 1.793-.297 2.677-.2 1.758-.331 3.518-1.047 5.04-.353.757-.822 1.459-1.171 2.224-.36.763-.52 1.603-.561 2.41-.092 1.616.119 3.196-.318 4.626-.434 1.425-1.348 2.614-1.809 3.964-.494 1.365-.29 2.779-.09 4.03.203 1.26.405 2.488.136 3.6-.242 1.125-1.038 1.94-1.542 2.83a3.87 3.87 0 0 0-.52 1.401c-.073.476-.069.936-.087 1.37-.022.432-.047.854-.179 1.217-.131.361-.387.647-.65.881-.546.452-1.127.73-1.64.925-.514.194-.97.301-1.34.364a5.483 5.483 0 0 1-.852.083c-.193-.007-.293-.004-.293-.004" style="fill:#2d5bb2;fill-opacity:1;fill-rule:nonzero;stroke:none;stroke-width:.0606777"/><path d="M45.386 228.168a.503.503 0 0 0-.04.127l-.093.377c-.082.33-.18.827-.338 1.449-.165.62-.544 1.322-.87 2.186-.337.858-.68 1.853-.994 2.97-.32 1.116-.603 2.356-.898 3.685-.306 1.325-.61 2.748-1.34 4.088-.344.68-.73 1.369-1.037 2.122-.314.752-.484 1.576-.603 2.402a48.647 48.647 0 0 1-.902 5.065l-2.367 9.674-1.984 7.89-1.315 5.324-.344 1.452c-.034.153-.062.277-.083.379a.48.48 0 0 0-.02.13.523.523 0 0 0 .046-.124l.109-.372.393-1.439 1.398-5.304 2.04-7.874 2.39-9.677a48.02 48.02 0 0 0 .9-5.086c.116-.82.278-1.614.58-2.344.296-.734.676-1.419 1.02-2.106.736-1.366 1.043-2.831 1.336-4.152.287-1.332.558-2.568.864-3.682a32.99 32.99 0 0 1 .952-2.966c.308-.862.676-1.573.83-2.214.145-.636.225-1.13.29-1.465l.067-.383a.5.5 0 0 0 .013-.132" style="fill:#2d5bb2;fill-opacity:1;fill-rule:nonzero;stroke:none;stroke-width:.0606777"/><path d="M32.897 277.501c2.734-1.624 3.52-6.558 2.379-9.528-1.14-2.97-3.138-5.683-3.445-8.849-.237-2.434.56-4.933-.007-7.311-.765-3.21-3.9-5.696-3.863-8.997.02-1.852 1.074-3.594.99-5.444-.103-2.27-1.844-4.069-2.923-6.067-1.651-3.06-1.76-6.677-2.325-10.108-.564-3.43-1.871-7.104-4.911-8.79-.45 2.913-1.216 4.907-.975 8.853.086 1.417 1.732 4.13 1.956 7.234.134 1.857.227 3.716.34 5.573.11 1.808.228 3.648.876 5.339.496 1.296 1.294 2.473 1.663 3.81.693 2.518-.218 5.244.342 7.794.474 2.161 1.97 4.02 2.275 6.211.43 3.078-1.563 6.275-.543 9.212.506 1.457 1.704 2.626 2.044 4.131.264 1.168-.023 2.403.215 3.575.385 1.89 3.989 3.357 5.913 3.24" style="fill:#2d5bb2;fill-opacity:1;fill-rule:nonzero;stroke:none;stroke-width:.0606777"/><path d="M19.545 215.298a.733.733 0 0 0 .012.165l.062.478c.063.421.133 1.039.275 1.837.153.804.567 1.708.897 2.797.35 1.087.696 2.341 1.003 3.745.313 1.403.573 2.956.848 4.628.283 1.658.572 3.492 1.401 5.231.384.875.814 1.75 1.137 2.682.331.928.483 1.928.577 2.955.141 2.062.416 4.208.802 6.37l2.361 12.166 2.035 9.91 1.395 6.676.393 1.813.109.47c.026.105.041.159.046.158a.727.727 0 0 0-.019-.163l-.083-.477-.343-1.821-1.311-6.694-1.979-9.921-2.34-12.163a60.396 60.396 0 0 1-.804-6.35c-.095-1.032-.254-2.062-.596-3.014-.333-.951-.77-1.83-1.153-2.697-.824-1.714-1.114-3.505-1.408-5.17-.284-1.668-.557-3.225-.882-4.631a39.309 39.309 0 0 0-1.045-3.75c-.348-1.093-.774-1.989-.939-2.772-.155-.784-.244-1.408-.324-1.823l-.088-.475a.774.774 0 0 0-.039-.16" style="fill:#17282f;fill-opacity:1;fill-rule:nonzero;stroke:none;stroke-width:.0606777"/><path d="M121.66 75.395c.004.01-.071.05-.219.118-.146.07-.375.151-.678.213a3.824 3.824 0 0 1-2.567-.382c-.992-.502-1.964-1.667-2.073-3.186-.06-.745.1-1.555.51-2.263a4.002 4.002 0 0 1 1.843-1.673c.797-.346 1.681-.432 2.478-.244.8.17 1.509.596 2.02 1.14 1.054 1.1 1.265 2.603.972 3.676a3.828 3.828 0 0 1-1.44 2.16c-.25.182-.463.298-.613.36-.15.063-.23.091-.234.081-.016-.03.305-.158.772-.539a3.838 3.838 0 0 0 1.297-2.114c.25-1.02.023-2.414-.963-3.422a3.717 3.717 0 0 0-4.16-.809 3.718 3.718 0 0 0-2.192 3.627c.086 1.408.967 2.511 1.89 3.01a3.832 3.832 0 0 0 2.439.457c.595-.09.905-.242.917-.21" style="fill:#f03d5f;fill-opacity:1;fill-rule:nonzero;stroke:none;stroke-width:.0606777"/><path d="M121.634 80.537c.002-.004.031.03.09.1a73 73 0 0 0 .253.32l.992 1.287-.06-.017 3.263-1.48-.046.089-.432-2.122-.011-.055.044-.035a8.765 8.765 0 0 0 1.584-1.682l.037-.05.062.008 2.145.304-.12.071c.402-1.055.828-2.174 1.277-3.348l.046.148-1.803-1.201-.065-.044.008-.08a8.68 8.68 0 0 0-.062-2.3l-.013-.08.066-.05 1.734-1.297-.045.17-1.459-3.274.163.084-2.124.423-.088.017-.058-.07a8.7 8.7 0 0 0-1.665-1.58l-.076-.055.014-.092.311-2.144.098.167-3.345-1.287.186-.06c-.38.57-.791 1.183-1.205 1.8l-.054.08-.095-.01a8.656 8.656 0 0 0-2.291.056h-.001c-.069-.027.15.062-.153-.061l-.001-.002-.002-.004-.005-.006-.01-.014-.021-.028-.041-.054-.081-.11-.163-.218-.325-.436-.645-.866.19.05-3.276 1.453.09-.173.418 2.124.019.093-.073.058a8.636 8.636 0 0 0-1.584 1.662l-.055.076-.091-.014-2.143-.315.162-.095-1.294 3.342-.054-.173 1.797 1.21.071.047-.01.085a8.652 8.652 0 0 0 .052 2.3l.013.082-.067.05-1.74 1.288.043-.158 1.443 3.28-.134-.07 2.126-.411.068-.013.043.053a8.685 8.685 0 0 0 1.665 1.597l.051.038-.01.061-.323 2.142-.059-.1 3.336 1.31-.084.026 1.223-1.788.017-.026.03.004c.781.09 1.368.064 1.753.04l.433-.039c.101-.01.147-.011.145-.008a.858.858 0 0 1-.141.034 6.256 6.256 0 0 1-.432.065 8.43 8.43 0 0 1-1.769.009l.048-.023-1.19 1.81-.03.048-.054-.02-3.353-1.269-.069-.025.011-.075.303-2.145.041.099a8.9 8.9 0 0 1-1.72-1.623l.11.04-2.124.427-.094.018-.04-.088-1.462-3.272-.043-.095.084-.063 1.734-1.298-.054.13a8.914 8.914 0 0 1-.063-2.372l.062.133-1.8-1.203-.096-.065.041-.109 1.284-3.345.043-.112.12.017 2.144.31-.146.062a8.925 8.925 0 0 1 1.637-1.724l-.055.15c-.139-.7-.28-1.409-.42-2.124l-.025-.122.114-.051 3.276-1.455.115-.051.075.101.646.866.325.435.162.219.081.109.041.054.02.028.01.014.006.006.002.004v.001l-.15-.061h.002a8.96 8.96 0 0 1 2.375-.058l-.148.069 1.208-1.8.07-.103.116.045 3.344 1.291.115.044-.018.123-.315 2.143-.062-.146a8.979 8.979 0 0 1 1.72 1.64l-.145-.053 2.125-.416.115-.022.048.107 1.448 3.278.045.103-.09.068c-.606.448-1.2.89-1.74 1.29l.054-.131c.13.82.135 1.639.051 2.371l-.056-.122 1.796 1.211.083.056-.036.092-1.3 3.34-.032.084-.089-.013-2.142-.322.098-.042a8.888 8.888 0 0 1-1.635 1.705l.032-.09.407 2.126.012.064-.058.025c-1.336.58-2.441 1.06-3.288 1.426l-.038.017-.023-.032c-.402-.56-.714-.992-.937-1.301l-.239-.343a.823.823 0 0 1-.078-.123" style="fill:#f03d5f;fill-opacity:1;fill-rule:nonzero;stroke:none;stroke-width:.0606777"/><path d="M121.66 75.395s-.036.013-.112.044c-.074.03-.187.073-.338.118a3.77 3.77 0 0 1-1.37.158c-.599-.04-1.347-.24-2.046-.757-.698-.506-1.312-1.372-1.498-2.461-.191-1.077.126-2.373 1.04-3.314.888-.94 2.397-1.443 3.822-1.035a3.894 3.894 0 0 1 1.884 1.185 3.97 3.97 0 0 1 .945 2.123 3.995 3.995 0 0 1-1.722 3.744 4.8 4.8 0 0 1-.265.171l-.136.08-.066.036-.028.017-.006.003.015-.014c-.018.033.073-.074.02-.17l-.182-.08c.132-.041.3-.125.45-.212 1.408-.8 2.07-2.551 1.712-4.014-.327-1.5-1.589-2.624-2.96-2.871-1.376-.284-2.77.27-3.583 1.205a3.839 3.839 0 0 0-.905 3.22c.198 1.048.793 1.891 1.478 2.385a3.876 3.876 0 0 0 2.017.754 3.76 3.76 0 0 0 1.373-.152c.306-.09.454-.172.46-.163.006.01-.135.112-.44.224-.303.11-.777.243-1.4.214a3.953 3.953 0 0 1-2.115-.734c-.726-.505-1.37-1.379-1.593-2.486-.225-1.094.047-2.43.928-3.436.862-1.005 2.35-1.615 3.838-1.317a4.07 4.07 0 0 1 2.023 1.031 4.11 4.11 0 0 1 1.18 2.053c.392 1.593-.32 3.483-1.853 4.36-.17.097-.333.182-.527.243l-.122.04-.06-.12c-.052-.102.042-.214.028-.186l.03-.027.026-.018.039-.022.067-.039.129-.074a4.527 4.527 0 0 0 .704-.525 3.7 3.7 0 0 0 1.14-3.084c-.09-.728-.4-1.431-.864-1.96a3.618 3.618 0 0 0-1.736-1.105 3.628 3.628 0 0 0-3.561.939 3.65 3.65 0 0 0-1.006 3.097c.162 1.026.729 1.862 1.385 2.356a3.816 3.816 0 0 0 1.951.775c.585.06 1.042-.03 1.344-.098.302-.069.461-.13.465-.1" style="fill:#406fbf;fill-opacity:1;fill-rule:nonzero;stroke:none;stroke-width:.0606777"/><path d="m121.634 80.537 1.311 1.76-.042-.012 3.342-1.484-.033.063c-.13-.653-.273-1.383-.428-2.169l.127.01-.023.063-.104-.074a8.84 8.84 0 0 0 1.61-1.693l.09.113-.07.03-.018-.145 2.206.322-.089.052 1.335-3.468.035.11-1.858-1.245.142-.122.04.086-.185.03a8.814 8.814 0 0 0-.058-2.334l.196.022-.036.092-.157-.121c.546-.409 1.165-.87 1.798-1.342l-.034.13-1.52-3.422.126.066-2.204.436.017-.227.102.037-.133.185a8.875 8.875 0 0 0-1.691-1.606l.184-.146.043.102-.234.03.324-2.23.079.136-3.507-1.35.155-.048-1.253 1.873-.167-.195.103-.048.041.254a8.774 8.774 0 0 0-2.331.06l.021-.005.012-.256.01.003.002.001.004.001-.107.251h-.001l-.002-.001-.005-.002-.008-.004h-.002l.004.001c.01 0-.012.004.051.008l.086-.238-.02-.015-.014-.007h-.001l.035.014.075.03-.16.209-1.349-1.806.168.043-3.435 1.53.082-.158.439 2.209-.277-.021.038-.106.226.163a8.798 8.798 0 0 0-1.601 1.687l-.175-.22.101-.043.036.28-2.227-.322.16-.094-1.343 3.5-.057-.178 1.87 1.247-.222.19-.044-.092.289-.048a8.75 8.75 0 0 0 .061 2.321l-.293-.033.037-.091.234.18-1.793 1.342.049-.187 1.518 3.402-.173-.09 2.19-.438-.023.3-.077-.028.175-.245a8.778 8.778 0 0 0 1.683 1.59l-.237.188-.028-.068.299-.04-.313 2.197-.099-.17 3.436 1.307-.188.06c.383-.58.8-1.208 1.216-1.84l.198.231-.033.015-.05-.3a8.096 8.096 0 0 0 1.985-.037l.163-.022.007.018.01.027.011.014.001.001.001.001c-.048-.006.027.237.085.209l.02.006.034.005h-.002l-.33.032a9.072 9.072 0 0 1-2.033-.013l.149-.068-1.23 1.81-.179-.24.06-.018-.01.298c-1.122-.439-2.234-.874-3.34-1.305l.194-.226.04.07-.29.056.327-2.185.062.15a8.97 8.97 0 0 1-1.769-1.693l.152.055-2.173.423.042-.29.094.048-.215.2-1.444-3.28.289-.022-.028.11-.241-.162 1.785-1.325-.06.147a8.872 8.872 0 0 1-.055-2.467l.066.142-1.847-1.242.227-.17.038.12-.283-.01 1.294-3.34.213.18-.114.066-.053-.273 2.207.325-.14.059a8.887 8.887 0 0 1 1.71-1.792l-.052.14-.429-2.188.266.038-.063.12-.184-.195 3.278-1.45.02.261-.131-.034.146-.218 1.292 1.739-.059-.046.074.03.035.015.005.002-.007-.003-.018-.004-.148.08.056.171.014.007-.007-.003-.005-.002h-.004l-.001-.001.099-.254.004.001.011.005-.064-.01h.001l-.014.002a8.826 8.826 0 0 1 2.413-.048l-.125.058 1.245-1.853.148.198-.13.04.007-.246 3.343 1.292-.154.18-.068-.116.233-.045-.325 2.208-.05-.117a8.845 8.845 0 0 1 1.788 1.701l-.116-.041 2.187-.43-.03.214-.114-.06.157-.147 1.451 3.277-.202.016.032-.118.167.113-1.783 1.327.04-.099c.147.9.143 1.696.059 2.45l-.043-.091 1.844 1.238-.137.104-.032-.104.171.005-1.29 3.344-.117-.1.085-.05.03.15c-.863-.125-1.542-.225-2.188-.32l.07-.03a8.792 8.792 0 0 1-1.667 1.754l.024-.063.426 2.161-.105-.014.032-.062.073.077-3.277 1.453-.005-.065.042.01-.036.055-1.294-1.736c.008-.008.12.129.346.409l1.003 1.285.062.08-.098-.026-.042-.01-.096-.024.09-.041 3.259-1.492.147-.067-.074.144-.032.061-.073.142-.033-.156-.444-2.159-.008-.038.03-.026a8.713 8.713 0 0 0 1.63-1.738l.026-.036.045.006 2.189.306.23.033-.201.117-.084.05-.199.117.082-.216 1.272-3.35.092-.245.08.25.032.103.08.248-.217-.144c-.568-.377-1.155-.766-1.851-1.23l-.049-.032.006-.058c.08-.74.08-1.516-.068-2.397l-.011-.06.05-.038 1.778-1.334.245-.184-.077.297-.03.119-.078.295-.125-.279-1.463-3.272-.134-.298.29.15.114.06.29.149-.32.064c-.694.14-1.402.28-2.186.437l-.07.014-.045-.056a8.646 8.646 0 0 0-1.746-1.651l-.06-.043.011-.074.318-2.208.051-.355.181.31.069.116.18.31-.333-.13-3.347-1.283-.348-.133.356-.113.13-.042.355-.112-.208.31c-.4.601-.808 1.21-1.24 1.857l-.045.067-.081-.009a8.602 8.602 0 0 0-2.33.05l-.011.002h-.004l-.033.004-.03-.013-.008-.003.025-.066.007-.012.052-.13.019-.044h.002l.005.002.01.004.004.001.015.008.056.172-.148.08-.018-.004-.012-.005-.005-.002-.035-.014-.074-.03-.035-.014-.023-.031-1.296-1.735-.236-.317.382.1.134.034.383.1-.363.162-3.274 1.456-.371.165.187-.36.062-.122.187-.361.08.4.432 2.188.017.086-.068.054a8.602 8.602 0 0 0-1.653 1.739l-.05.071-.09-.012-2.207-.322-.417-.062.364-.213.113-.066.365-.214-.152.395-1.29 3.343-.154.4-.13-.408-.038-.12-.13-.411.357.24 1.85 1.241.076.051-.011.092a8.577 8.577 0 0 0 .055 2.385l.015.091-.074.056-1.785 1.326-.351.262.11-.424.03-.11.112-.428.177.403 1.448 3.28.178.404-.392-.204-.093-.048-.396-.206.437-.085 2.173-.424.094-.018.058.074a8.646 8.646 0 0 0 1.71 1.635l.077.055-.014.095-.327 2.185-.065.442-.226-.386-.04-.07-.229-.39.422.164 3.338 1.304.417.162-.427.135-.059.019-.433.137.255-.377 1.23-1.809.054-.08.095.012a8.948 8.948 0 0 0 1.968.012l.34-.033h.02l.046.005.02.007c.059-.028.134.215.085.21h-.002l-.004.003-.03.023-.073.045-.158.053-.17.023a8.4 8.4 0 0 1-2.063.04l-.574-.057.522-.244.034-.015.507-.237-.309.467c-.417.63-.832 1.26-1.217 1.84l-.07.105-.117-.045-3.436-1.308-.117-.045.017-.124.315-2.196.08-.56.22.521.029.069.216.514-.453-.325a9.108 9.108 0 0 1-1.742-1.65l-.353-.437.528.193.077.028.523.19-.546.11-2.19.437-.121.024-.051-.114-1.516-3.402-.05-.113.099-.074 1.793-1.339.44-.33-.206.51-.037.091-.206.506-.088-.539a9.057 9.057 0 0 1-.06-2.402l.06-.54.228.492.043.093.229.492-.45-.302-1.868-1.25-.1-.067.043-.112c.467-1.213.93-2.412 1.347-3.498l.043-.111.117.017 2.227.325.52.076-.484.204-.102.043-.48.202.304-.423a9.054 9.054 0 0 1 1.657-1.741l.404-.323-.178.485-.038.105-.177.484-.1-.505-.435-2.21-.023-.112.105-.047 3.437-1.522.102-.045.066.09 1.343 1.806.292.394-.452-.184-.074-.031-.036-.015-.011-.004-.013-.007-.02-.016.085-.237c.063.005.041.007.052.009h.006l.002.002.008.004.005.002h.002l-.012.027-.065.16.007-.013-.033.079v-.001l-.007-.003-.357-.146.369-.11.01-.003.012-.002a9.04 9.04 0 0 1 2.397-.055l.473.053-.432.2-.103.048-.434.201.267-.396 1.258-1.87.058-.087.097.038 3.505 1.358.094.035-.015.1-.33 2.228-.065.433-.17-.403-.042-.102-.17-.403.354.257a9.076 9.076 0 0 1 1.733 1.655l.263.33-.396-.145-.102-.037-.398-.146.416-.081 2.206-.428.09-.018.037.083 1.508 3.428.035.079-.07.05-1.803 1.335-.296.219.139-.34.037-.091.14-.341.057.363c.13.835.132 1.663.049 2.388l-.04.345-.145-.315-.04-.086-.147-.318.29.196c.652.443 1.287.872 1.851 1.254l.062.041-.028.069-1.353 3.46-.024.062-.064-.01c-.78-.12-1.524-.233-2.204-.336l-.266-.04.247-.103.07-.029.248-.104-.159.217a8.915 8.915 0 0 1-1.647 1.71l-.186.146.082-.221.023-.064.083-.224.044.235.41 2.171.009.046-.042.017-3.36 1.444-.026.012-.016-.023-.952-1.338-.233-.342c-.051-.084-.069-.12-.069-.12" style="fill:#406fbf;fill-opacity:1;fill-rule:nonzero;stroke:none;stroke-width:.0606777"/><path d="M118.5 50.819a2.588 2.588 0 1 0-2.1-4.732 2.588 2.588 0 0 0 2.1 4.732m-.018 3.462a5.918 5.918 0 0 1-1.572.039l-.812 1.21-2.252-.867.21-1.443a5.929 5.929 0 0 1-1.14-1.084l-1.43.282-.978-2.205 1.169-.872a5.92 5.92 0 0 1-.039-1.573l-1.211-.811.868-2.252 1.443.211a5.893 5.893 0 0 1 1.084-1.14l-.282-1.43 2.206-.98.87 1.17a5.924 5.924 0 0 1 1.573-.039l.813-1.21 2.251.867-.21 1.443c.42.306.805.668 1.14 1.084l1.43-.282.978 2.206-1.169.87a5.87 5.87 0 0 1 .038 1.574l1.212.812-.868 2.25-1.443-.21a5.907 5.907 0 0 1-1.084 1.14l.282 1.43-2.205.98-.872-1.17" style="fill:#90b4e3;fill-opacity:1;fill-rule:nonzero;stroke:none;stroke-width:.0606777"/><path d="M118.5 50.819s-.198.126-.607.21c-.4.083-1.046.093-1.715-.264a2.604 2.604 0 0 1-.91-.81 2.65 2.65 0 0 1 3.494-3.812 2.652 2.652 0 0 1 1.265 1.701c.103.432.078.855-.01 1.218a2.573 2.573 0 0 1-.955 1.45c-.337.245-.563.307-.563.307-.01-.016.208-.099.527-.353.312-.25.724-.718.888-1.428a2.525 2.525 0 0 0-.65-2.33 2.382 2.382 0 0 0-.573-.442 2.534 2.534 0 0 0-2.263-.112 2.538 2.538 0 0 0-1.434 1.752 2.537 2.537 0 0 0 1.234 2.767c.636.355 1.26.363 1.655.3.402-.066.61-.171.616-.154" style="fill:#90b4e3;fill-opacity:1;fill-rule:nonzero;stroke:none;stroke-width:.0606777"/><path d="M145.802 58.853a5.003 5.003 0 1 0-4.058-9.146 5.003 5.003 0 0 0 4.058 9.146zm-.032 6.69a11.426 11.426 0 0 1-3.039.074l-1.57 2.341-4.35-1.677.407-2.789a11.385 11.385 0 0 1-2.203-2.095l-2.764.546-1.89-4.262 2.259-1.684a11.374 11.374 0 0 1-.074-3.039l-2.341-1.57 1.676-4.35 2.789.407a11.435 11.435 0 0 1 2.095-2.203l-.545-2.763 4.262-1.892 1.683 2.26a11.426 11.426 0 0 1 3.04-.075l1.569-2.341 4.351 1.677-.408 2.79c.815.59 1.557 1.291 2.204 2.094l2.763-.545 1.891 4.262-2.259 1.683c.162 1.017.184 2.04.074 3.04l2.341 1.57-1.677 4.35-2.789-.408a11.4 11.4 0 0 1-2.094 2.203l.545 2.764-4.263 1.89-1.683-2.258" style="fill:#406fbf;fill-opacity:1;fill-rule:evenodd;stroke:none;stroke-width:.0606777"/><path d="M117.412 51.077c-.358 0-.792-.075-1.235-.312a2.605 2.605 0 0 1-.911-.81 2.65 2.65 0 0 1 2.752-4.1 2.5 2.5 0 0 1 .744.288 2.651 2.651 0 0 1 1.333 2.278c0 .227-.03.443-.078.641a2.573 2.573 0 0 1-.955 1.45c-.337.245-.563.307-.563.307s-.197.126-.607.21a2.384 2.384 0 0 1-.48.048m-2.483-2.628a2.536 2.536 0 0 0 1.298 2.224 2.59 2.59 0 0 0 1.655.3c.373-.06.578-.156.612-.156.002 0 .005 0 .005.002-.002-.018.213-.103.527-.353a2.583 2.583 0 0 0 .953-2.006 2.545 2.545 0 0 0-1.288-2.193 2.379 2.379 0 0 0-.705-.27 2.351 2.351 0 0 0-.528-.058c-.346 0-.7.073-1.03.215a2.538 2.538 0 0 0-1.5 2.295" style="fill:#90b4e3;fill-opacity:1;fill-rule:nonzero;stroke:none;stroke-width:.0606912"/><path d="m88.929 59.77-.026-.01-2.255-.858-.033-.012.005-.035c.063-.438.13-.901.202-1.415a5.98 5.98 0 0 1-1.108-1.047l-1.398.28-.045.008-.018-.041c-.312-.697-.637-1.429-.983-2.204l-.02-.045.04-.03 1.135-.85a6.004 6.004 0 0 1-.039-1.51c-.386-.26-.779-.522-1.179-.79l-.045-.03.019-.052.866-2.251.02-.053.056.008c.46.067.927.134 1.4.204.294-.401.643-.77 1.037-1.092l-.274-1.387-.012-.058.053-.023 2.206-.98.054-.024.036.047.434.584.219.293.109.147.055.073.027.037a5.924 5.924 0 0 1 1.503-.037l.788-1.174.033-.049.055.021 2.251.87.054.02-.008.058-.206 1.4c.42.309.792.67 1.09 1.039l1.39-.273.054-.01.022.05.976 2.207.022.049-.043.031-1.14.846a5.898 5.898 0 0 1 .035 1.515l1.18.793.038.027-.017.043c-.306.79-.598 1.54-.872 2.25l-.016.039-.042-.006-1.413-.21a5.982 5.982 0 0 1-1.059 1.104l.272 1.406.006.03-.028.012-2.21.965-.018.008-.011-.015-.637-.875-.162-.228-.054-.08a4.189 4.189 0 0 1-.386.06 5.673 5.673 0 0 1-1.174.003l-.797 1.205-.014.022m-2.217-.936 2.19.855.806-1.185.008-.011.014.001a6.061 6.061 0 0 0 1.183.022l.291-.028a.997.997 0 0 1 .097-.009l.058.07.17.218.65.852 2.156-.97-.282-1.4-.005-.026.02-.017c.381-.309.75-.687 1.072-1.135l.017-.024.03.004 1.401.201.832-2.17c-.366-.244-.766-.51-1.175-.785l-.03-.02.004-.037a5.865 5.865 0 0 0-.04-1.556l-.007-.038.03-.023 1.126-.841-.937-2.106-1.376.273-.042.008-.027-.033a5.885 5.885 0 0 0-1.127-1.07l-.035-.026.006-.043.202-1.386-2.143-.825-.78 1.163-.024.037L91 46.77a5.821 5.821 0 0 0-1.552.038l-.008-.003-.064-.027-.001-.001-.002-.002-.004-.005-.007-.009-.014-.018-.027-.037-.055-.074-.11-.147-.218-.293-.399-.535-2.098.93.27 1.373.008.043-.034.028c-.41.329-.77.71-1.072 1.125l-.025.035-.043-.006-1.387-.204-.83 2.147 1.165.784.034.022-.005.04a5.838 5.838 0 0 0 .036 1.555l.005.04-.031.022-1.13.84.935 2.121 1.386-.27.032-.007.02.026c.348.434.73.788 1.128 1.078l.023.018-.005.028-.21 1.409m2.704-12.176a.1.1 0 0 0 .013.005l-.013-.005m.03.15" style="fill:#90b4e3;fill-opacity:1;fill-rule:nonzero;stroke:none;stroke-width:.0606777"/><path d="m116.635 42.612-.01-.004h.004a.031.031 0 0 1 .007.004M116.624 42.608" style="fill:#f57797;fill-opacity:1;fill-rule:nonzero;stroke:none;stroke-width:.0606777"/><path d="m160.096 123.797.736-.131s5.765 1.91 5.637.79c-.17-1.481-5.414-2.866-5.918-2.894-.838-.046-5.82.385-6.53.748S149 126.708 149 126.708l5.174 5.642s1.424.183 3.354-1.395c.98-.8 2.437-2.223 2.437-2.223s-.058-.413.074-.567c.39-.457.122-.756.122-.756.38-.096.718-.44.734-.74.01-.183.005-.413-.126-.54-.325-.316-.472-.269-.472-.269s.784-.222.947-.902c.16-.663-.8-.995-.8-.995" style="fill:#c0776a;fill-opacity:1;fill-rule:nonzero;stroke:none;stroke-width:.0606777"/><path d="M166.349 124.717c.005.039-.484.142-1.286.107a7.346 7.346 0 0 1-1.394-.205c-.501-.155-1.047-.34-1.62-.533l-1.217-.42.076.007c-1.765.276-3.051.43-3.064.36-.012-.072 1.253-.346 3.016-.663l.036-.007.04.014 1.21.403 1.598.552c.494.138.95.218 1.338.264.773.093 1.264.07 1.267.12" style="fill:#b85549;fill-opacity:1;fill-rule:nonzero;stroke:none;stroke-width:.0606777"/><path d="M159.703 124.09c-.674.517-1.227.94-1.9 1.458-.22.168-.444.342-.58.581-.136.24-.162.564.01.778.14.172.38.238.6.218.22-.02.426-.114.624-.214.715-.361 1.59-.806 2.25-1.26" style="fill:#c0776a;fill-opacity:1;fill-rule:nonzero;stroke:none;stroke-width:.0606777"/><path d="M160.842 125.566c.019.032-.363.313-1.002.745a7.522 7.522 0 0 1-1.193.671c-.241.098-.49.203-.79.25a1.147 1.147 0 0 1-.475-.018.66.66 0 0 1-.417-.33c-.168-.346-.028-.716.162-.945.195-.237.413-.392.61-.555.398-.32.766-.593 1.081-.817.628-.448 1.052-.677 1.072-.644.02.032-.36.314-.954.8l-1.038.857c-.19.166-.405.332-.559.527-.155.187-.227.453-.129.651.096.197.36.243.61.206.248-.034.5-.13.73-.218.461-.183.854-.412 1.187-.6.662-.388 1.085-.614 1.105-.58" style="fill:#b85549;fill-opacity:1;fill-rule:nonzero;stroke:none;stroke-width:.0606777"/><path d="M160.15 126.07s.588-.553.833-.51c.244.042.605.079.74.552.113.398-.052.536-.765 1.29" style="fill:#c0776a;fill-opacity:1;fill-rule:nonzero;stroke:none;stroke-width:.0606777"/><path d="m160.15 126.07-1.564 1.265c-.18.146-.365.297-.478.504-.113.206-.137.485.004.667.113.146.309.201.488.182.18-.019.35-.101.512-.188.587-.315 1.305-.703 1.847-1.098" style="fill:#c0776a;fill-opacity:1;fill-rule:nonzero;stroke:none;stroke-width:.0606777"/><path d="M161.7 126.534c.027.012-.17.449-.727.957a6.127 6.127 0 0 1-1.061.77 6.173 6.173 0 0 1-.694.35c-.248.097-.517.224-.853.202a.6.6 0 0 1-.454-.25.658.658 0 0 1-.089-.487c.06-.323.285-.53.465-.692.37-.323.715-.593 1.009-.816.587-.446.987-.676 1.009-.642.02.03-.334.311-.887.794-.275.24-.606.527-.96.853-.172.159-.337.339-.37.55-.039.22.07.403.302.414.231.02.485-.082.724-.176a7.238 7.238 0 0 0 1.732-1.018c.567-.451.815-.836.854-.81" style="fill:#b85549;fill-opacity:1;fill-rule:nonzero;stroke:none;stroke-width:.0606777"/><path d="M150.944 127.856c.336.457 1.026.49 1.559.294.533-.197.982-.57 1.5-.804 1.546-.702 3.468-.101 4.979-.877.21-.108.436-.308.376-.537-.057-.212-.316-.284-.532-.319l-5.55-.915" style="fill:#c0776a;fill-opacity:1;fill-rule:nonzero;stroke:none;stroke-width:.0606777"/><path d="M153.275 124.698c.004-.022.22-.007.61.037.39.045.952.12 1.646.22l2.433.366.702.11c.22.052.53.022.78.322.116.156.093.396-.007.532a.974.974 0 0 1-.346.305c-.25.126-.504.23-.774.296-1.084.272-2.119.163-3.019.276-.45.05-.868.143-1.231.3-.363.158-.682.373-.996.54-.619.368-1.277.417-1.657.255-.394-.156-.486-.403-.472-.402.022-.023.147.18.51.284.362.107.927.04 1.507-.334.297-.173.61-.402 1-.585.388-.183.836-.292 1.304-.352.935-.13 1.97-.037 2.972-.292.248-.06.486-.16.701-.265.206-.11.331-.288.247-.381-.075-.117-.33-.16-.568-.196l-.7-.121-2.423-.435a60.384 60.384 0 0 1-1.629-.32c-.383-.083-.593-.138-.59-.16" style="fill:#b85549;fill-opacity:1;fill-rule:nonzero;stroke:none;stroke-width:.0606777"/><path d="M160.526 127.812s.436-.41.616-.378c.181.03.45.059.549.41.084.294-.038.396-.566.956M160.526 127.812c-.412.333-.748.606-1.16.937-.133.109-.27.22-.354.374-.084.154-.102.36.001.495.083.108.229.149.362.135.134-.014.26-.075.38-.14.434-.233.967-.521 1.369-.813" style="fill:#c0776a;fill-opacity:1;fill-rule:nonzero;stroke:none;stroke-width:.0606777"/><path d="M161.674 128.156c.03.014-.11.344-.522.729a4.413 4.413 0 0 1-.786.58c-.16.093-.331.183-.517.263-.185.072-.386.17-.649.153a.48.48 0 0 1-.364-.2.526.526 0 0 1-.07-.387c.048-.254.222-.411.356-.532.287-.226.55-.42.77-.582.444-.324.727-.506.748-.475.021.032-.222.27-.628.629l-.719.617c-.126.118-.24.247-.261.389-.021.152.04.254.192.266.159.013.345-.059.52-.128a5.573 5.573 0 0 0 1.28-.741c.422-.327.613-.605.65-.581M156.113 129.781c-.078-.022.08-.606-.135-1.28-.198-.679-.654-1.074-.603-1.136.028-.07.635.28.867 1.056.241.773-.067 1.402-.13 1.36" style="fill:#b85549;fill-opacity:1;fill-rule:nonzero;stroke:none;stroke-width:.0606777"/><path d="M111.715 120.66c-2.67-1.363-5.307-1.672-8.184-1.755-3.351-.098-8.074-.567-11.685-.183 0 0-11.351.889-11.4 9.417l1.803 31.508-2.355 14.03 32.968.995-.236-16.551c.106 7.426-.255-16.07-.138-22.346.508-4.63 2.716-5.175 3.076-8.186.318-2.66-1.462-5.709-3.849-6.928" style="fill:#33535f;fill-opacity:1;fill-rule:nonzero;stroke:none;stroke-width:.0606777"/><path d="M104.88 119.121s5.013-.087 8.308 1.532c3.296 1.619 21.339 12.686 21.339 12.686l13.86-7.683 7.332 6.868-15.897 10.496a10.955 10.955 0 0 1-10.46.994l-17.927-7.117-6.554-17.776" style="fill:#33535f;fill-opacity:1;fill-rule:nonzero;stroke:none;stroke-width:.0606777"/><path d="M112.488 130.59c.088 0 .174 4.897.193 10.938.019 6.043-.037 10.94-.124 10.94s-.174-4.896-.192-10.939c-.02-6.04.036-10.939.123-10.94M70.44 260.003l-3.122 12.387-5.295 9.086a1.309 1.309 0 0 0 1.75 1.813c2.377-1.282 11.098-6.044 11.275-6.964.206-1.064 4.16-12.847 4.16-12.847l-8.769-3.476" style="fill:#17282f;fill-opacity:1;fill-rule:nonzero;stroke:none;stroke-width:.0606777"/><path d="M63.184 283.459c-.21 0-.42-.05-.61-.15.184.09.383.136.582.136.212 0 .423-.052.616-.156 1.728-.932 6.81-3.704 9.524-5.5h.033c-1.527.976-4.42 2.73-9.52 5.51-.195.107-.41.16-.625.16M73.73 277.53h-.05c.546-.376.962-.696 1.186-.931a1.944 1.944 0 0 1-.523.524c-.159.107-.36.243-.612.407" style="fill:#fff;fill-opacity:1;fill-rule:nonzero;stroke:none;stroke-width:.0606777"/><path d="m73.66 277.543.02-.012h.05l-.02.012h-.05" style="fill:#f0f0ee;fill-opacity:1;fill-rule:nonzero;stroke:none;stroke-width:.0606777"/><path d="M73.33 277.788h-.034c.127-.084.249-.166.365-.245h.05l-.381.245" style="fill:#9ba6a6;fill-opacity:1;fill-rule:nonzero;stroke:none;stroke-width:.0606777"/><path d="M75.084 276.17c.041-.155.107-.386.194-.675l-.144.522c-.015.052-.03.104-.05.154" style="fill:#fff;fill-opacity:1;fill-rule:nonzero;stroke:none;stroke-width:.0606777"/><path d="M63.156 283.445c-.199 0-.398-.046-.582-.136l12.704-7.814c-.087.29-.153.52-.194.676a1.947 1.947 0 0 1-.218.428c-.224.235-.64.555-1.186.931l-.02.012c-.115.08-.237.162-.364.246-2.714 1.797-7.796 4.568-9.524 5.5a1.294 1.294 0 0 1-.616.156M74.088 272.284c-.315 0-.63-.215-.723-.52-.105-.348.089-.755.415-.911a.515.515 0 0 1 .276-.074c.297 0 .628.207.744.476.153.357-.139.875-.508.996a.652.652 0 0 1-.204.033" style="fill:#406fbf;fill-opacity:1;fill-rule:nonzero;stroke:none;stroke-width:.0606777"/><path d="M66.875 278.707c-.079.014-.178-.707-.814-1.257-.62-.567-1.348-.583-1.343-.662-.002-.033.18-.086.48-.047a2.04 2.04 0 0 1 1.05.5c.345.309.547.693.618.984.074.293.043.48.01.482M65.543 280.113c-.074.037-.358-.473-.944-.831-.58-.371-1.162-.405-1.16-.487-.018-.073.646-.17 1.308.249.666.413.87 1.054.796 1.07M69.092 277.045c-.074.042-.508-.744-1.37-1.381-.853-.65-1.729-.848-1.709-.93-.002-.072.96.01 1.877.706.924.686 1.272 1.586 1.202 1.605M70.356 273.358c-.054.065-.655-.407-1.531-.684-.873-.288-1.637-.258-1.642-.342-.017-.069.79-.233 1.728.075.941.3 1.5.905 1.445.951M71.364 269.745c-.057.06-.628-.539-1.574-.755-.943-.236-1.722.039-1.747-.04-.012-.032.165-.15.494-.235a2.8 2.8 0 0 1 1.318.004c.508.122.924.37 1.176.594.254.226.36.411.333.433M70.001 268.309c-.015-.005.003-.178.112-.47a3.36 3.36 0 0 1 .707-1.118c.197-.193.417-.448.806-.515a.528.528 0 0 1 .54.27c.1.2.09.414.041.61-.23.779-1.11 1.35-2.02 1.218a2.144 2.144 0 0 1-1.732-1.643c-.028-.196-.022-.425.131-.607.152-.184.426-.198.594-.119.35.156.523.43.694.646.33.459.493.89.576 1.189.082.301.088.475.071.478-.052.02-.143-.69-.805-1.547-.17-.202-.363-.451-.62-.549-.124-.048-.249-.028-.323.063-.074.087-.091.249-.063.405.143.633.748 1.294 1.519 1.407.766.118 1.538-.385 1.729-1.01.043-.15.045-.314-.011-.426a.284.284 0 0 0-.296-.154c-.266.03-.499.244-.69.424-.769.76-.909 1.475-.96 1.448M112.219 261.632l-.69 10.407s10.359 3.438 10.42 5.374l-20.24.146.41-16.26 10.1.333" style="fill:#17282f;fill-opacity:1;fill-rule:nonzero;stroke:none;stroke-width:.0606777"/><path d="M105.47 272.517c-.353 0-.699-.268-.768-.618-.073-.373.17-.775.526-.903a.521.521 0 0 1 .23-.051c.327 0 .688.264.786.574.123.387-.233.895-.63.983a.658.658 0 0 1-.145.015" style="fill:#406fbf;fill-opacity:1;fill-rule:nonzero;stroke:none;stroke-width:.0606777"/><path d="m106.296 277.526 15.652-.113c-.01-.29-.247-.612-.647-.952a1.4 1.4 0 0 1 .745 1.06c-5.37 0-10.63.003-15.75.004" style="fill:#fff;fill-opacity:1;fill-rule:nonzero;stroke:none;stroke-width:.0606777"/><path d="M122.051 277.56H101.71l4.586-.034 15.75-.005.006.039" style="fill:#9ba6a6;fill-opacity:1;fill-rule:nonzero;stroke:none;stroke-width:.0606777"/><path d="m101.71 277.56.042-1.64 19.546.54h.004c.4.34.638.663.647.953l-15.652.113-4.586.033" style="fill:#406fbf;fill-opacity:1;fill-rule:nonzero;stroke:none;stroke-width:.0606777"/><path d="M111.861 271.947c-.007.098-.502.128-.997.43-.504.291-.767.711-.857.67-.09-.023.075-.608.682-.965.602-.361 1.196-.225 1.172-.136M113.956 272.888c.02.097-.413.252-.761.66-.36.397-.458.846-.557.839-.093.012-.144-.569.298-1.067.438-.502 1.02-.526 1.02-.432M115.084 275.464c-.09.018-.213-.48.057-1.013.266-.535.739-.735.778-.65.053.082-.256.363-.47.804-.226.437-.267.852-.365.859M111.755 269.558c-.044.088-.493-.062-1.053-.041-.56.01-1 .184-1.048.098-.056-.073.38-.426 1.039-.442.659-.02 1.113.309 1.062.385M111.855 267.455c0 .04-.392.09-1.013-.036a4.59 4.59 0 0 1-1.622-.684c-.091-.062-.2-.126-.299-.247-.106-.106-.16-.37-.029-.527a.541.541 0 0 1 .44-.213c.149 0 .269.034.378.065a3.586 3.586 0 0 1 1.538.876c.457.449.606.822.571.84-.045.032-.264-.284-.731-.657a4.055 4.055 0 0 0-.888-.537 3.808 3.808 0 0 0-.576-.197c-.212-.063-.395-.07-.453.024-.021.036-.024.05.019.114.045.06.13.12.22.181a5.535 5.535 0 0 0 1.494.727c.574.179.955.218.951.271" style="fill:#17282f;fill-opacity:1;fill-rule:nonzero;stroke:none;stroke-width:.0606777"/><path d="M111.722 267.593c-.035.014-.22-.346-.237-.987a3.29 3.29 0 0 1 .448-1.712c.125-.196.278-.46.662-.492.2 0 .362.16.414.296.063.138.073.257.093.374a2.328 2.328 0 0 1-.484 1.715c-.412.513-.827.619-.835.585-.031-.05.32-.231.637-.725.156-.245.299-.567.35-.942a2.093 2.093 0 0 0-.002-.587c-.025-.215-.1-.39-.182-.371-.1-.005-.276.151-.364.32a3.39 3.39 0 0 0-.267.542 3.67 3.67 0 0 0-.227 1.005c-.046.593.049.965-.006.979" style="fill:#17282f;fill-opacity:1;fill-rule:nonzero;stroke:none;stroke-width:.0606777"/><path d="m112.22 171.22-30.836-.232-14.9 97.868 12.796 1.624 16.402-80.47 4.909 80.756.012.24 13.84-.241-2.223-99.545" style="fill:#00005b;fill-opacity:1;fill-rule:nonzero;stroke:none;stroke-width:.0606777"/><path d="M108.6 169.843c.006.02-.32.142-.917.344-.594.209-1.472.461-2.567.727a37.328 37.328 0 0 1-3.895.719 41.73 41.73 0 0 1-4.841.32 41.713 41.713 0 0 1-4.844-.293 37.117 37.117 0 0 1-3.9-.697c-1.096-.26-1.975-.507-2.57-.712-.599-.199-.925-.318-.919-.339.007-.02.347.06.953.22.605.169 1.488.383 2.585.613 1.097.236 2.415.452 3.885.626 1.473.157 3.1.265 4.81.267a45.714 45.714 0 0 0 4.805-.295 43.12 43.12 0 0 0 3.881-.647 43.536 43.536 0 0 0 2.582-.627c.606-.165.945-.247.952-.226M91.663 99.373c-.412-1.115-.828-2.24-1.014-3.414-.185-1.174-.129-2.417.373-3.495.502-1.079 1.497-1.965 2.673-2.14.727-.108 1.49.05 2.19-.172.81-.256 1.378-.962 2.024-1.513a6.192 6.192 0 0 1 3.633-1.453c.696-.04 1.418.048 2.025.39.606.343 1.077.976 1.095 1.672.825-.233 1.661-.47 2.518-.481.858-.013 1.753.225 2.367.824.614.598.867 1.602.446 2.349.718-.37 1.685-.01 2.082.694.397.706.256 1.64-.242 2.277-.5.637-1.613 1.173-2.42 1.244-.805.071-1.74.105-2.494-.19" style="fill:#17282f;fill-opacity:1;fill-rule:nonzero;stroke:none;stroke-width:.0606777"/><path d="M97.843 125.59c3.586.36 6.672-2.512 6.575-6.114-.053-1.931-.094-3.58-.085-3.815 0 0 4.81-.517 5.095-5.289.284-4.772-.026-15.774-.026-15.774a16.612 16.612 0 0 0-16.772 1.308l-.733.511.565 23.367a5.98 5.98 0 0 0 5.38 5.806" style="fill:#c0776a;fill-opacity:1;fill-rule:nonzero;stroke:none;stroke-width:.0606777"/><path d="M104.344 115.592s-3.029.103-6.14-2.063c0 0 1.309 3.505 6.093 3.3l.047-1.237" style="fill:#b85549;fill-opacity:1;fill-rule:nonzero;stroke:none;stroke-width:.0606777"/><path d="M92.251 101.39c-.08-.038-3.234-1.124-3.284 2.144-.05 3.27 3.242 2.645 3.25 2.551.006-.093.034-4.694.034-4.694" style="fill:#c0776a;fill-opacity:1;fill-rule:nonzero;stroke:none;stroke-width:.0606777"/><path d="M91.237 104.832c-.015-.01-.058.038-.154.082a.566.566 0 0 1-.426 0c-.344-.132-.627-.684-.633-1.274a1.88 1.88 0 0 1 .171-.813c.104-.238.261-.402.436-.43a.29.29 0 0 1 .333.16c.043.093.02.158.038.163.009.008.07-.053.047-.188a.365.365 0 0 0-.125-.207.432.432 0 0 0-.314-.088c-.253.013-.483.242-.603.498a1.937 1.937 0 0 0-.211.908c.01.659.339 1.28.809 1.424a.605.605 0 0 0 .522-.078c.102-.08.12-.153.11-.158" style="fill:#b85549;fill-opacity:1;fill-rule:nonzero;stroke:none;stroke-width:.0606777"/><path d="M109.57 96.075s-3.246.924-6.948-.682c-2.429-1.054-5.217-1.484-5.8-.976-.582.508-.58 2.953-2.886 3.79 0 0 .61 6.887-1.255 6.887-1.371 0-1.288-9.643-1.288-9.643l4.418-2.459 4.9-1.2 4.639-.248 4.382 1.094-.162 3.437M108.276 101.647c.014.368-.288.683-.672.704-.384.02-.707-.26-.72-.63-.012-.367.288-.683.673-.704.384-.02.706.261.72.63M108.428 100.863c-.086.09-.614-.301-1.365-.299-.75-.01-1.302.378-1.383.286-.04-.04.048-.205.288-.38a1.91 1.91 0 0 1 1.107-.341c.468.002.86.175 1.087.35.231.178.31.342.266.384" style="fill:#17282f;fill-opacity:1;fill-rule:nonzero;stroke:none;stroke-width:.0606777"/><path d="M100.922 101.823c.013.368-.288.683-.673.704-.383.02-.706-.26-.719-.629-.013-.369.288-.683.672-.705.385-.02.707.262.72.63M101.048 101.002c-.087.091-.617-.3-1.367-.298-.75-.008-1.301.378-1.383.285-.04-.04.048-.204.289-.379a1.914 1.914 0 0 1 1.106-.341 1.85 1.85 0 0 1 1.088.35c.23.178.309.343.267.383M103.773 106.571c-.004-.042.463-.123 1.22-.22.191-.02.372-.058.405-.189.045-.138-.035-.344-.128-.568l-.567-1.46c-.788-2.08-1.358-3.788-1.274-3.82.084-.03.79 1.63 1.578 3.709l.544 1.469c.072.218.197.465.099.752a.482.482 0 0 1-.315.28c-.123.038-.231.04-.326.046-.761.04-1.234.044-1.236.001M101.563 107.09c.122-.006.124.809.82 1.387.697.58 1.567.49 1.573.603.01.051-.194.159-.56.168a2.033 2.033 0 0 1-1.313-.457c-.425-.355-.608-.828-.635-1.162-.032-.341.059-.543.115-.538M101.241 98.06c-.074.204-.824.107-1.704.213-.884.088-1.594.346-1.711.163-.052-.087.071-.279.359-.477.284-.198.739-.385 1.268-.444.53-.058 1.013.026 1.334.157.323.13.486.29.454.387M108.153 98.689c-.132.17-.65-.006-1.272-.014-.622-.031-1.148.114-1.27-.065-.053-.086.03-.257.26-.418.227-.161.607-.293 1.034-.28.427.013.798.168 1.014.343.22.175.292.35.234.434" style="fill:#17282f;fill-opacity:1;fill-rule:nonzero;stroke:none;stroke-width:.0606777"/><path d="M37.54 184.187h90.19v-36.634H37.54Z" style="fill:#fff;fill-opacity:1;fill-rule:nonzero;stroke:none;stroke-width:.0606777"/><path d="M127.73 184.187s-.006-.225-.01-.654l-.01-1.901c-.007-1.672-.015-4.127-.026-7.29l-.054-26.788.1.1-90.184.042h-.006l.143-.142-.006 36.633-.137-.136 64.664.064 18.759.038 5.021.017 1.3.008c.292.001.446.008.446.008s-.142.007-.43.008l-1.283.008c-1.14.004-2.818.008-4.993.017l-18.727.038-64.757.065h-.137v-.137l-.006-36.634v-.143h.149l90.184.043h.1v.1c-.023 11.346-.04 20.513-.054 26.85l-.024 7.268c-.005.823-.008 1.452-.012 1.882-.004.423-.011.634-.011.634" style="fill:#406fbf;fill-opacity:1;fill-rule:nonzero;stroke:none;stroke-width:.0606777"/><path d="M37.63 152.494c0-.08 20.16-.143 45.022-.143 24.871 0 45.027.064 45.027.143 0 .079-20.156.142-45.027.142-24.862 0-45.021-.063-45.021-.142" style="fill:#406fbf;fill-opacity:1;fill-rule:nonzero;stroke:none;stroke-width:.0606777"/><path d="M40.752 150.939a.654.654 0 1 1 0-1.31.654.654 0 0 1 0 1.31M42.995 150.939a.655.655 0 1 1 0-1.31.655.655 0 0 1 0 1.31M45.206 150.939a.655.655 0 1 1 0-1.31.655.655 0 0 1 0 1.31" style="fill:#f9b2c4;fill-opacity:1;fill-rule:nonzero;stroke:none;stroke-width:.0606777"/><path d="M45.206 180.233H66.99v-21.785H45.206Z" style="fill:#f03d5f;fill-opacity:1;fill-rule:nonzero;stroke:none;stroke-width:.0606777"/><path d="M45.206 180.233H66.99v-21.785H45.206Z" style="fill:#b8d2ef;fill-opacity:1;fill-rule:nonzero;stroke:none;stroke-width:.0606777"/><path d="M121.49 164.285c0 .08-11.209.144-25.034.144-13.83 0-25.038-.064-25.038-.144 0-.078 11.208-.142 25.038-.142 13.825 0 25.035.064 25.035.142M121.49 168.724c0 .079-11.209.143-25.034.143-13.83 0-25.038-.064-25.038-.143 0-.079 11.208-.143 25.038-.143 13.825 0 25.035.064 25.035.143M103.652 173.161c0 .011-.113.02-.328.03-.245.006-.556.017-.939.026l-3.454.046-11.396.041c-4.434-.017-8.446-.03-11.397-.041l-3.454-.046-.939-.027c-.215-.008-.327-.018-.327-.029 0-.008.112-.02.327-.028l.94-.026c.853-.013 2.024-.027 3.453-.047l11.397-.041c4.433.017 8.445.031 11.396.041l3.454.047.94.026c.214.008.327.02.327.028" style="fill:#406fbf;fill-opacity:1;fill-rule:nonzero;stroke:none;stroke-width:.0606777"/><path d="M83.796 121.62s-4.397 2.264-6.35 10.392c-.964 4.009-4.949 17.052-5.59 24.346-.398 4.531 4.548 8.756 9.048 9.419.068.01.138.015.206.029 9.354 1.876 18.396-.664 18.396-.664l-1.884-8.536s-11.952-2.316-13.475-3.03l4.637-18.33s3.467-12.845-4.988-13.627" style="fill:#33535f;fill-opacity:1;fill-rule:nonzero;stroke:none;stroke-width:.0606777"/><path d="M84.883 123.46c0-.005.056 0 .165.02.108.02.272.043.482.095a5.36 5.36 0 0 1 1.726.78c.687.465 1.38 1.276 1.823 2.38.445 1.104.647 2.468.608 3.96-.018.748-.095 1.53-.24 2.337-.168.808-.393 1.616-.6 2.472l-1.365 5.46-3.183 12.651-.108-.189c1.4.395 2.887.787 4.4 1.162a93.69 93.69 0 0 0 4.704 1.042c.774.144 1.542.277 2.304.37.375.05.77.078 1.155.168.192.046.383.098.572.182.193.077.385.24.492.415.23.363.29.75.38 1.107l.24 1.085c.149.72.278 1.432.403 2.13.25 1.4.49 2.747.8 4.022l.033.134-.134.033a44.537 44.537 0 0 1-14.183 1.169c-3.448-.288-5.372-.799-5.372-.799.002-.007.125.007.361.044l1.045.163c.915.135 2.26.314 3.978.428a45.52 45.52 0 0 0 14.103-1.274l-.1.167c-.32-1.283-.565-2.638-.82-4.034a84.314 84.314 0 0 0-.408-2.121l-.241-1.077c-.09-.359-.158-.73-.34-1.008-.167-.287-.514-.372-.877-.464-.36-.085-.735-.112-1.125-.162a36.478 36.478 0 0 1-2.324-.37 92.207 92.207 0 0 1-4.72-1.044c-1.519-.376-3.007-.769-4.412-1.167l-.147-.04.037-.149 3.216-12.642 1.395-5.452c.21-.85.445-1.674.614-2.455.149-.792.232-1.564.257-2.3.052-1.471-.132-2.812-.552-3.893-.417-1.083-1.075-1.88-1.736-2.348a5.6 5.6 0 0 0-1.675-.816c-.206-.061-.366-.093-.472-.123a.769.769 0 0 1-.16-.05" style="fill:#17282f;fill-opacity:1;fill-rule:nonzero;stroke:none;stroke-width:.0606777"/><path d="M78.403 157.178c-.03-.005.014-.432.324-1.043.303-.609.925-1.366 1.826-1.906.905-.535 1.867-.72 2.546-.696.685.02 1.081.184 1.072.214-.012.054-.418-.029-1.067.01a5.407 5.407 0 0 0-2.389.744 5.413 5.413 0 0 0-1.794 1.745c-.343.553-.464.949-.518.933" style="fill:#17282f;fill-opacity:1;fill-rule:nonzero;stroke:none;stroke-width:.0606777"/><path d="m98.122 157.37 3.448-.379s1.418-2.352 2.349-3.173c.931-.82 5.745-3.124 5.745-3.124s.705.842 0 1.689c-.316.38-2.592 1.661-2.592 1.661-.27.936.538 1.83 1.497 1.655 1.41-.26 3.052-.551 3.269-.551.24 0 1.65-1.332 2.682-2.343.62-.605 1.725-.026 1.479.805a.43.43 0 0 1-.124.208s1.485-.052.16 1.945c0 0 .306 1.842-.78 2.686 0 0-.47 2.228-1.169 2.996-.699.768-7.526 2.227-7.526 2.227l-7.112.69-1.326-6.992" style="fill:#c0776a;fill-opacity:1;fill-rule:nonzero;stroke:none;stroke-width:.0606777"/><path d="M109.18 157.813c.002.04.467.067 1.222.03.744-.05 1.832-.153 2.87-.755 1.033-.621 1.622-1.553 2-2.194.374-.657.556-1.085.52-1.105-.04-.024-.292.369-.709.987-.42.604-1.02 1.47-1.971 2.042-.96.558-2 .7-2.73.803-.74.093-1.205.145-1.202.192M109.884 159.395c-.008.042.422.137 1.115.088a8.035 8.035 0 0 0 1.204-.176c.442-.11.95-.233 1.407-.574.437-.334.758-.726 1.047-1.075l.75-.935c.423-.538.667-.884.635-.912-.033-.029-.338.266-.804.766-.232.25-.508.553-.803.894-.297.334-.62.71-1.014 1.01-.383.29-.865.424-1.288.544-.429.112-.824.186-1.158.236-.668.104-1.085.09-1.09.134M110.843 161.154c.021.127 1.241-.13 2.684-.534.24-.053.388-.205.528-.32a5.098 5.098 0 0 0 .899-1.091c.265-.433.338-.746.3-.76-.044-.017-.184.252-.483.634a7.93 7.93 0 0 1-.558.643c-.11.115-.231.232-.361.342-.132.105-.264.225-.402.246-.737.2-1.383.405-1.854.557-.472.158-.753.249-.753.283" style="fill:#b85549;fill-opacity:1;fill-rule:nonzero;stroke:none;stroke-width:.0606777"/><path d="M221.373 74.933s.13 0 .385.011c.254.024.64-.006 1.139.089.996.117 2.512.44 4.216 1.455.86.485 1.736 1.184 2.564 2.078a11.252 11.252 0 0 1 2.14 3.355c.557 1.337.858 2.897.842 4.562 0 1.66.004 3.427.007 5.298l.037 63.407c.004 26.772.011 58.647.016 94.04v16.843c-.012 1.142-.086 2.317-.43 3.429-.324 1.112-.784 2.196-1.436 3.167a12.151 12.151 0 0 1-2.341 2.597c-1.828 1.467-4.116 2.403-6.49 2.519-1.519.044-3.03.039-4.547.033-.837-.004-1.674-.005-2.516 0l-14.312-.008-29.373-.015c-4.973-.004-9.981-.005-15.024-.008-2.52-.001-5.05-.004-7.587-.004-2.547.13-5.19-.542-7.319-2.021-2.14-1.469-3.718-3.689-4.455-6.153-.396-1.228-.47-2.539-.469-3.802v-3.789l.005-15.028c.004-9.947.006-19.75.008-29.38l.02-55.543c.01-17.7.017-34.52.024-50.26l.014-22.777.002-2.726c.006-.453.04-.91.063-1.363.08-.448.114-.903.23-1.34a11.496 11.496 0 0 1 2.364-4.762 11.7 11.7 0 0 1 4.168-3.115c1.582-.714 3.32-.965 4.995-.945l9.797.011 4.713.006 2.309.003a3.604 3.604 0 0 1 2.212.618 3.717 3.717 0 0 1 1.374 1.805c.288.722.22 1.502.228 2.22v1.094c0 .365-.013.726.034 1.071.09.696.384 1.362.84 1.882.446.527 1.059.904 1.717 1.066.332.083.663.107 1.013.1h1.035c1.375.003 2.727.006 4.056.007l14.82.022 6.533.011c.182-.004.367 0 .55 0 .333.006.664.009.98-.02a3.302 3.302 0 0 0 1.376-.483 3.564 3.564 0 0 0 1.576-2.264c.103-.45.084-.909.087-1.365l.001-1.344c.007-.439-.02-.88.06-1.311.073-.428.219-.836.423-1.204a3.545 3.545 0 0 1 1.794-1.586c.582-.253 1.193-.245 1.773-.238a24612.52 24612.52 0 0 1 7.748.02l4.484.018c1.01.006 1.527.017 1.527.017s-.517.01-1.527.015l-4.484.014-7.289.01a16.12 16.12 0 0 1-.461.001c-.578-.005-1.173-.01-1.734.238a3.443 3.443 0 0 0-1.736 1.544 3.714 3.714 0 0 0-.408 1.17c-.077.414-.05.85-.054 1.292l.001 1.344c0 .45.018.924-.087 1.39a3.69 3.69 0 0 1-1.626 2.35 3.44 3.44 0 0 1-1.43.506c-.336.029-.664.026-.996.023-.182-.001-.365-.004-.55 0l-6.533.002-14.82.005-4.056.001h-1.035a3.998 3.998 0 0 1-1.058-.104 3.505 3.505 0 0 1-1.816-1.123 3.75 3.75 0 0 1-.886-1.98c-.05-.37-.037-.736-.038-1.096V79.44c-.011-.734.054-1.473-.22-2.153a3.518 3.518 0 0 0-1.302-1.706 3.389 3.389 0 0 0-2.098-.58H148.312c-1.662-.018-3.352.23-4.904.93a11.475 11.475 0 0 0-4.08 3.057 11.258 11.258 0 0 0-2.31 4.664c-.114.428-.147.874-.225 1.312-.022.444-.054.887-.06 1.338v2.726l.005 22.777.005 50.26v55.542l-.005 29.381-.002 15.029v3.788c0 1.26.07 2.512.456 3.712.717 2.396 2.252 4.555 4.332 5.983 2.081 1.437 4.614 2.09 7.14 1.965l7.586.005c5.043.004 10.052.005 15.024.008l29.373.02 14.313.01c.837-.005 1.675 0 2.512.001 1.52.005 3.036.012 4.532-.03 2.31-.113 4.538-1.023 6.318-2.45.88-.73 1.648-1.584 2.28-2.529.635-.945 1.082-2 1.398-3.082.337-1.086.407-2.217.42-3.348.002-1.139.002-2.276.002-3.408 0-4.53.004-9.01.005-13.435l.052-94.04.063-63.407c.001-1.872.005-3.639.008-5.298.02-1.656-.273-3.199-.82-4.527a11.173 11.173 0 0 0-2.112-3.337c-.818-.89-1.684-1.59-2.537-2.076-1.69-1.02-3.196-1.352-4.188-1.48-.496-.098-.882-.073-1.136-.104-.254-.015-.384-.027-.384-.027" style="fill:#406fbf;fill-opacity:1;fill-rule:nonzero;stroke:none;stroke-width:.0606777"/><path d="M196.873 130.62c0-.087.917-.158 2.048-.158 1.132 0 2.049.07 2.049.158s-.917.158-2.049.158c-1.131 0-2.048-.07-2.048-.158M188.678 130.62c0-.087.917-.158 2.048-.158 1.132 0 2.05.07 2.05.158s-.918.158-2.05.158c-1.13 0-2.048-.07-2.048-.158M180.483 130.62c0-.087.917-.158 2.048-.158 1.132 0 2.05.07 2.05.158s-.918.158-2.05.158c-1.13 0-2.048-.07-2.048-.158M172.288 130.62c0-.087.917-.158 2.049-.158 1.131 0 2.049.07 2.049.158s-.918.158-2.05.158c-1.131 0-2.048-.07-2.048-.158M164.093 130.62c0-.087.917-.158 2.049-.158 1.131 0 2.049.07 2.049.158s-.918.158-2.05.158c-1.13 0-2.048-.07-2.048-.158M155.898 130.62c0-.087.917-.158 2.048-.158 1.133 0 2.05.07 2.05.158s-.917.158-2.05.158c-1.13 0-2.048-.07-2.048-.158" style="fill:#406fbf;fill-opacity:1;fill-rule:nonzero;stroke:none;stroke-width:.0606777"/><path d="M149.677 128.496c.087 0 .158.951.158 2.124l-.158-.158h.11l.108.001.21.001a15.622 15.622 0 0 1 1.075.042c.384.029.621.068.621.112 0 .043-.237.083-.621.111a17.022 17.022 0 0 1-1.075.042l-.21.001-.108.001H149.678c-.071-.07.157.158-.16-.158 0-1.173.071-2.123.159-2.123" style="fill:#f03d5f;fill-opacity:1;fill-rule:nonzero;stroke:none;stroke-width:.0606777"/><path d="M149.677 120.185c.087 0 .158.93.158 2.077 0 1.148-.071 2.079-.158 2.079-.088 0-.158-.93-.158-2.079 0-1.147.07-2.077.158-2.077M149.677 111.873c.087 0 .158.931.158 2.078 0 1.148-.071 2.078-.158 2.078-.088 0-.158-.93-.158-2.078 0-1.147.07-2.078.158-2.078" style="fill:#406fbf;fill-opacity:1;fill-rule:nonzero;stroke:none;stroke-width:.0606777"/><path d="M151.8 105.594c0 .087-.95.158-2.123.158l.158-.158V105.703l-.001.108-.002.21-.01.4c-.008.254-.02.483-.034.674-.028.385-.068.622-.112.622-.043 0-.083-.237-.111-.622-.014-.191-.026-.42-.034-.674a60.619 60.619 0 0 1-.01-.4l-.004-.21V105.594l.158-.158c1.173 0 2.123.07 2.123.158" style="fill:#f03d5f;fill-opacity:1;fill-rule:nonzero;stroke:none;stroke-width:.0606777"/><path d="M159.995 105.594c0 .087-.917.158-2.048.158-1.132 0-2.05-.07-2.05-.158s.918-.158 2.05-.158c1.131 0 2.048.07 2.048.158M168.19 105.594c0 .087-.917.158-2.048.158-1.132 0-2.049-.07-2.049-.158s.917-.158 2.05-.158c1.13 0 2.048.07 2.048.158M176.386 105.594c0 .087-.918.158-2.05.158-1.131 0-2.048-.07-2.048-.158s.917-.158 2.049-.158c1.131 0 2.049.07 2.049.158M184.58 105.594c0 .087-.917.158-2.048.158-1.132 0-2.05-.07-2.05-.158s.918-.158 2.05-.158c1.13 0 2.048.07 2.048.158M192.775 105.594c0 .087-.917.158-2.049.158-1.13 0-2.048-.07-2.048-.158s.917-.158 2.048-.158c1.132 0 2.05.07 2.05.158M200.97 105.594c0 .087-.918.158-2.049.158-1.131 0-2.048-.07-2.048-.158s.917-.158 2.048-.158 2.049.07 2.049.158M150.498 106.245h-1.302v-1.302h1.302v1.302M150.328 131.271h-1.302v-1.302h1.302v1.302M187.28 131.271h-1.302v-1.302h1.302v1.302M187.28 105.97h-1.302v-1.302h1.302v1.302" style="fill:#406fbf;fill-opacity:1;fill-rule:nonzero;stroke:none;stroke-width:.0606777"/><path d="M198.201 167.43c0 .08-5.736.146-12.81.146-7.075 0-12.81-.065-12.81-.146 0-.08 5.735-.145 12.81-.145 7.074 0 12.81.065 12.81.145" style="fill:#dadbd8;fill-opacity:1;fill-rule:nonzero;stroke:none;stroke-width:.0606777"/><path d="M199.45 180.026c0 .08-6.016.145-13.434.145-7.421 0-13.435-.065-13.435-.145 0-.08 6.014-.146 13.435-.146 7.418 0 13.433.065 13.433.146" style="fill:#17282f;fill-opacity:1;fill-rule:nonzero;stroke:none;stroke-width:.0606777"/><path d="M198.201 224.586c0 .08-5.736.146-12.81.146-7.075 0-12.81-.066-12.81-.146 0-.08 5.735-.146 12.81-.146 7.074 0 12.81.066 12.81.146" style="fill:#dadbd8;fill-opacity:1;fill-rule:nonzero;stroke:none;stroke-width:.0606777"/><path d="M199.45 237.181c0 .081-6.016.146-13.434.146-7.421 0-13.435-.065-13.435-.146 0-.08 6.014-.145 13.435-.145 7.418 0 13.433.064 13.433.145" style="fill:#17282f;fill-opacity:1;fill-rule:nonzero;stroke:none;stroke-width:.0606777"/><path d="M198.27 141.573c0 .08-5.735.145-12.809.145-7.076 0-12.81-.065-12.81-.145 0-.081 5.734-.147 12.81-.147 7.074 0 12.81.066 12.81.147" style="fill:#f03d5f;fill-opacity:1;fill-rule:nonzero;stroke:none;stroke-width:.0606777"/><path d="M199.52 154.168c0 .08-6.017.146-13.434.146-7.422 0-13.436-.066-13.436-.146 0-.08 6.014-.146 13.436-.146 7.417 0 13.433.065 13.433.146" style="fill:#17282f;fill-opacity:1;fill-rule:nonzero;stroke:none;stroke-width:.0606777"/><path d="M161.602 155.272c0-.088.951-.158 2.123-.158 1.173 0 2.124.07 2.124.158 0 .087-.95.158-2.124.158-1.172 0-2.123-.071-2.123-.158M153.107 155.272c0-.088.951-.158 2.123-.158 1.174 0 2.124.07 2.124.158 0 .087-.95.158-2.124.158-1.172 0-2.123-.071-2.123-.158M151.537 148.347c.087 0 .158.951.158 2.123 0 1.173-.07 2.125-.158 2.125-.087 0-.158-.952-.158-2.125 0-1.172.071-2.123.158-2.123M152.646 140.96c0 .06-.446.112-1.109.139l.139-.139c.012.298.02.645.02 1.015 0 1.174-.072 2.125-.159 2.125-.087 0-.158-.951-.158-2.125 0-.37.007-.717.02-1.015l.006-.144.132.005c.663.027 1.109.08 1.109.14M161.14 140.96c0 .088-.95.158-2.123.158-1.174 0-2.124-.07-2.124-.158 0-.087.95-.158 2.124-.158 1.173 0 2.123.07 2.123.158M165.849 144.746c-.087 0-.158-.95-.158-2.124 0-.677.024-1.28.06-1.662l.098.098c-.292-.027-.461-.06-.461-.098 0-.037.17-.07.461-.097l.088-.008.01.106c.038.381.062.984.062 1.662 0 1.173-.071 2.123-.159 2.123M165.849 153.24c-.087 0-.158-.95-.158-2.123 0-1.173.071-2.124.158-2.124.087 0 .158.951.158 2.124s-.07 2.124-.158 2.124" style="fill:#406fbf;fill-opacity:1;fill-rule:nonzero;stroke:none;stroke-width:.0606777"/><path d="M166.49 156.16h-1.586v-1.585h1.585v1.585M166.49 141.364h-1.586v-1.585h1.585v1.585M152.33 156.16h-1.585v-1.585h1.584v1.585M152.33 141.753h-1.585v-1.586h1.584v1.586" style="fill:#406fbf;fill-opacity:1;fill-rule:nonzero;stroke:none;stroke-width:.0606777"/><path d="M161.602 181.622c0-.087.951-.158 2.123-.158 1.173 0 2.124.07 2.124.158 0 .087-.95.158-2.124.158-1.172 0-2.123-.071-2.123-.158M153.107 181.622c0-.087.951-.158 2.123-.158 1.174 0 2.124.07 2.124.158 0 .087-.95.158-2.124.158-1.172 0-2.123-.071-2.123-.158M151.537 174.697c.087 0 .158.95.158 2.124 0 1.173-.07 2.124-.158 2.124-.087 0-.158-.951-.158-2.124s.071-2.124.158-2.124M152.646 167.31c0 .06-.446.112-1.109.138l.139-.138c.012.298.02.646.02 1.016 0 1.173-.072 2.124-.159 2.124-.087 0-.158-.951-.158-2.124 0-.37.007-.718.02-1.016l.006-.144.132.005c.663.027 1.109.079 1.109.139M161.14 167.31c0 .087-.95.159-2.123.159-1.174 0-2.124-.072-2.124-.159 0-.087.95-.158 2.124-.158 1.173 0 2.123.07 2.123.158M165.849 171.096c-.087 0-.158-.951-.158-2.124 0-.677.024-1.28.06-1.662l.098.098c-.292-.027-.461-.061-.461-.098 0-.037.17-.07.461-.098l.088-.008.01.106c.038.382.062.985.062 1.662 0 1.173-.071 2.124-.159 2.124M165.849 179.59c-.087 0-.158-.95-.158-2.123 0-1.173.071-2.124.158-2.124.087 0 .158.95.158 2.124 0 1.173-.07 2.124-.158 2.124" style="fill:#dadbd8;fill-opacity:1;fill-rule:nonzero;stroke:none;stroke-width:.0606777"/><path d="M166.49 182.51h-1.586v-1.585h1.585v1.586M166.49 167.714h-1.586v-1.585h1.585v1.585M152.33 182.51h-1.585v-1.585h1.584v1.586M152.33 168.103h-1.585v-1.585h1.584v1.585" style="fill:#dadbd8;fill-opacity:1;fill-rule:nonzero;stroke:none;stroke-width:.0606777"/><path d="M161.678 209.527c0-.088.95-.158 2.124-.158 1.173 0 2.123.07 2.123.158s-.95.158-2.123.158c-1.173 0-2.124-.07-2.124-.158M153.183 209.527c0-.088.951-.158 2.124-.158s2.124.07 2.124.158-.951.158-2.124.158-2.124-.07-2.124-.158M151.613 202.602c.088 0 .159.95.159 2.123 0 1.174-.071 2.124-.159 2.124-.087 0-.157-.95-.157-2.124 0-1.173.07-2.123.157-2.123M152.721 195.215c0 .06-.445.112-1.108.139l.139-.14c.012.299.02.647.02 1.016 0 1.174-.071 2.124-.158 2.124-.088 0-.158-.95-.158-2.124 0-.37.007-.717.02-1.015l.005-.144.132.005c.663.027 1.108.078 1.108.138M161.216 195.215c0 .088-.95.158-2.123.158-1.173 0-2.124-.07-2.124-.158 0-.087.95-.158 2.124-.158 1.172 0 2.123.07 2.123.158M165.925 199c-.087 0-.158-.95-.158-2.123 0-.678.024-1.28.06-1.662l.098.097c-.291-.026-.461-.06-.461-.097 0-.037.17-.07.461-.098l.088-.008.01.106c.037.382.06.984.06 1.662 0 1.172-.07 2.123-.157 2.123M165.925 207.495c-.087 0-.158-.95-.158-2.124 0-1.172.071-2.123.158-2.123.088 0 .158.951.158 2.123 0 1.173-.07 2.124-.158 2.124" style="fill:#406fbf;fill-opacity:1;fill-rule:nonzero;stroke:none;stroke-width:.0606777"/><path d="M166.566 210.415h-1.585v-1.585h1.585v1.585M166.566 195.619h-1.585v-1.585h1.585v1.585M152.406 210.415h-1.585v-1.585h1.585v1.585M152.406 196.008h-1.585v-1.586h1.585v1.586" style="fill:#406fbf;fill-opacity:1;fill-rule:nonzero;stroke:none;stroke-width:.0606777"/><path d="M161.602 237.356c0-.087.951-.158 2.123-.158 1.173 0 2.124.071 2.124.158 0 .088-.95.158-2.124.158-1.172 0-2.123-.07-2.123-.158M153.107 237.356c0-.087.951-.158 2.123-.158 1.174 0 2.124.071 2.124.158 0 .088-.95.158-2.124.158-1.172 0-2.123-.07-2.123-.158M151.537 230.43c.087 0 .158.952.158 2.124 0 1.174-.07 2.124-.158 2.124-.087 0-.158-.95-.158-2.124 0-1.172.071-2.123.158-2.123M152.646 223.044c0 .06-.446.112-1.109.139l.139-.14c.012.3.02.647.02 1.017 0 1.173-.072 2.123-.159 2.123-.087 0-.158-.95-.158-2.123 0-.37.007-.718.02-1.016l.006-.144.132.005c.663.027 1.109.08 1.109.139M161.14 223.044c0 .088-.95.158-2.123.158-1.174 0-2.124-.07-2.124-.158 0-.087.95-.157 2.124-.157 1.173 0 2.123.07 2.123.157M165.849 226.83c-.087 0-.158-.951-.158-2.124 0-.677.024-1.28.06-1.662l.098.098c-.292-.027-.461-.06-.461-.098 0-.037.17-.07.461-.098l.088-.007.01.105c.038.382.062.985.062 1.663 0 1.172-.071 2.123-.159 2.123M165.849 235.325c-.087 0-.158-.951-.158-2.124s.071-2.123.158-2.123c.087 0 .158.95.158 2.123 0 1.173-.07 2.124-.158 2.124" style="fill:#dadbd8;fill-opacity:1;fill-rule:nonzero;stroke:none;stroke-width:.0606777"/><path d="M166.49 238.244h-1.586v-1.585h1.585v1.585M166.49 223.448h-1.586v-1.585h1.585v1.585M152.33 238.244h-1.585v-1.585h1.584v1.585M152.33 223.837h-1.585v-1.585h1.584v1.585" style="fill:#dadbd8;fill-opacity:1;fill-rule:nonzero;stroke:none;stroke-width:.0606777"/><path d="M161.602 266.153c0-.087.951-.158 2.123-.158 1.173 0 2.124.071 2.124.158 0 .088-.95.158-2.124.158-1.172 0-2.123-.07-2.123-.158M153.107 266.153c0-.087.951-.158 2.123-.158 1.174 0 2.124.071 2.124.158 0 .088-.95.158-2.124.158-1.172 0-2.123-.07-2.123-.158M151.537 259.228c.087 0 .158.951.158 2.123 0 1.174-.07 2.125-.158 2.125-.087 0-.158-.951-.158-2.125 0-1.172.071-2.123.158-2.123M152.646 251.84c0 .06-.446.113-1.109.14l.139-.138c.012.297.02.645.02 1.015 0 1.173-.072 2.124-.159 2.124-.087 0-.158-.95-.158-2.124 0-.37.007-.718.02-1.015l.006-.144.132.005c.663.027 1.109.079 1.109.138M161.14 251.84c0 .089-.95.16-2.123.16-1.174 0-2.124-.071-2.124-.16 0-.086.95-.156 2.124-.156 1.173 0 2.123.07 2.123.157M165.849 255.628c-.087 0-.158-.952-.158-2.124 0-.678.024-1.28.06-1.662l.098.097c-.292-.027-.461-.06-.461-.098 0-.037.17-.07.461-.097l.088-.008.01.106c.038.381.062.984.062 1.662 0 1.172-.071 2.124-.159 2.124M165.849 264.123c-.087 0-.158-.952-.158-2.124 0-1.174.071-2.124.158-2.124.087 0 .158.95.158 2.124 0 1.172-.07 2.124-.158 2.124" style="fill:#406fbf;fill-opacity:1;fill-rule:nonzero;stroke:none;stroke-width:.0606777"/><path d="M166.49 267.041h-1.586v-1.585h1.585v1.585M166.49 252.245h-1.586v-1.585h1.585v1.585M152.33 267.041h-1.585v-1.585h1.584v1.585M152.33 252.634h-1.585v-1.585h1.584v1.585" style="fill:#406fbf;fill-opacity:1;fill-rule:nonzero;stroke:none;stroke-width:.0606777"/><path d="M197.66 194.732c0 .08-5.737.146-12.81.146-7.076 0-12.81-.065-12.81-.146 0-.08 5.734-.145 12.81-.145 7.073 0 12.81.065 12.81.145" style="fill:#f03d5f;fill-opacity:1;fill-rule:nonzero;stroke:none;stroke-width:.0606777"/><path d="M198.908 207.328c0 .08-6.016.146-13.433.146-7.421 0-13.436-.066-13.436-.146 0-.081 6.015-.146 13.436-.146 7.417 0 13.433.065 13.433.146" style="fill:#17282f;fill-opacity:1;fill-rule:nonzero;stroke:none;stroke-width:.0606777"/><path d="M197.66 253.087c0 .081-5.737.146-12.81.146-7.076 0-12.81-.065-12.81-.146 0-.08 5.734-.146 12.81-.146 7.073 0 12.81.066 12.81.146" style="fill:#f03d5f;fill-opacity:1;fill-rule:nonzero;stroke:none;stroke-width:.0606777"/><path d="M198.908 265.682c0 .08-6.016.146-13.433.146-7.421 0-13.436-.065-13.436-.146 0-.08 6.015-.145 13.436-.145 7.417 0 13.433.065 13.433.145" style="fill:#17282f;fill-opacity:1;fill-rule:nonzero;stroke:none;stroke-width:.0606777"/><path d="M149.933 97.102c.004-.004.06-.007.167-.011l.466-.016 1.718-.04-.047.048-.021-1.246c.002-.232-.02-.45.004-.717a.66.66 0 0 1 .576-.53c.278-.006.521-.018.821-.005.31.038.573.336.563.664l.021 1.817-.08-.079 2.168-.022-.083.084-.023-2.7-.006-.688c-.001-.212-.13-.354-.305-.512l-.948-.934-.913-.902-.443-.438c-.153-.147-.272-.298-.449-.335a.581.581 0 0 0-.497.095c-.131.111-.272.268-.404.397l-.777.785c-.49.508-.999.972-1.37 1.41-.156.243-.097.54-.108.81l-.002.763c-.004.469-.006.879-.007 1.23l-.01.787c-.004.182-.007.28-.011.284a1.624 1.624 0 0 1-.015-.26l-.022-.775-.028-1.24-.015-.779c-.002-.139-.005-.28-.006-.426a.896.896 0 0 1 .12-.454c.4-.491.879-.926 1.372-1.45.249-.255.507-.518.771-.79.14-.136.253-.272.42-.414a.735.735 0 0 1 .627-.124c.23.051.381.24.52.372l.446.436.916.899.95.932c.076.08.168.149.242.262a.71.71 0 0 1 .114.366c0 .229.005.46.007.691l.02 2.7.001.084h-.084l-2.167.015h-.08v-.079l-.01-1.818a.522.522 0 0 0-.438-.526c-.249-.012-.543-.005-.785-.002a.531.531 0 0 0-.468.422c-.02.218-.006.472-.01.692l.001 1.247v.048h-.048c-.716-.006-1.3-.01-1.747-.012l-.455-.008a.817.817 0 0 1-.15-.008" style="fill:#406fbf;fill-opacity:1;fill-rule:nonzero;stroke:none;stroke-width:.0606777"/><path d="M149.196 115.555c0 .005-.05.01-.147.016l-.435.015-1.67.03-6.144.05-9.111.034c-1.716.001-3.515.005-5.38.008l-1.412.001c-.482.005-.948-.029-1.38.106a2.59 2.59 0 0 0-1.79 1.926c-.094.447-.046.95-.059 1.438v1.457l-.002 2.846-.01 5.382-.034 9.111-.05 6.143-.03 1.67-.016.435a.537.537 0 0 1-.016.148.5.5 0 0 1-.016-.148l-.016-.434-.03-1.67c-.012-1.479-.028-3.57-.05-6.144l-.033-9.111-.01-5.382-.002-2.846-.001-1.457c.014-.486-.041-.977.065-1.504a2.9 2.9 0 0 1 2.011-2.162c.498-.152 1.006-.111 1.468-.116h1.411c1.866.005 3.665.008 5.38.011l9.112.034 6.144.05 1.67.03c.176.007.318.012.435.015.097.005.147.011.147.016" style="fill:#6d97d6;fill-opacity:1;fill-rule:nonzero;stroke:none;stroke-width:.0606777"/><path d="M150.778 115.504a.958.958 0 1 1-1.917 0 .958.958 0 0 1 1.917 0M168.249 123.318c-.03 0-.03-.217-.136-.58a2.428 2.428 0 0 0-.893-1.267 2.333 2.333 0 0 0-2.186-.303c-.81.283-1.506 1.145-1.497 2.15-.008 1.005.688 1.867 1.497 2.15a2.33 2.33 0 0 0 2.186-.303 2.43 2.43 0 0 0 .893-1.268c.106-.362.107-.58.136-.579.014 0 .057.218-.016.61a2.424 2.424 0 0 1-.877 1.414c-.552.457-1.493.731-2.42.4-.92-.302-1.725-1.278-1.714-2.424-.01-1.146.794-2.122 1.713-2.424.928-.331 1.87-.057 2.42.4.573.456.805 1.032.878 1.414.074.392.03.611.016.61" style="fill:#406fbf;fill-opacity:1;fill-rule:nonzero;stroke:none;stroke-width:.0606777"/></svg>